<svg width="32" height="32" viewBox="0 0 32 32" fill="none" xmlns="http://www.w3.org/2000/svg">
<path d="M11.461 17.9339C12.0201 17.9339 12.4734 17.4807 12.4734 16.9216C12.4734 16.3624 12.0201 15.9092 11.461 15.9092C10.9019 15.9092 10.4486 16.3624 10.4486 16.9216C10.4486 17.4807 10.9019 17.9339 11.461 17.9339Z" fill="#7B8E98"/>
<path d="M20.539 17.9339C21.0981 17.9339 21.5514 17.4807 21.5514 16.9216C21.5514 16.3624 21.0981 15.9092 20.539 15.9092C19.9799 15.9092 19.5266 16.3624 19.5266 16.9216C19.5266 17.4807 19.9799 17.9339 20.539 17.9339Z" fill="#7B8E98"/>
<path d="M13.5818 26.6645C13.5818 26.1462 14.0019 25.7261 14.5202 25.7261C15.0385 25.7261 15.4586 26.1462 15.4586 26.6645V26.9285C15.4586 27.4467 15.0385 27.8669 14.5202 27.8669C14.0019 27.8669 13.5818 27.4467 13.5818 26.9285V26.6645Z" fill="#7B8E98"/>
<path d="M16.5415 26.6645C16.5415 26.1462 16.9617 25.7261 17.4799 25.7261C17.9982 25.7261 18.4183 26.1462 18.4183 26.6645V26.9285C18.4183 27.4467 17.9982 27.8669 17.4799 27.8669C16.9617 27.8669 16.5415 27.4467 16.5415 26.9285V26.6645Z" fill="#7B8E98"/>
<path d="M15.1963 7.17805L15.2399 7.17549C15.4524 7.16305 15.6261 7.1598 15.7489 7.1598C15.8697 7.1598 15.9426 7.16293 15.9548 7.1636L15.1963 7.17805ZM15.1963 7.17805L15.1609 7.20363C14.7478 7.50192 13.8311 8.4665 14.009 11.017L15.1963 7.17805ZM12.5849 7.70683C10.425 8.49548 9.14254 10.0325 8.78981 12.2616C8.14572 16.3319 9.56827 19.8023 10.5959 22.3093L10.5994 22.3178L10.5994 22.3179L10.5995 22.3179C10.7264 22.6279 10.8458 22.9194 10.9547 23.1957L11.0139 23.3458L11.1594 23.2758C11.7061 23.0124 12.575 22.6628 13.6895 22.4425C15.3508 22.1141 17.9008 22.017 20.8318 23.3121L20.9749 23.3753L21.0321 23.2297C21.1446 22.9433 21.2684 22.6405 21.4007 22.3179L21.2619 22.261L21.4007 22.3178L21.4043 22.3091C22.432 19.802 23.8544 16.3318 23.2103 12.2617L23.0622 12.2851M12.5849 7.70683L12.6238 7.81344L12.6768 7.83336L12.7277 7.97444C12.7178 7.97803 12.712 7.98006 12.7067 7.98189C12.7012 7.98382 12.6963 7.98553 12.6879 7.98861L12.6878 7.98864C12.6622 7.99799 12.6367 8.00745 12.6113 8.01701C12.3129 8.90298 12.2034 9.94654 12.2865 11.1372C12.4559 13.5653 13.8607 14.8266 15.0094 15.4569M12.5849 7.70683C12.5914 7.70445 12.6029 7.7004 12.6123 7.69708C12.6182 7.695 12.6233 7.6932 12.6258 7.69228L12.9316 7.58186L12.8172 7.88616C12.479 8.78541 12.3483 9.86839 12.4361 11.1267C12.601 13.4896 13.9633 14.7118 15.0815 15.3254L15.0094 15.4569M12.5849 7.70683C12.5849 7.70684 12.5848 7.70685 12.5848 7.70686L12.6238 7.81343L18.7093 16.1965M15.0094 15.4569C16.1852 16.1022 17.2962 16.2094 17.419 16.2195L18.7721 16.3534L18.7093 16.1965M15.0094 15.4569L15.0816 15.3254C16.231 15.9562 17.3182 16.0607 17.4313 16.07L17.4338 16.0702L17.4338 16.0703L18.7093 16.1965M18.7093 16.1965L18.8775 16.2132L18.3795 14.9677C18.3478 14.8658 18.0722 13.8855 18.7652 12.6495C19.453 11.4227 19.838 9.63572 19.7181 8.15061C19.6935 8.13989 19.6687 8.12928 19.6438 8.11878L19.702 7.98055L19.8511 7.96431C19.8542 7.99252 19.8571 8.02085 19.8598 8.04929C21.6696 8.86442 22.7459 10.2869 23.0622 12.2851M18.7093 16.1965L18.2402 15.0234L18.2358 15.0124L18.2363 15.0122C18.1974 14.8871 17.9142 13.8605 18.6344 12.5762C19.3332 11.3297 19.7147 9.4829 19.5529 7.99679L19.5253 7.74333L19.7602 7.84231C21.7135 8.66522 22.8769 10.1552 23.2103 12.2617L23.0622 12.2851M18.7093 16.1965L23.0622 12.2851M26.5515 0.680444L26.5515 0.680463C26.5778 0.742977 26.9223 1.57808 27.0922 2.71087C27.2625 3.84587 27.2546 5.26021 26.5972 6.49604C25.9566 7.70043 24.6917 8.50259 23.7927 8.94629L23.6439 9.01974L23.732 9.16041C24.2479 9.98425 24.5974 10.9389 24.7677 12.0151C25.4802 16.5168 23.9104 20.3527 22.8598 22.9159L22.8594 22.9169C22.6539 23.4181 22.4608 23.8892 22.3136 24.2974C22.1674 24.7026 22.061 25.06 22.0366 25.33C22.0217 25.4945 22.0092 25.6733 21.9962 25.8603L21.9959 25.8646L22.1455 25.8751L21.9959 25.8646C21.9183 26.9768 21.8125 28.4531 21.0265 29.6653C20.0944 31.1026 18.4196 31.8499 16 31.8499C13.5805 31.8499 11.9056 31.1027 10.9735 29.6653C10.1875 28.4531 10.0817 26.9768 10.0042 25.8646C9.991 25.676 9.97839 25.4959 9.96348 25.3301L9.96348 25.33C9.93915 25.0601 9.83274 24.7027 9.68653 24.2974C9.53955 23.89 9.3469 23.4199 9.14193 22.9198L9.14032 22.9159L9.00153 22.9728L9.14032 22.9159C8.08964 20.3527 6.51989 16.5168 7.23237 12.0151L7.23237 12.0151C7.40265 10.9389 7.75219 9.98426 8.2681 9.16041L8.35618 9.01974L8.20735 8.94628C7.30843 8.50265 6.04347 7.70049 5.40284 6.49611C4.74547 5.26027 4.73758 3.8459 4.90786 2.71087C5.07781 1.57806 5.42233 0.742942 5.4486 0.680486L5.44862 0.680444L5.66843 0.157608L6.23394 0.199772L6.23395 0.199773C6.29141 0.204055 7.08651 0.269589 8.06478 0.646419C9.04302 1.02323 10.1945 1.70733 10.9811 2.94286C11.5848 3.89116 11.6701 5.12936 11.5898 6.17058L11.5713 6.41043L11.7948 6.32148C11.8978 6.2805 12.0011 6.24086 12.1063 6.20324C13.9471 5.54557 15.6707 5.57475 15.9944 5.58707L15.9944 5.5875L16.0057 5.58707C16.3297 5.57481 18.053 5.5457 19.8939 6.20325C19.999 6.24086 20.1024 6.2805 20.2054 6.32148L20.4289 6.41043L20.4104 6.17058C20.3301 5.12936 20.4153 3.89116 21.019 2.94287L20.8925 2.86231L21.019 2.94286C21.8056 1.70733 22.9571 1.02324 23.9353 0.646419C24.9136 0.269589 25.7087 0.204055 25.7661 0.199773L25.755 0.0501874L25.7661 0.199772L26.3317 0.157608L26.5515 0.680444ZM16.0001 7.16618L15.956 7.16368L15.9122 13.8116L15.84 13.9431C15.84 13.9431 15.84 13.9431 15.84 13.9431C16.024 14.0441 16.2065 14.127 16.3801 14.195L16.5732 14.2707L16.5846 14.0636C16.6194 13.4315 16.7873 12.6464 17.2589 11.8051L17.1281 11.7317L17.2589 11.8051C17.6731 11.0663 17.9006 10.1368 17.9789 9.30901C18.0181 8.89412 18.0202 8.50071 17.9882 8.16502C17.9566 7.83315 17.8904 7.54366 17.7834 7.34625L17.7478 7.28059L17.6739 7.26942C16.7547 7.1304 16.0868 7.16124 16.0454 7.1636C16.0446 7.16365 16.0441 7.16368 16.0437 7.16371L16.0001 7.16618ZM6.84642 1.91122L6.70323 1.8739L6.66397 2.01657C6.53987 2.46749 6.4084 3.08979 6.38906 3.75324C6.36975 4.41582 6.46196 5.12971 6.79492 5.75556C7.06006 6.25398 7.52141 6.67363 7.99667 7.00304C8.47391 7.33383 8.97747 7.58204 9.34249 7.73364L9.42919 7.76965L9.49948 7.7074C9.57827 7.63762 9.65966 7.56949 9.743 7.50219L9.78223 7.47053L9.79436 7.4216C9.89806 7.00355 10.0177 6.34709 10.0358 5.67413C10.0537 5.00698 9.973 4.29551 9.65093 3.78962L9.65093 3.78962C8.90235 2.61387 7.63156 2.11583 6.84642 1.91122ZM11.5339 25.1883L11.5339 25.1884C11.5502 25.3678 11.563 25.552 11.5768 25.7489L11.5772 25.7549L11.5772 25.7549L11.5788 25.7779C11.6526 26.8369 11.7312 27.9657 12.3072 28.8246C12.8991 29.7074 13.9885 30.2731 16 30.2731C18.0116 30.2731 19.101 29.7074 19.6929 28.8246C20.2688 27.9657 20.3474 26.8369 20.4212 25.7779L20.4228 25.7549C20.4367 25.5559 20.4497 25.3696 20.4661 25.1883C20.4714 25.1301 20.4793 25.0696 20.4885 25.007L20.5049 24.8963L20.4034 24.8491C18.3077 23.8739 16.1803 23.577 14.0785 23.9732C12.8493 24.2049 11.9673 24.6221 11.585 24.8276L11.4915 24.8778L11.5077 24.9827C11.5188 25.0539 11.528 25.1225 11.5339 25.1883ZM22.5005 7.70746L22.5708 7.76971L22.6575 7.73371C23.0219 7.58242 23.5254 7.33431 24.0027 7.0035C24.4781 6.67406 24.9398 6.25424 25.2051 5.75557C25.5362 5.13328 25.6274 4.41975 25.6078 3.75666C25.5882 3.09259 25.4571 2.4684 25.3336 2.01635L25.2946 1.87345L25.1512 1.91069C24.3666 2.11448 23.0991 2.61145 22.349 3.78962L22.4756 3.87018L22.349 3.78963C22.0273 4.29506 21.9486 5.01346 21.9673 5.6834C21.9862 6.35953 22.1054 7.0162 22.2054 7.42123L22.2175 7.47027L22.2568 7.502C22.3402 7.56935 22.4217 7.63761 22.5005 7.70746Z" fill="#7B8E98" stroke="white" stroke-width="0.3"/>
</svg>
