<svg width="32" height="32" viewBox="0 0 32 32" fill="none" xmlns="http://www.w3.org/2000/svg">
<path d="M21.9134 25.3333C20.5827 25.3333 19.5294 24.5093 19.2387 23.3333H12.7614C12.472 24.5093 11.4174 25.3333 10.0867 25.3333C8.56937 25.3333 7.33337 24.056 7.33337 22.4853C7.33337 21.812 7.56271 21.172 7.96671 20.6667C7.56271 20.1613 7.33337 19.5213 7.33337 18.848C7.33337 17.2773 8.56937 16 10.0867 16C11.4174 16 12.4707 16.824 12.7614 18H19.2374C19.528 16.824 20.5814 16 21.912 16C23.4307 16 24.6654 17.2773 24.6654 18.848C24.6654 19.5213 24.436 20.1613 24.032 20.6667C24.436 21.172 24.6654 21.812 24.6654 22.4853C24.6667 24.056 23.4307 25.3333 21.9134 25.3333ZM12.1747 22H19.8254C20.1934 22 20.492 22.2987 20.492 22.6667C20.492 23.5827 21.2294 24 21.912 24C22.696 24 23.332 23.32 23.332 22.4853C23.332 21.9707 23.0894 21.496 22.6854 21.2133C22.5067 21.0893 22.4 20.884 22.4 20.6667C22.4 20.4493 22.5067 20.244 22.6854 20.12C23.0907 19.8387 23.332 19.3627 23.332 18.848C23.3334 18.0133 22.696 17.3333 21.9134 17.3333C21.2294 17.3333 20.4934 17.7507 20.4934 18.6667C20.4934 19.0347 20.1947 19.3333 19.8267 19.3333H12.1747C11.8067 19.3333 11.508 19.0347 11.508 18.6667C11.508 17.7507 10.7707 17.3333 10.088 17.3333C9.30404 17.3333 8.66671 18.0133 8.66671 18.848C8.66671 19.3627 8.90937 19.8373 9.31337 20.12C9.49204 20.244 9.59871 20.4493 9.59871 20.6667C9.59871 20.884 9.49204 21.0893 9.31337 21.2133C8.90937 21.496 8.66671 21.9707 8.66671 22.4853C8.66671 23.32 9.30404 24 10.0867 24C10.7707 24 11.5067 23.5827 11.5067 22.6667C11.508 22.2987 11.8054 22 12.1747 22Z" fill="#7B8E98"/>
<path d="M27.3333 32H4.66663C3.56396 32 2.66663 31.1027 2.66663 30V15.3333C2.66663 15.2747 2.67463 15.2147 2.69063 15.1587L6.42129 1.47333C6.65996 0.605333 7.45329 0 8.35196 0H23.6493C24.548 0 25.3413 0.605333 25.5786 1.47333L29.3106 15.1587C29.3253 15.2147 29.3333 15.2747 29.3333 15.3333V30C29.3333 31.1027 28.436 32 27.3333 32ZM3.99996 15.4227V30C3.99996 30.368 4.29996 30.6667 4.66663 30.6667H27.3333C27.7 30.6667 28 30.368 28 30V15.4227L24.292 1.824C24.212 1.536 23.948 1.33333 23.648 1.33333H8.35196C8.05196 1.33333 7.78796 1.536 7.70796 1.82533L3.99996 15.4227Z" fill="#7B8E98"/>
<path d="M20 7.99984H12C10.5294 7.99984 9.33337 6.80384 9.33337 5.33317C9.33337 3.8625 10.5294 2.6665 12 2.6665H20C21.4707 2.6665 22.6667 3.8625 22.6667 5.33317C22.6667 6.80384 21.4707 7.99984 20 7.99984ZM12 3.99984C11.264 3.99984 10.6667 4.5985 10.6667 5.33317C10.6667 6.06784 11.264 6.6665 12 6.6665H20C20.736 6.6665 21.3334 6.06784 21.3334 5.33317C21.3334 4.5985 20.736 3.99984 20 3.99984H12Z" fill="#7B8E98"/>
</svg>
