<svg width="32" height="32" viewBox="0 0 32 32" fill="none" xmlns="http://www.w3.org/2000/svg">
<path d="M2.54623 6.0256V0.15H5.60986C8.21774 0.15 10.3951 2.03201 10.8539 4.50941L10.8836 4.66947L11.0407 4.62686C11.9026 4.39311 12.8068 4.26873 13.7367 4.26873H18.2634C19.1932 4.26873 20.0975 4.39317 20.9594 4.62687L21.1165 4.66946L21.1461 4.50941C21.605 2.03201 23.7823 0.15 26.3903 0.15H29.4539V6.0256C29.4539 7.57858 28.7908 9.02221 27.647 10.0267L27.5621 10.1012L27.6103 10.2034C28.0649 11.1677 28.3756 12.2163 28.5133 13.3235L29.3737 20.2461L29.374 20.2484C30.2188 26.2675 25.2043 31.9447 19.1262 31.8488V31.8487H19.1238L12.8764 31.8487L12.874 31.8488C6.79671 31.9447 1.78129 26.2683 2.62622 20.2485L2.62652 20.2461L3.48692 13.3235L3.33807 13.305L3.48692 13.3235C3.62449 12.2163 3.93527 11.1677 4.3899 10.2034L4.43806 10.1012L4.3532 10.0267C3.20929 9.02221 2.54623 7.57858 2.54623 6.0256ZM4.27116 1.72493H4.12116V1.87493V6.0256C4.12116 6.98965 4.4846 7.89515 5.12365 8.58154L5.24816 8.71527L5.35508 8.5671C6.36391 7.16909 7.71114 6.03825 9.26822 5.28801L9.36194 5.24286L9.35249 5.13926C9.17821 3.22741 7.56644 1.72493 5.60986 1.72493H4.27116ZM22.6476 5.13926L22.6382 5.24286L22.7319 5.28801C24.2889 6.03825 25.6362 7.16909 26.6451 8.56705L26.752 8.71519L26.8765 8.58148C27.5155 7.89515 27.879 6.98965 27.879 6.0256V1.87493V1.72493H27.729H26.3903C24.4337 1.72493 22.8219 3.22741 22.6476 5.13926ZM19.1238 30.2738C21.6323 30.2738 24.0235 29.1956 25.6843 27.3156C27.3451 25.4356 28.1201 22.9297 27.8108 20.4403L26.9503 13.5178C26.4065 9.14269 22.6721 5.84366 18.2634 5.84366H13.7367C9.32798 5.84366 5.59353 9.14269 5.04977 13.5178L4.18968 20.438C4.18962 20.4384 4.18957 20.4388 4.18951 20.4392C3.47342 25.5465 7.72017 30.3545 12.8774 30.2738H19.1238Z" fill="#7B8E98" stroke="white" stroke-width="0.3"/>
<path d="M18.068 19.1793L18.0691 19.18L20.9705 20.9831C24.2937 23.0559 22.822 28.2163 18.9011 28.2324C18.9011 28.2324 18.901 28.2324 18.9009 28.2324H13.099C13.0989 28.2324 13.0988 28.2324 13.0988 28.2324C9.18001 28.2169 7.70479 23.0572 11.0295 20.9831L13.9308 19.18L13.9308 19.18L13.9319 19.1793C15.1675 18.3961 16.8325 18.3961 18.068 19.1793ZM18.9015 26.6575L18.9021 26.6575C21.2457 26.6483 22.1305 23.5631 20.1395 22.321L20.1393 22.3209L17.2389 20.5183C17.2387 20.5182 17.2385 20.5181 17.2383 20.5179C16.4967 20.0483 15.5031 20.0482 14.7616 20.5179C14.7614 20.5181 14.7612 20.5182 14.761 20.5183L11.8606 22.3209L11.8604 22.321C9.87039 23.5622 10.7529 26.6479 13.0978 26.6575H13.0984L18.9015 26.6575Z" fill="#7B8E98" stroke="white" stroke-width="0.3"/>
<path d="M10.0624 15.1963C10.0624 14.6786 10.4821 14.2588 10.9998 14.2588C11.5176 14.2588 11.9373 14.6786 11.9373 15.1963C11.9373 15.7141 11.5176 16.1338 10.9998 16.1338C10.4821 16.1338 10.0624 15.7141 10.0624 15.1963Z" fill="#7B8E98"/>
<path d="M15.0624 23.946C15.0624 23.4282 14.6427 23.0084 14.1249 23.0084C13.6072 23.0084 13.1875 23.4282 13.1875 23.946C13.1875 24.4637 13.6072 24.8835 14.1249 24.8835C14.6427 24.8835 15.0624 24.4637 15.0624 23.946Z" fill="#7B8E98"/>
<path d="M18.8125 23.946C18.8125 23.4282 18.3928 23.0084 17.8751 23.0084C17.3573 23.0084 16.9376 23.4282 16.9376 23.946C16.9376 24.4637 17.3573 24.8835 17.8751 24.8835C18.3928 24.8835 18.8125 24.4637 18.8125 23.946Z" fill="#7B8E98"/>
<path d="M21.9376 15.1963C21.9376 14.6786 21.5179 14.2588 21.0001 14.2588C20.4824 14.2588 20.0627 14.6786 20.0627 15.1963C20.0627 15.7141 20.4824 16.1338 21.0001 16.1338C21.5179 16.1338 21.9376 15.7141 21.9376 15.1963Z" fill="#7B8E98"/>
</svg>
