<svg width="32" height="32" viewBox="0 0 32 32" fill="none" xmlns="http://www.w3.org/2000/svg">
<g clip-path="url(#clip0_5551_16709)">
<path d="M28.0918 1.45208C29.2275 1.98051 30.1507 2.6051 30.815 3.31962C31.5576 4.11843 31.9701 5.02333 32.0001 6.00986C32.0316 7.04832 31.6378 8.13594 30.8173 9.25798C30.0301 10.3343 28.8456 11.4502 27.2489 12.6065C27.3737 12.9545 27.4748 13.3211 27.555 13.7125C27.6996 14.4173 27.7789 15.2093 27.8108 16.1825C27.8296 16.7539 27.0827 16.9849 26.776 16.5024L26.7656 16.4861L26.7502 16.4621L26.7401 16.4463L26.73 16.4308C26.7284 16.4283 26.7267 16.4257 26.725 16.4232L26.7102 16.4006L26.6957 16.3785L26.6861 16.364L26.6766 16.3498L26.6625 16.3289L26.6532 16.3152L26.644 16.3018L26.6349 16.2885L26.6258 16.2755C26.6243 16.2733 26.6228 16.2712 26.6214 16.2691L26.608 16.2501L26.5949 16.2315L26.5882 16.2222L26.5878 16.2337C26.5757 16.583 26.5555 16.9431 26.5264 17.3006L26.524 17.3296C26.5223 17.3498 26.5206 17.3699 26.5189 17.39L26.5154 17.4301C26.5137 17.4501 26.5119 17.4701 26.5101 17.49L26.5064 17.5299L26.5027 17.5696C26.5014 17.5828 26.5002 17.596 26.4989 17.6091L26.495 17.6486C26.4944 17.6552 26.4937 17.6617 26.4931 17.6683L26.4891 17.7076L26.4851 17.7467C26.4844 17.7532 26.4837 17.7598 26.483 17.7663L26.4789 17.8052L26.4746 17.8441C26.4718 17.8699 26.4689 17.8957 26.466 17.9214L26.4615 17.9598C26.4608 17.9662 26.46 17.9726 26.4593 17.979L26.4548 18.0172C26.4532 18.03 26.4517 18.0427 26.4501 18.0553L26.4454 18.0933C26.4439 18.106 26.4423 18.1186 26.4407 18.1312L26.4358 18.1689L26.4309 18.2064C26.4301 18.2127 26.4293 18.2189 26.4284 18.2252L26.4234 18.2625L26.4183 18.2997C26.4175 18.3059 26.4166 18.3121 26.4157 18.3183L26.4105 18.3553L26.4053 18.3921C26.3751 18.6005 26.3414 18.8017 26.3038 18.9948C26.1862 19.5995 26.0342 20.1113 25.8387 20.518C25.7141 20.7771 25.4318 20.8835 25.1846 20.8167L25.1792 20.8152L25.1799 20.8251C25.1876 20.9324 25.1932 21.0408 25.1964 21.1502L25.1969 21.1695C25.2112 21.705 25.1672 22.2282 25.0523 22.7276C24.8786 23.4828 24.5499 24.1524 24.0418 24.7033C23.5209 25.2681 22.8298 25.6866 21.965 25.9404C21.9431 26.0352 21.9197 26.1293 21.8947 26.2225C21.6643 27.0816 21.3037 27.8511 20.803 28.499C20.7998 28.5031 20.7966 28.5071 20.7934 28.5111C20.7171 29.0428 20.5131 29.5092 20.1872 29.8457C19.7725 30.2738 19.1996 30.4527 18.5586 30.3443L18.5499 30.3428L18.544 30.3426C18.4312 30.3379 18.3216 30.3208 18.2144 30.2919C17.5475 30.5048 16.8034 30.6134 15.9817 30.6134C15.1503 30.6134 14.3984 30.5024 13.7257 30.2848C13.6318 30.3073 13.536 30.3209 13.4377 30.3249L13.4315 30.3252L13.4234 30.3266C12.7913 30.434 12.2255 30.2597 11.8137 29.841L11.8009 29.8278C11.4898 29.5052 11.2905 29.0633 11.2081 28.559C10.7196 27.9437 10.3607 27.2143 10.1232 26.3983C10.0831 26.2606 10.0466 26.1209 10.0136 25.9795C9.16704 25.7243 8.48694 25.3086 7.96989 24.7507C7.45961 24.2001 7.1253 23.5308 6.94322 22.7757C6.82093 22.2685 6.77067 21.7367 6.77947 21.1925C6.78131 21.0789 6.78568 20.9663 6.79237 20.8549L6.79283 20.8473L6.78317 20.8502C6.53647 20.9226 6.25141 20.8204 6.12249 20.5646L6.11699 20.5534C5.9224 20.1461 5.77114 19.6334 5.6541 19.0275C5.63102 18.9081 5.60937 18.7854 5.58912 18.6599L5.58338 18.624L5.5777 18.5879C5.56925 18.5337 5.56106 18.4789 5.55311 18.4236L5.54785 18.3867L5.54267 18.3496C5.54181 18.3435 5.54096 18.3373 5.5401 18.3311L5.53503 18.2938C5.53419 18.2875 5.53336 18.2813 5.53252 18.2751L5.52756 18.2376L5.52267 18.1999L5.51785 18.1622C5.51706 18.1558 5.51626 18.1495 5.51547 18.1432L5.51076 18.1052L5.50613 18.0671L5.50157 18.0288L5.49708 17.9904L5.49266 17.9519C5.49193 17.9455 5.4912 17.939 5.49048 17.9326L5.48617 17.8939L5.48193 17.855C5.48053 17.842 5.47914 17.829 5.47776 17.816L5.47367 17.7769C5.47299 17.7704 5.47232 17.7638 5.47165 17.7573L5.46766 17.718C5.467 17.7114 5.46634 17.7049 5.46569 17.6983L5.4618 17.6588L5.45799 17.6192C5.45673 17.606 5.45548 17.5927 5.45425 17.5795L5.45057 17.5396C5.44997 17.533 5.44936 17.5263 5.44876 17.5197L5.44519 17.4796C5.44401 17.4663 5.44285 17.4529 5.44169 17.4395L5.43826 17.3993C5.43713 17.3858 5.43601 17.3724 5.4349 17.3589C5.40559 17.003 5.38512 16.6441 5.37261 16.2954L5.37116 16.2542L5.36446 16.2636L5.35526 16.2767L5.34596 16.29L5.33658 16.3036L5.32711 16.3173L5.31755 16.3314L5.30789 16.3456L5.29322 16.3675L5.28331 16.3823L5.26827 16.4051L5.25811 16.4206L5.24784 16.4363L5.23746 16.4523L5.22698 16.4686C5.22522 16.4713 5.22346 16.474 5.2217 16.4768L5.20568 16.5019L5.18906 16.5281C4.88339 17.0121 4.13474 16.7819 4.15338 16.2096C4.18514 15.2344 4.26417 14.4407 4.40802 13.7345C4.48872 13.3385 4.59056 12.9677 4.71661 12.6159C3.13048 11.4614 1.95447 10.3475 1.17359 9.27296C0.361847 8.15598 -0.0276502 7.07342 0.00356837 6.03998C0.0332276 5.05816 0.44127 4.15732 1.17611 3.3619C1.83359 2.65022 2.74733 2.02813 3.87127 1.50185C4.42245 1.24376 4.93269 1.9249 4.53056 2.38195C3.83833 3.16873 3.43999 3.85742 3.32036 4.41982C3.22152 4.88453 3.31482 5.24105 3.59273 5.53683C3.89975 5.86359 4.44051 6.12522 5.19228 6.29078C5.98482 6.46532 6.9811 6.52647 8.13121 6.46748C8.15162 6.46643 8.17183 6.46649 8.19178 6.4676C8.49883 6.36429 8.8379 6.28023 9.22643 6.21015L9.24461 6.2069L9.2271 6.19853L9.20489 6.18797L9.17094 6.17193L9.13621 6.15563L9.10068 6.13906L9.06435 6.12223L9.04277 6.11228C8.5613 5.8906 8.62668 5.18617 9.14071 5.05701C10.1888 4.79367 10.9984 4.72565 11.8116 4.85079C12.2865 4.92386 12.7622 5.06209 13.2995 5.28351L13.3229 5.29318L13.3076 5.26865L13.2937 5.24651L13.2795 5.224L13.2733 5.21424C13.015 4.807 13.3559 4.28482 13.8323 4.35785C14.568 4.47062 15.0608 4.61481 15.9576 4.9991C16.8424 4.62222 17.337 4.47608 18.0457 4.36537L18.0622 4.36281L18.0948 4.3578C18.572 4.28498 18.9124 4.8088 18.6525 5.21578L18.6429 5.23072L18.6292 5.25245L18.6175 5.27091L18.6043 5.29194L18.631 5.28097C19.1613 5.06386 19.6317 4.92699 20.1003 4.85323L20.1241 4.84953C20.9398 4.72483 21.752 4.79262 22.8037 5.05516C23.319 5.1838 23.3843 5.89026 22.9012 6.11122L22.8648 6.12792L22.8292 6.14435L22.8059 6.15516L22.7716 6.17116L22.738 6.18692L22.7161 6.19729L22.7038 6.2031L22.7179 6.2056C23.1146 6.27668 23.4599 6.36218 23.7722 6.46764C23.7922 6.4665 23.8125 6.46643 23.833 6.46748C24.9951 6.52671 26.0001 6.46393 26.798 6.28621C27.5535 6.11793 28.0954 5.85271 28.4014 5.52199C28.6788 5.22228 28.7701 4.86029 28.6666 4.38912C28.5417 3.82037 28.1359 3.12578 27.4349 2.33408C27.0312 1.87812 27.5398 1.19524 28.0918 1.45208ZM15.982 29.2439C15.7191 29.2439 15.4991 29.2877 15.2972 29.3708C15.2952 29.3716 15.2933 29.3725 15.2913 29.3733L15.2797 29.3782C15.2758 29.3798 15.2719 29.3815 15.2681 29.3831L15.2565 29.3882C15.2353 29.3975 15.2144 29.4073 15.1934 29.4175L15.182 29.4232L15.1706 29.4289C15.1611 29.4338 15.1516 29.4387 15.142 29.4438L15.1429 29.4433C15.409 29.4741 15.6885 29.4898 15.9817 29.4898C16.2748 29.4898 16.5542 29.4741 16.8202 29.4433L16.8198 29.4431C16.8179 29.442 16.816 29.441 16.8141 29.4401L16.8028 29.4341L16.7914 29.4283C16.7838 29.4245 16.7762 29.4207 16.7687 29.417L16.7573 29.4115C16.7535 29.4096 16.7497 29.4078 16.7459 29.406L16.7344 29.4007C16.7325 29.3998 16.7306 29.3989 16.7287 29.3981L16.7173 29.3929L16.7058 29.3877C16.6943 29.3827 16.6827 29.3777 16.671 29.3729C16.4677 29.2884 16.2464 29.2439 15.982 29.2439ZM14.5018 25.4497C14.1665 25.4354 13.8349 25.5114 13.3953 25.7177L13.3917 25.7194L13.3879 25.7224C13.0162 26.0187 12.7265 26.4073 12.5354 26.8505L12.5294 26.8645C12.3448 27.2982 12.2641 27.7639 12.2935 28.1814C12.2943 28.1928 12.2952 28.2042 12.2962 28.2156L12.2972 28.2205C12.3037 28.2536 12.3072 28.2872 12.3078 28.3207C12.3505 28.6381 12.4589 28.892 12.6089 29.0476C12.7651 29.2097 12.9715 29.2711 13.2664 29.2131C13.302 29.2061 13.3383 29.2026 13.3746 29.2026L13.3777 29.2026C13.41 29.2023 13.442 29.1982 13.4759 29.1891L13.4825 29.1872C13.5012 29.1819 13.5205 29.1751 13.5406 29.1666L13.5478 29.1635C13.555 29.1604 13.5623 29.157 13.5698 29.1535L13.5773 29.1498L13.5849 29.1461C13.5874 29.1448 13.59 29.1435 13.5926 29.1421L13.6004 29.1381C13.6017 29.1374 13.603 29.1367 13.6043 29.136L13.6122 29.1317L13.6203 29.1272L13.6284 29.1226C13.6311 29.121 13.6339 29.1195 13.6367 29.1178L13.645 29.1129L13.6535 29.1078C13.655 29.107 13.6564 29.1061 13.6578 29.1052L13.6665 29.0999L13.6753 29.0944L13.6843 29.0888L13.6933 29.083L13.7025 29.077C13.7041 29.076 13.7056 29.075 13.7072 29.0739L13.7166 29.0677C13.7182 29.0667 13.7198 29.0656 13.7213 29.0645L13.731 29.058C13.7326 29.0569 13.7342 29.0558 13.7359 29.0547L13.7457 29.048L13.7504 29.0447L13.7613 29.037L13.7787 29.0245L13.8018 29.0077L13.8249 28.9908L13.8661 28.9603L13.9307 28.9122L14.0038 28.8574L14.1154 28.7733L14.1276 28.7642C14.1338 28.7597 14.14 28.7552 14.1462 28.7507L14.1646 28.7373L14.1829 28.7241C14.1859 28.7219 14.1889 28.7197 14.192 28.7176L14.2101 28.7046C14.2131 28.7025 14.2161 28.7004 14.2191 28.6983L14.2371 28.6856C14.24 28.6835 14.243 28.6814 14.246 28.6794L14.2638 28.667C14.2697 28.6629 14.2757 28.6589 14.2815 28.6548L14.2992 28.6428C14.3168 28.6309 14.3343 28.6192 14.3517 28.6078L14.3691 28.5965C14.5341 28.4896 14.6926 28.4047 14.8702 28.3317C15.2072 28.193 15.5722 28.1203 15.982 28.1203C16.3947 28.1203 16.7623 28.1942 17.1015 28.3351C17.3366 28.4328 17.5385 28.5512 17.7656 28.7139L17.7838 28.7271C17.7868 28.7293 17.7899 28.7315 17.7929 28.7337L17.8113 28.7471C17.8175 28.7516 17.8237 28.7561 17.8299 28.7607L17.8485 28.7745L17.8579 28.7815L17.9878 28.8802L18.0878 28.9557L18.1367 28.9924L18.1778 29.0228L18.2074 29.0445L18.2197 29.0535L18.2317 29.062L18.2431 29.0699C18.2448 29.071 18.2464 29.0721 18.248 29.0732L18.2577 29.0798L18.2673 29.0863L18.2767 29.0925L18.286 29.0986C18.2875 29.0996 18.289 29.1006 18.2906 29.1016L18.2996 29.1074C18.3026 29.1093 18.3056 29.1112 18.3086 29.1131L18.3174 29.1185C18.3188 29.1194 18.3203 29.1203 18.3217 29.1212L18.3303 29.1265C18.3332 29.1282 18.336 29.1299 18.3388 29.1316L18.3472 29.1365C18.35 29.1381 18.3527 29.1397 18.3555 29.1412L18.3636 29.1459L18.3717 29.1503C18.3743 29.1518 18.377 29.1532 18.3796 29.1546L18.3875 29.1587L18.3952 29.1627L18.4028 29.1666C18.4054 29.1678 18.4079 29.1691 18.4104 29.1703L18.4141 29.172C18.4302 29.1781 18.446 29.1848 18.4614 29.1923C18.4844 29.201 18.5063 29.2075 18.5277 29.212L18.5341 29.2133L18.5405 29.2145C18.5629 29.2184 18.5847 29.2202 18.6066 29.2202L18.6139 29.2203C18.6476 29.2207 18.6812 29.2242 18.7144 29.2307C19.0131 29.2891 19.2227 29.227 19.3809 29.0637C19.5536 28.8854 19.6714 28.5787 19.6985 28.1958C19.7281 27.7777 19.6469 27.3113 19.4612 26.8768C19.2688 26.4268 18.9749 26.0322 18.5965 25.732L18.5923 25.7286L18.588 25.7266C18.1475 25.5207 17.8142 25.4424 17.4795 25.4531L17.469 25.4534C17.2191 25.4627 16.9618 25.5156 16.5504 25.6436L16.5184 25.6536C16.4915 25.6621 16.464 25.6708 16.4358 25.6799L16.4016 25.691L16.3667 25.7023C16.3608 25.7043 16.3549 25.7062 16.349 25.7081L16.3131 25.72C16.295 25.726 16.2766 25.7321 16.2579 25.7383L16.2202 25.751C16.2138 25.7531 16.2074 25.7553 16.201 25.7574L16.1622 25.7706C16.0451 25.8103 15.9182 25.8102 15.8011 25.7703C15.7945 25.7681 15.788 25.7659 15.7815 25.7636L15.7428 25.7505L15.7048 25.7377L15.6677 25.7253C15.6125 25.7069 15.5598 25.6895 15.5094 25.6732L15.4761 25.6625C15.4542 25.6555 15.4327 25.6487 15.4116 25.6421L15.3803 25.6323C15.3751 25.6307 15.37 25.6291 15.3648 25.6275L15.3344 25.6182C14.968 25.5063 14.7327 25.4594 14.5018 25.4497ZM14.2613 26.4249C14.527 26.5788 14.6195 26.9172 14.4706 27.1845L14.466 27.1926L13.9538 28.0781C13.7985 28.3466 13.455 28.4383 13.1867 28.2828C12.921 28.1289 12.8286 27.7906 12.9774 27.5232L12.982 27.5152L13.4942 26.6297C13.6496 26.3612 13.993 26.2695 14.2613 26.4249ZM18.5005 26.5542L18.5055 26.562L19.0642 27.4475C19.2298 27.7098 19.1514 28.0568 18.8893 28.2224C18.6297 28.3864 18.2873 28.3113 18.1199 28.0552L18.1148 28.0474L17.5561 27.1619C17.3906 26.8995 17.4689 26.5526 17.7311 26.3869C17.9906 26.2229 18.3331 26.2981 18.5005 26.5542ZM15.9461 19.4167L15.9353 19.4426C15.7799 19.8151 15.6202 20.1822 15.4591 20.5347L15.4452 20.5649L15.4302 20.5976L15.4151 20.6303L15.4001 20.6627L15.3851 20.695L15.3702 20.7272L15.3552 20.7592L15.3403 20.7911L15.3254 20.8227L15.3105 20.8543L15.2956 20.8856L15.2734 20.9324L15.2586 20.9634L15.2438 20.9942L15.229 21.0248L15.2143 21.0553L15.1995 21.0856L15.1849 21.1157L15.1702 21.1457L15.1555 21.1755L15.1409 21.2051L15.1263 21.2346L15.1118 21.2639L15.0972 21.2931L15.0827 21.322L15.0682 21.3508L15.0537 21.3794L15.0393 21.4078L15.0249 21.4361L15.0105 21.4642L14.9961 21.4921L14.9818 21.5198C14.9794 21.5244 14.977 21.529 14.9746 21.5336L14.9603 21.5611L14.946 21.5884C14.9437 21.5929 14.9413 21.5974 14.9389 21.602L14.9247 21.629L14.9105 21.6558C14.9081 21.6603 14.9057 21.6647 14.9034 21.6691L14.8892 21.6957C14.8868 21.7001 14.8845 21.7045 14.8821 21.7089L14.868 21.7352L14.8539 21.7613C14.8315 21.8027 14.8092 21.8433 14.7871 21.8832L14.7705 21.913C14.765 21.9229 14.7595 21.9327 14.754 21.9425L14.7375 21.9717C14.732 21.9814 14.7265 21.991 14.721 22.0006L14.7047 22.0292C14.6883 22.0577 14.672 22.0857 14.6558 22.1134L14.6396 22.1408C14.4403 22.4778 14.2518 22.7487 14.0712 22.9497C13.7082 23.3537 13.0405 23.0581 13.0951 22.5176L13.0997 22.472L13.1041 22.4272C13.1049 22.4198 13.1056 22.4125 13.1063 22.4051L13.1105 22.3616L13.1146 22.3188L13.1186 22.2767C13.1192 22.2698 13.1199 22.2629 13.1205 22.256L13.1242 22.2151L13.1278 22.1749L13.1313 22.1354L13.1346 22.0966L13.1378 22.0585C13.1383 22.0523 13.1388 22.046 13.1394 22.0398L13.1423 22.0027L13.1452 21.9663C13.1475 21.9362 13.1497 21.9068 13.1517 21.8781L13.1541 21.8439C13.1549 21.8326 13.1556 21.8214 13.1563 21.8102L13.1584 21.7772C13.1588 21.7718 13.1591 21.7663 13.1594 21.7609L13.1613 21.7288C13.1794 21.4153 13.1782 21.1826 13.1591 20.9757L13.1582 20.9661L13.1568 20.9697C13.1096 21.0915 13.0643 21.2181 13.0219 21.3482L13.0152 21.3687C12.7606 22.1576 12.6348 22.9859 12.6776 23.7221C12.7062 24.2149 12.1315 24.5024 11.7547 24.1838C11.4329 23.9116 11.1522 23.555 10.9277 23.1479L10.9256 23.1442L10.9244 23.1611C10.9059 23.417 10.8977 23.6805 10.9009 23.9457L10.9011 23.9651C10.9116 24.7047 11.0097 25.4265 11.2011 26.084C11.2598 26.2854 11.3268 26.4795 11.4022 26.6659C11.431 26.5846 11.4624 26.504 11.4963 26.4243C11.7697 25.7818 12.1974 25.2164 12.7552 24.7915C12.785 24.7688 12.817 24.7491 12.8508 24.7328C13.4758 24.4302 14.0012 24.3038 14.5494 24.3271C14.8007 24.3377 15.0551 24.3794 15.3409 24.4525L15.3606 24.4575L15.3803 24.4627L15.4001 24.4679L15.4199 24.4732L15.4399 24.4786L15.4533 24.4823L15.4802 24.4898L15.5006 24.4955L15.5142 24.4993L15.5349 24.5053L15.5627 24.5133L15.5838 24.5195L15.6123 24.528L15.6412 24.5367L15.6559 24.5412L15.6781 24.5479L15.7158 24.5596L15.7311 24.5644L15.7622 24.5742L15.7939 24.5843L15.8263 24.5946L15.851 24.6026L15.8932 24.6164L15.9454 24.6335L15.9825 24.6458L15.9925 24.6426L16.0391 24.6272L16.0844 24.6125L16.1198 24.6011L16.1458 24.5928L16.1799 24.582L16.205 24.5741L16.2297 24.5664L16.2541 24.5588L16.2781 24.5514L16.3018 24.5442L16.3253 24.5372L16.3407 24.5326L16.3637 24.5258L16.3864 24.5192L16.4013 24.5148L16.4162 24.5105L16.4384 24.5042L16.4603 24.498L16.4749 24.494L16.4965 24.488L16.518 24.4821L16.5322 24.4783L16.5464 24.4745L16.5676 24.4689L16.5957 24.4616L16.6097 24.458L16.6306 24.4527C16.9176 24.3807 17.174 24.34 17.4272 24.3306C17.9761 24.3101 18.5029 24.4381 19.1314 24.741C19.1651 24.7572 19.1971 24.7768 19.2269 24.7994C19.788 25.2249 20.2184 25.7912 20.4935 26.4349C20.5225 26.5028 20.5497 26.5714 20.5751 26.6405C20.6657 26.4149 20.744 26.1782 20.8103 25.9312C20.9845 25.2818 21.0708 24.5751 21.0748 23.8558C21.0762 23.6162 21.0682 23.3783 21.052 23.1467L21.0512 23.1353L21.0495 23.1383C20.8306 23.5373 20.5582 23.8883 20.2464 24.1595L20.221 24.1813C19.8447 24.5013 19.2686 24.2141 19.2971 23.7207C19.3401 22.9775 19.2138 22.1417 18.9582 21.3457C18.9138 21.2072 18.866 21.0724 18.816 20.943L18.8127 20.9344L18.8124 20.9378C18.7922 21.1492 18.7904 21.3863 18.8087 21.7072L18.8106 21.7396C18.8109 21.745 18.8113 21.7505 18.8116 21.756L18.8137 21.7892C18.8155 21.8172 18.8174 21.8458 18.8195 21.875L18.8221 21.9103L18.8248 21.9463C18.8271 21.9766 18.8296 22.0076 18.8322 22.0392L18.8353 22.0776L18.8387 22.1166L18.8421 22.1563L18.8457 22.1968C18.8463 22.2036 18.8469 22.2104 18.8476 22.2173L18.8514 22.2589L18.8553 22.3012L18.8594 22.3443L18.8636 22.3881C18.8643 22.3955 18.8651 22.4029 18.8658 22.4104L18.8702 22.4554L18.8753 22.5067C18.9297 23.0479 18.2607 23.3428 17.8983 22.9375C17.3678 22.344 16.9763 21.7615 16.608 21.0067L16.6017 20.9936L16.5889 20.9673L16.5762 20.9409C16.572 20.9321 16.5677 20.9232 16.5635 20.9143L16.5508 20.8876L16.5381 20.8607L16.5254 20.8336L16.5127 20.8063C16.5106 20.8017 16.5084 20.7972 16.5063 20.7926L16.4936 20.765L16.4809 20.7373L16.4682 20.7094C16.4639 20.7001 16.4597 20.6907 16.4555 20.6813L16.4427 20.653L16.43 20.6245L16.4172 20.5958L16.4045 20.5669L16.3917 20.5378C16.3896 20.5329 16.3874 20.528 16.3853 20.5232L16.3725 20.4937L16.3597 20.4641L16.3469 20.4342C16.3447 20.4292 16.3426 20.4242 16.3405 20.4192L16.3276 20.389L16.3147 20.3586L16.3018 20.3279L16.2889 20.2971C16.2868 20.2919 16.2846 20.2867 16.2824 20.2815L16.2695 20.2503L16.2565 20.2188C16.2543 20.2135 16.2522 20.2082 16.25 20.203L16.237 20.1711C16.2348 20.1658 16.2326 20.1604 16.2304 20.1551L16.2174 20.1229C16.2152 20.1175 16.213 20.1121 16.2108 20.1066L16.1977 20.074L16.1846 20.0412C16.1824 20.0357 16.1802 20.0302 16.178 20.0246L16.1648 19.9914L16.1515 19.9578L16.1382 19.924L16.1249 19.8899C16.1227 19.8842 16.1205 19.8785 16.1182 19.8728L16.1048 19.8383L16.0914 19.8035L16.0779 19.7685L16.0644 19.7331C16.0622 19.7272 16.0599 19.7213 16.0577 19.7153L16.0441 19.6795L16.0304 19.6434L16.0167 19.6071L16.003 19.5704L15.9892 19.5334L15.9754 19.4961L15.9615 19.4584C15.9591 19.4521 15.9568 19.4458 15.9545 19.4395L15.9461 19.4167ZM17.1701 5.72975L17.1499 5.73669L17.1263 5.74494L17.1104 5.75053L17.0864 5.75905L17.0622 5.76773L17.0459 5.77361L17.0214 5.78257L16.9966 5.79171L16.9799 5.7979L16.9547 5.80732L16.9293 5.81693L16.9036 5.82671L16.8863 5.83334L16.8602 5.84344L16.8338 5.85372L16.816 5.86068L16.7981 5.86773L16.771 5.87847L16.7344 5.89309L16.7065 5.9043L16.6689 5.91955L16.6403 5.93124L16.6016 5.94714L16.5722 5.95932L16.5324 5.9759L16.5021 5.98859L16.4714 6.00151L16.4298 6.01908L16.3982 6.03253L16.3662 6.04621L16.3119 6.06953L16.2676 6.08867L16.2338 6.10331L16.206 6.11539C16.1318 6.14772 16.0544 6.16272 15.9784 6.16219C15.8895 6.16905 15.7978 6.15478 15.7104 6.1165L15.653 6.09139L15.608 6.07181L15.5637 6.05267L15.5311 6.03861L15.4989 6.02479L15.4671 6.01121L15.4253 5.99347L15.3945 5.98044L15.354 5.96343L15.3141 5.94682L15.2847 5.93462L15.2652 5.92661L15.2269 5.91088L15.1891 5.89554L15.1704 5.888L15.1427 5.87688L15.1152 5.86596L15.0881 5.85524L15.0702 5.84821L15.0348 5.8344L15.0085 5.82427L14.9912 5.81763L14.9654 5.80782L14.9398 5.79819L14.9145 5.78875L14.8895 5.77949L14.8647 5.7704L14.8482 5.76444L14.8319 5.75856L14.8157 5.75275L14.7995 5.74702L14.7834 5.74136L14.7675 5.73577L14.7542 5.73118L14.7549 5.73431C14.8052 5.96123 14.8072 6.17853 14.7685 6.42131L14.767 6.43042C14.7052 6.80901 14.2908 7.01562 13.9515 6.83701C12.9746 6.32266 12.2886 6.061 11.6409 5.96134C11.3943 5.92338 11.1454 5.90791 10.8816 5.9159L10.8653 5.91643L10.8774 5.92791C10.9688 6.01538 11.0554 6.10957 11.1423 6.21431L11.1542 6.22866C11.4411 6.57732 11.2204 7.10508 10.7709 7.14536C9.50824 7.2585 8.72981 7.41912 8.13786 7.69694C8.01976 7.75236 7.9073 7.81346 7.79917 7.88146L7.79583 7.88356L7.8094 7.88369C7.91787 7.88487 8.02856 7.89026 8.1435 7.89993L8.16734 7.90199C8.24703 7.90906 8.3288 7.91818 8.41334 7.92935L8.43879 7.93276C8.46006 7.93566 8.48151 7.93868 8.50315 7.94184L8.52921 7.94569L8.55545 7.94966C8.58178 7.95369 8.6084 7.95791 8.63531 7.96232L8.66233 7.96679L8.68955 7.97139L8.71698 7.97611C8.72616 7.9777 8.73537 7.97932 8.74462 7.98095L8.77248 7.98592C8.77714 7.98676 8.78181 7.98761 8.78649 7.98846L8.81468 7.99362C8.82411 7.99536 8.83358 7.99712 8.84309 7.9989L8.87173 8.00431C8.88132 8.00614 8.89095 8.00798 8.90061 8.00985L8.92973 8.01551L8.95909 8.0213C8.964 8.02228 8.96893 8.02326 8.97386 8.02425L9.00359 8.03023C9.01354 8.03224 9.02354 8.03428 9.03357 8.03633L9.06381 8.04256L9.09431 8.04892L9.114 8.05307C9.59766 8.15521 9.72287 8.78781 9.31463 9.06674C7.66447 10.1942 6.70187 11.1425 6.12688 12.2027C5.74203 12.9123 5.50828 13.7059 5.38205 14.7509L5.38071 14.7622L5.3867 14.7592C5.49459 14.7058 5.61048 14.6588 5.73723 14.6161L5.74753 14.6126C6.12238 14.4876 6.50558 14.7789 6.48576 15.1738L6.48499 15.1907L6.48439 15.2064L6.48383 15.2233L6.48321 15.2454L6.48264 15.2693L6.48207 15.2994L6.48158 15.3316L6.48113 15.3711L6.48091 15.3971L6.48066 15.4406L6.48054 15.4923L6.48056 15.5283L6.48064 15.5593L6.48083 15.6016L6.48104 15.6342L6.48141 15.6786L6.48203 15.7354L6.48233 15.7585L6.48302 15.8053L6.4836 15.8409L6.48426 15.8768L6.48474 15.901C6.49367 16.3407 6.51608 16.8071 6.55391 17.2666C6.61877 18.0543 6.72278 18.7509 6.86559 19.3052L6.86842 19.316L6.86944 19.3154C6.92261 19.2788 6.9761 19.2445 7.02968 19.2124L7.03914 19.2068C7.11189 19.1636 7.18064 19.1271 7.24411 19.0967L7.25556 19.0913L7.26371 19.0874L7.27163 19.0838L7.2831 19.0785L7.29406 19.0736L7.3045 19.069L7.31441 19.0647L7.32379 19.0607L7.33263 19.057L7.34092 19.0536L7.34866 19.0505L7.3535 19.0487C7.78105 18.8844 8.21249 19.2735 8.09838 19.7134L8.09301 19.7332L8.0895 19.7464L8.08567 19.7613L8.08237 19.7743L8.07892 19.7882L8.07535 19.8029L8.0704 19.8236L8.06785 19.8345C8.06655 19.8401 8.06525 19.8457 8.06395 19.8513L8.06005 19.8685L8.05614 19.8859L8.05224 19.9036L8.04834 19.9216L8.04445 19.9399C8.0438 19.943 8.04315 19.946 8.0425 19.9491L8.03862 19.9678C8.03797 19.971 8.03732 19.9741 8.03668 19.9773L8.03281 19.9964L8.02895 20.0158C8.02766 20.0223 8.02638 20.0288 8.0251 20.0354L8.02127 20.0553C8.02064 20.0587 8.02 20.062 8.01936 20.0654L8.01556 20.0857L8.01178 20.1063C8.01115 20.1098 8.01052 20.1132 8.0099 20.1167L8.00615 20.1377L8.00242 20.1589C8.0018 20.1624 8.00119 20.166 8.00057 20.1696C7.9441 20.4975 7.90798 20.8493 7.90213 21.2107C7.89478 21.6652 7.93622 22.1037 8.03471 22.5121C8.17396 23.0897 8.42193 23.5861 8.79317 23.9867C9.06456 24.2795 9.40225 24.522 9.81459 24.7089C9.79384 24.4683 9.78187 24.2253 9.77841 23.981C9.76815 23.254 9.83463 22.5358 9.96054 21.9145C10.083 21.3101 10.2533 20.8309 10.461 20.5597C10.7873 20.1335 11.468 20.3645 11.468 20.9014C11.468 21.298 11.5431 21.7017 11.6736 22.0733L11.677 22.0829L11.6775 22.0802C11.7423 21.7347 11.8299 21.3894 11.9379 21.0509L11.9467 21.0234C12.2116 20.2028 12.5815 19.4772 12.9526 19.0547C13.2448 18.722 13.7869 18.8434 13.9121 19.2646L13.9164 19.2796L14.0054 19.6024L14.0604 19.8029L14.0853 19.8946L14.0982 19.9424L14.1043 19.9654L14.1122 19.9955L14.1199 20.025L14.1273 20.054L14.1345 20.0824L14.1415 20.1104L14.1461 20.1288L14.1505 20.1469L14.157 20.1738L14.1634 20.2003L14.1675 20.2177L14.1715 20.235L14.1754 20.2521L14.1793 20.2691L14.1831 20.2859L14.1868 20.3026L14.1904 20.3191L14.1939 20.3356L14.1974 20.3519L14.2025 20.3762L14.2058 20.3923L14.209 20.4083L14.2121 20.4242L14.2152 20.4401L14.2183 20.4559L14.2212 20.4716L14.2241 20.4874L14.227 20.503L14.2288 20.5135L14.2333 20.5042C14.2691 20.4298 14.3051 20.3539 14.3414 20.2763L14.3631 20.2296C14.3777 20.1984 14.3923 20.1668 14.4069 20.1351L14.4248 20.0961C14.6085 19.6956 14.7911 19.273 14.9678 18.8444L14.993 18.7832C15.0391 18.6708 15.0849 18.5581 15.1301 18.4453L15.1547 18.3838L15.1706 18.3439L15.1967 18.2783L15.2272 18.2011L15.2569 18.1255L15.2858 18.0516L15.3046 18.0034L15.332 17.9325L15.3542 17.8749L15.3784 17.8116L15.4065 17.7378L15.4313 17.6723L15.4556 17.6072C15.6399 17.1088 16.3487 17.1213 16.5152 17.626C16.9764 19.0233 17.3284 19.9528 17.6943 20.6684L17.7094 20.6978L17.7111 20.6844C17.7174 20.6362 17.7245 20.5883 17.7324 20.5403L17.7351 20.5243L17.7377 20.5086C17.7382 20.506 17.7386 20.5034 17.7391 20.5007L17.7418 20.485L17.7446 20.4692L17.7475 20.4534L17.7504 20.4376L17.755 20.4137L17.7581 20.3977L17.7612 20.3816L17.7661 20.3574L17.7694 20.3412L17.7728 20.3248L17.7763 20.3083L17.7817 20.2834C17.7823 20.2807 17.7829 20.2779 17.7835 20.2751L17.7872 20.2583L17.791 20.2413L17.7968 20.2156L17.8008 20.1983L17.807 20.172L17.8112 20.1542L17.8154 20.1363L17.8198 20.1182L17.8243 20.0999L17.8289 20.0813L17.8359 20.0532L17.8407 20.0341L17.8481 20.005L17.8557 19.9754L17.8635 19.9453L17.8696 19.9219L17.8799 19.8833L17.9013 19.8043L17.955 19.607L18.0025 19.4334L18.0552 19.2417C18.1727 18.809 18.7246 18.6817 19.0195 19.0193C19.3912 19.4447 19.7619 20.1754 20.0272 21.002C20.1395 21.3518 20.2303 21.709 20.297 22.0663L20.2985 22.0747L20.3036 22.0603C20.4316 21.694 20.5065 21.2968 20.51 20.9054L20.5102 20.8768C20.5102 20.3391 21.1923 20.1086 21.518 20.5362C21.7214 20.8031 21.8879 21.2684 22.0092 21.856C22.1333 22.4568 22.2016 23.1535 22.1976 23.8621C22.1961 24.1355 22.184 24.4078 22.1609 24.6773C22.5909 24.4889 22.9397 24.2416 23.2167 23.9412C23.5839 23.5431 23.826 23.0499 23.9581 22.4756C24.0502 22.0751 24.0864 21.6452 24.0745 21.1994C24.065 20.8426 24.0255 20.4942 23.9657 20.1676L23.9617 20.1458C23.961 20.1422 23.9603 20.1386 23.9597 20.135L23.9556 20.1135L23.9515 20.0923C23.9508 20.0888 23.9501 20.0852 23.9494 20.0818L23.9453 20.0609C23.9439 20.054 23.9425 20.0471 23.9411 20.0403L23.9369 20.02C23.9362 20.0166 23.9355 20.0133 23.9348 20.0099L23.9307 19.99C23.9292 19.9834 23.9278 19.9769 23.9264 19.9704L23.9222 19.951C23.9215 19.9478 23.9208 19.9446 23.9201 19.9414L23.9159 19.9224C23.9152 19.9192 23.9144 19.9161 23.9137 19.913L23.9095 19.8944L23.9052 19.8761C23.9045 19.8731 23.9038 19.8701 23.9031 19.8671L23.8989 19.8492L23.8946 19.8316C23.8939 19.8287 23.8932 19.8258 23.8925 19.823L23.8875 19.8028L23.8833 19.7862L23.8793 19.7704L23.8754 19.7554L23.8716 19.7413L23.8668 19.7237L23.8633 19.7112L23.8562 19.6864C23.736 19.2497 24.1582 18.8568 24.5847 19.0085L24.5978 19.0133L24.6052 19.0161L24.6131 19.0193L24.6187 19.0215L24.6275 19.0252L24.6369 19.0292L24.6468 19.0334L24.6573 19.038L24.6683 19.0429L24.6797 19.0482L24.6917 19.0537L24.7 19.0576C24.7657 19.0885 24.8371 19.126 24.9129 19.1707C24.9698 19.2043 25.0266 19.2403 25.0831 19.2789L25.0887 19.2828L25.0922 19.2695C25.2249 18.7579 25.3242 18.1248 25.3898 17.4106L25.394 17.3649C25.3967 17.3344 25.3994 17.3037 25.402 17.2729L25.405 17.2367C25.443 16.7784 25.4655 16.3132 25.4745 15.8747L25.4752 15.8386L25.476 15.7911L25.4766 15.7558L25.477 15.721L25.4773 15.6981L25.4778 15.6529L25.4781 15.6196L25.4783 15.5869L25.4785 15.5549L25.4786 15.5235L25.4787 15.4829L25.4786 15.4324L25.4784 15.3881L25.478 15.3412L25.4778 15.3165L25.4772 15.2792L25.4766 15.2448L25.4758 15.2135L25.4752 15.1921L25.4745 15.1726L25.4741 15.1635L25.4736 15.1523C25.4735 15.1514 25.4735 15.1505 25.4734 15.1496C25.4535 14.7551 25.8359 14.4637 26.2106 14.5879C26.3411 14.6312 26.4602 14.6788 26.5708 14.7332L26.5831 14.7392L26.5818 14.7282C26.4569 13.701 26.2272 12.9175 25.8507 12.2177L25.8343 12.1873C25.257 11.1298 24.2904 10.1837 22.6332 9.05888C22.2232 8.78054 22.3482 8.14584 22.8332 8.0441L22.8644 8.03759L22.8953 8.03122C22.9004 8.03017 22.9055 8.02912 22.9106 8.02808L22.9411 8.02191L22.9713 8.01586C22.9763 8.01486 22.9814 8.01387 22.9863 8.01288L23.0162 8.00703C23.0261 8.0051 23.036 8.00319 23.0458 8.0013L23.0752 7.99571L23.1043 7.99024C23.1091 7.98934 23.1139 7.98845 23.1188 7.98756L23.1475 7.98228C23.1523 7.98141 23.1571 7.98055 23.1618 7.97969L23.1902 7.97461C23.1997 7.97294 23.2091 7.97129 23.2184 7.96966L23.2464 7.96483L23.2741 7.96014C23.2834 7.95859 23.2925 7.95707 23.3017 7.95557L23.329 7.95113C23.3336 7.9504 23.3381 7.94967 23.3426 7.94896L23.3697 7.94471C23.3921 7.94122 23.4143 7.93786 23.4364 7.93464L23.4627 7.93083C23.7079 7.89592 23.9292 7.87757 24.142 7.87528L24.153 7.87518L24.1385 7.86618C24.0403 7.80571 23.9385 7.75076 23.8322 7.70045L23.8145 7.6921C23.2194 7.41467 22.4372 7.25432 21.1687 7.1414C20.7182 7.10129 20.4976 6.57173 20.7863 6.22325C20.8776 6.11301 20.9682 6.01448 21.0642 5.92328L21.0726 5.91535L21.0571 5.91485C20.7988 5.90708 20.5548 5.92154 20.3132 5.9573L20.2936 5.96025C19.6426 6.05978 18.9533 6.32098 17.972 6.83431C17.6331 7.0116 17.2201 6.80527 17.158 6.42764C17.1179 6.18407 17.1181 5.96714 17.1676 5.7406L17.1701 5.72975ZM19.9707 15.2864C20.1752 15.3327 20.3826 15.4276 20.5928 15.5625L20.6084 15.5725C20.637 15.5911 20.6656 15.6105 20.6942 15.6305C20.9037 15.7769 21.1154 15.9617 21.3162 16.1702C21.7149 16.5844 22.0452 17.0639 22.1902 17.4623C22.2963 17.7539 22.1461 18.0763 21.8548 18.1825C21.5635 18.2887 21.2413 18.1384 21.1352 17.8469C21.0508 17.6151 20.8063 17.26 20.5076 16.9498C20.209 16.6397 19.9055 16.4266 19.7283 16.3836L19.7229 16.3823C19.4205 16.3138 19.2308 16.013 19.2993 15.7104C19.3677 15.4077 19.6683 15.2179 19.9707 15.2864ZM11.3798 10.7577C11.6294 10.9417 11.6827 11.2934 11.4989 11.5433C10.9776 12.2515 10.6761 12.839 10.4761 13.5631C10.3413 14.0515 10.2485 14.6204 10.1889 15.3466L10.1872 15.3676L10.188 15.3669C10.6398 15.0059 11.0456 14.7824 11.5652 14.5818L11.5917 14.5716C11.8814 14.461 12.2058 14.6063 12.3163 14.8962C12.4268 15.1861 12.2816 15.5108 11.9919 15.6214C11.2748 15.8952 10.8494 16.2022 9.9579 17.113C9.60075 17.4779 8.98175 17.2152 8.99565 16.7046C9.07591 13.7552 9.43595 12.4514 10.5948 10.8769C10.7787 10.6271 11.1301 10.5737 11.3798 10.7577ZM18.6345 7.91774C20.0191 8.70615 20.8243 9.22546 21.4241 9.74215C22.1107 10.3336 22.5259 10.9338 22.7578 11.6835C22.8975 12.1353 22.451 12.5471 22.0125 12.3711C21.5092 12.1691 21.1024 12.0546 20.661 11.9906C20.4736 11.9634 20.276 11.9444 20.0504 11.9325L20.0195 11.9309L19.9882 11.9294C19.9462 11.9275 19.9033 11.9258 19.8592 11.9243L19.826 11.9233C19.8093 11.9228 19.7924 11.9223 19.7754 11.9219L19.7411 11.921C19.7296 11.9207 19.718 11.9205 19.7063 11.9202L19.6711 11.9195C19.6534 11.9192 19.6356 11.9189 19.6175 11.9187L19.5811 11.9182C19.5628 11.918 19.5443 11.9178 19.5257 11.9176L19.4881 11.9173C19.4818 11.9173 19.4754 11.9172 19.4691 11.9172L19.4307 11.917L19.3918 11.9169C19.3657 11.9169 19.3392 11.9169 19.3124 11.917L19.2719 11.9171C19.2514 11.9172 19.2308 11.9173 19.21 11.9174L19.168 11.9178L19.1254 11.9181L19.0823 11.9186L19.0385 11.9191C19.0311 11.9192 19.0238 11.9193 19.0164 11.9194C18.7063 11.9237 18.4516 11.6756 18.4473 11.3654C18.4431 11.0551 18.691 10.8002 19.001 10.7959L19.0248 10.7956L19.0718 10.7951C19.0796 10.795 19.0873 10.7949 19.0951 10.7948L19.1412 10.7943C19.1488 10.7943 19.1564 10.7942 19.164 10.7941L19.2092 10.7938C19.2616 10.7935 19.3128 10.7933 19.3629 10.7933L19.4056 10.7933C19.4127 10.7934 19.4197 10.7934 19.4268 10.7934L19.4687 10.7936C19.538 10.7939 19.6053 10.7946 19.6706 10.7957L19.7095 10.7964C19.787 10.7979 19.8617 10.8 19.9342 10.8026L19.9702 10.804C20.2867 10.8165 20.5595 10.8405 20.8221 10.8786C20.8862 10.8879 20.9497 10.8981 21.0128 10.9092L21.0275 10.9118L21.023 10.9071C20.9286 10.8078 20.8238 10.7085 20.7075 10.6075L20.6916 10.5937C20.162 10.1376 19.4043 9.64883 18.0793 8.89432C17.8098 8.74087 17.7156 8.39786 17.869 8.12819C18.0223 7.85851 18.3651 7.76429 18.6345 7.91774ZM2.32818 3.80234L2.32074 3.80903C2.21253 3.90672 2.11125 4.00603 2.01711 4.10684L2.00057 4.12465C1.44061 4.73078 1.14685 5.37932 1.12586 6.07393C1.10279 6.83791 1.40723 7.68407 2.08165 8.6121C2.75751 9.5421 3.78966 10.5316 5.19256 11.5718C5.69546 10.6791 6.41774 9.87306 7.46983 9.02999L7.48157 9.02061L7.47249 9.02151C7.25982 9.04299 7.04146 9.08966 6.79228 9.16828L6.76954 9.17551C6.71629 9.1926 6.66161 9.21113 6.60527 9.23117L6.58102 9.23986C6.57291 9.24278 6.56476 9.24574 6.55657 9.24873L6.5319 9.25778L6.50702 9.26703C6.49452 9.2717 6.48194 9.27644 6.46928 9.28125L6.44384 9.29097C6.43532 9.29424 6.42676 9.29755 6.41817 9.30088L6.39226 9.31099C6.38793 9.31269 6.38358 9.3144 6.37922 9.31611L6.36449 9.32193C5.85434 9.52401 5.38724 8.94912 5.68901 8.49057C5.919 8.14108 6.15269 7.84195 6.40057 7.58503C4.73068 7.4766 3.47628 7.05317 2.77473 6.30651C2.23984 5.73723 2.04806 5.0044 2.22216 4.1859C2.24861 4.06151 2.28342 3.93526 2.32654 3.80718L2.32818 3.80234ZM29.65 3.7507L29.6557 3.76704C29.6971 3.88778 29.7312 4.00691 29.758 4.12441L29.7632 4.14789C29.9441 4.97133 29.7578 5.71 29.2252 6.28546C28.522 7.04529 27.2546 7.47592 25.5621 7.58509L25.5621 7.58503C25.8079 7.83941 26.0399 8.13507 26.2683 8.47989C26.5715 8.93771 26.1057 9.51412 25.5949 9.31311C25.1497 9.13793 24.8087 9.04598 24.4809 9.01309L24.473 9.01231L24.4802 9.01803C25.5404 9.86208 26.267 10.669 26.7723 11.5634C28.1874 10.5201 29.2288 9.52746 29.9112 8.59439C30.5933 7.66174 30.9011 6.8115 30.8778 6.04402C30.8566 5.34617 30.5595 4.69435 29.9929 4.08496C29.893 3.97743 29.7849 3.87159 29.6689 3.76757L29.65 3.7507Z" fill="#7B8E98"/>
</g>
<defs>
<clipPath id="clip0_5551_16709">
<rect width="32" height="32" fill="white"/>
</clipPath>
</defs>
</svg>
