<svg width="32" height="32" viewBox="0 0 32 32" fill="none" xmlns="http://www.w3.org/2000/svg">
<mask id="path-1-inside-1_5551_10656" fill="white">
<path d="M24.4182 10.3529C24.1631 9.96003 23.8645 9.59793 23.5294 9.27322V7.05882C23.5294 5.76138 24.5849 4.70588 25.8824 4.70588C27.1798 4.70588 28.2353 5.76138 28.2353 7.05882V7.52941C28.2353 8.04921 28.6567 8.47059 29.1765 8.47059C29.6963 8.47059 30.1176 8.04921 30.1176 7.52941C30.1176 7.19878 30.1176 6.86945 30.1176 6.58824C30.1176 2.95548 27.1622 0 23.5294 0C19.8967 0 16.9412 2.95548 16.9412 6.58824V7.52941H15.0588V6.58824C15.0588 2.95548 12.1033 0 8.47059 0C4.83784 0 1.88235 2.95548 1.88235 6.58824V7.52941C1.88235 8.04921 2.30373 8.47059 2.82353 8.47059C3.34333 8.47059 3.76471 8.04921 3.76471 7.52941V7.05882C3.76471 5.76138 4.8202 4.70588 6.11765 4.70588C7.41509 4.70588 8.47059 5.76138 8.47059 7.05882V9.27322C8.13547 9.59793 7.83693 9.96009 7.5818 10.3529H0V11.2941C0 13.8889 2.11106 16 4.70588 16H6.08176C5.58051 16.8642 4.74596 17.5122 3.75507 17.7656C3.25148 17.8944 2.82353 18.3037 2.82353 18.8235C2.82353 19.3433 3.24723 19.756 3.76171 19.8302C5.46005 20.0752 6.91567 21.0238 7.21305 22.9569L7.81371 26.8612C8.2688 29.8194 10.8159 32 13.8035 32H18.1965C21.1893 32 23.732 29.8141 24.1862 26.8613L24.7869 22.957C25.0843 21.0239 26.5399 20.0752 28.2383 19.8303C28.7528 19.7561 29.1765 19.3434 29.1765 18.8236C29.1765 18.3038 28.7485 17.8945 28.2449 17.7657C27.254 17.5123 26.4195 16.8643 25.9182 16.0001H27.2941C29.8889 16.0001 32 13.889 32 11.2942V10.353L24.4182 10.3529ZM18.8235 6.58824C18.8235 3.99341 20.9346 1.88235 23.5294 1.88235C24.6048 1.88235 25.5963 2.24571 26.3896 2.85496C26.2232 2.83501 26.0541 2.82353 25.8824 2.82353C23.547 2.82353 21.6471 4.72345 21.6471 7.05882V8.02127C20.9046 7.70478 20.0881 7.52941 19.2314 7.52941H18.8235V6.58824ZM6.11765 2.82353C5.94585 2.82353 5.77682 2.83501 5.61035 2.85496C6.4037 2.24571 7.39526 1.88235 8.47059 1.88235C11.0654 1.88235 13.1765 3.99341 13.1765 6.58824V7.52941H12.7686C11.9119 7.52941 11.0954 7.70478 10.3529 8.02127V7.05882C10.3529 4.72345 8.45302 2.82353 6.11765 2.82353ZM4.70588 14.1176C3.47884 14.1176 2.43206 13.3309 2.04361 12.2353H6.76643C6.65029 12.708 6.58824 13.2018 6.58824 13.7098V14.1176H4.70588ZM16.0006 25.0298C15.6498 24.7064 15.3051 24.4315 14.9569 24.1967C14.7261 24.0411 14.5882 23.7819 14.5882 23.5033V23.3726C14.5882 22.94 14.94 22.5882 15.3726 22.5882H16.6275C17.06 22.5882 17.4118 22.94 17.4118 23.3726V23.5033C17.4118 23.7818 17.274 24.0411 17.0431 24.1967C16.6423 24.4669 16.2856 24.7674 16.0006 25.0298ZM24.8309 19.2435C23.8078 20.1212 23.1314 21.3384 22.9264 22.6707L22.3258 26.5751C22.01 28.6278 20.2733 30.1176 18.1965 30.1176H16.9412V26.7372C17.2038 26.4724 17.614 26.0821 18.0953 25.7576C18.846 25.2515 19.2941 24.4088 19.2941 23.5033V23.3726C19.2941 21.9021 18.0979 20.7059 16.6275 20.7059H15.3726C13.9021 20.7059 12.7059 21.9021 12.7059 23.3726V23.5033C12.7059 24.4088 13.1541 25.2515 13.9047 25.7575C14.2789 26.0098 14.6571 26.3313 15.0588 26.7375V30.1176H13.8035C11.7266 30.1176 9.99002 28.6278 9.67417 26.5751L9.07351 22.6707C8.86852 21.3384 8.19225 20.1212 7.16907 19.2435C6.88314 18.9982 6.57456 18.7849 6.24979 18.6032C7.59881 17.5703 8.47059 15.944 8.47059 14.1176V13.7098C8.47059 11.3399 10.3987 9.41177 12.7686 9.41177H19.2314C21.6014 9.41177 23.5294 11.3399 23.5294 13.7098V14.1176C23.5294 15.944 24.4012 17.5703 25.7502 18.6032C25.4254 18.7849 25.1168 18.9982 24.8309 19.2435ZM27.2941 14.1176H25.4118V13.7098C25.4118 13.2018 25.3497 12.708 25.2336 12.2353H29.9564C29.5679 13.3309 28.5212 14.1176 27.2941 14.1176Z"/>
</mask>
<path d="M24.4182 10.3529C24.1631 9.96003 23.8645 9.59793 23.5294 9.27322V7.05882C23.5294 5.76138 24.5849 4.70588 25.8824 4.70588C27.1798 4.70588 28.2353 5.76138 28.2353 7.05882V7.52941C28.2353 8.04921 28.6567 8.47059 29.1765 8.47059C29.6963 8.47059 30.1176 8.04921 30.1176 7.52941C30.1176 7.19878 30.1176 6.86945 30.1176 6.58824C30.1176 2.95548 27.1622 0 23.5294 0C19.8967 0 16.9412 2.95548 16.9412 6.58824V7.52941H15.0588V6.58824C15.0588 2.95548 12.1033 0 8.47059 0C4.83784 0 1.88235 2.95548 1.88235 6.58824V7.52941C1.88235 8.04921 2.30373 8.47059 2.82353 8.47059C3.34333 8.47059 3.76471 8.04921 3.76471 7.52941V7.05882C3.76471 5.76138 4.8202 4.70588 6.11765 4.70588C7.41509 4.70588 8.47059 5.76138 8.47059 7.05882V9.27322C8.13547 9.59793 7.83693 9.96009 7.5818 10.3529H0V11.2941C0 13.8889 2.11106 16 4.70588 16H6.08176C5.58051 16.8642 4.74596 17.5122 3.75507 17.7656C3.25148 17.8944 2.82353 18.3037 2.82353 18.8235C2.82353 19.3433 3.24723 19.756 3.76171 19.8302C5.46005 20.0752 6.91567 21.0238 7.21305 22.9569L7.81371 26.8612C8.2688 29.8194 10.8159 32 13.8035 32H18.1965C21.1893 32 23.732 29.8141 24.1862 26.8613L24.7869 22.957C25.0843 21.0239 26.5399 20.0752 28.2383 19.8303C28.7528 19.7561 29.1765 19.3434 29.1765 18.8236C29.1765 18.3038 28.7485 17.8945 28.2449 17.7657C27.254 17.5123 26.4195 16.8643 25.9182 16.0001H27.2941C29.8889 16.0001 32 13.889 32 11.2942V10.353L24.4182 10.3529ZM18.8235 6.58824C18.8235 3.99341 20.9346 1.88235 23.5294 1.88235C24.6048 1.88235 25.5963 2.24571 26.3896 2.85496C26.2232 2.83501 26.0541 2.82353 25.8824 2.82353C23.547 2.82353 21.6471 4.72345 21.6471 7.05882V8.02127C20.9046 7.70478 20.0881 7.52941 19.2314 7.52941H18.8235V6.58824ZM6.11765 2.82353C5.94585 2.82353 5.77682 2.83501 5.61035 2.85496C6.4037 2.24571 7.39526 1.88235 8.47059 1.88235C11.0654 1.88235 13.1765 3.99341 13.1765 6.58824V7.52941H12.7686C11.9119 7.52941 11.0954 7.70478 10.3529 8.02127V7.05882C10.3529 4.72345 8.45302 2.82353 6.11765 2.82353ZM4.70588 14.1176C3.47884 14.1176 2.43206 13.3309 2.04361 12.2353H6.76643C6.65029 12.708 6.58824 13.2018 6.58824 13.7098V14.1176H4.70588ZM16.0006 25.0298C15.6498 24.7064 15.3051 24.4315 14.9569 24.1967C14.7261 24.0411 14.5882 23.7819 14.5882 23.5033V23.3726C14.5882 22.94 14.94 22.5882 15.3726 22.5882H16.6275C17.06 22.5882 17.4118 22.94 17.4118 23.3726V23.5033C17.4118 23.7818 17.274 24.0411 17.0431 24.1967C16.6423 24.4669 16.2856 24.7674 16.0006 25.0298ZM24.8309 19.2435C23.8078 20.1212 23.1314 21.3384 22.9264 22.6707L22.3258 26.5751C22.01 28.6278 20.2733 30.1176 18.1965 30.1176H16.9412V26.7372C17.2038 26.4724 17.614 26.0821 18.0953 25.7576C18.846 25.2515 19.2941 24.4088 19.2941 23.5033V23.3726C19.2941 21.9021 18.0979 20.7059 16.6275 20.7059H15.3726C13.9021 20.7059 12.7059 21.9021 12.7059 23.3726V23.5033C12.7059 24.4088 13.1541 25.2515 13.9047 25.7575C14.2789 26.0098 14.6571 26.3313 15.0588 26.7375V30.1176H13.8035C11.7266 30.1176 9.99002 28.6278 9.67417 26.5751L9.07351 22.6707C8.86852 21.3384 8.19225 20.1212 7.16907 19.2435C6.88314 18.9982 6.57456 18.7849 6.24979 18.6032C7.59881 17.5703 8.47059 15.944 8.47059 14.1176V13.7098C8.47059 11.3399 10.3987 9.41177 12.7686 9.41177H19.2314C21.6014 9.41177 23.5294 11.3399 23.5294 13.7098V14.1176C23.5294 15.944 24.4012 17.5703 25.7502 18.6032C25.4254 18.7849 25.1168 18.9982 24.8309 19.2435ZM27.2941 14.1176H25.4118V13.7098C25.4118 13.2018 25.3497 12.708 25.2336 12.2353H29.9564C29.5679 13.3309 28.5212 14.1176 27.2941 14.1176Z" fill="#7B8E98" stroke="white" stroke-width="0.4" mask="url(#path-1-inside-1_5551_10656)"/>
<path d="M13.1764 16.9412C13.1764 16.4214 12.755 16 12.2352 16C11.7154 16 11.2941 16.4214 11.2941 16.9412C11.2941 17.461 11.7154 17.8824 12.2352 17.8824C12.755 17.8824 13.1764 17.461 13.1764 16.9412Z" fill="#7B8E98"/>
<path d="M20.7058 16.9412C20.7058 16.4214 20.2845 16 19.7647 16C19.2449 16 18.8235 16.4214 18.8235 16.9412C18.8235 17.461 19.2449 17.8824 19.7647 17.8824C20.2845 17.8824 20.7058 17.461 20.7058 16.9412Z" fill="#7B8E98"/>
</svg>
