<svg width="32" height="32" viewBox="0 0 32 32" fill="none" xmlns="http://www.w3.org/2000/svg">
<path d="M21.1543 14.1039C21.1296 14.0966 21.1057 14.0897 21.0824 14.083C21.051 14.074 21.0121 14.0629 20.984 14.0536C20.9748 14.0255 20.9636 13.9866 20.9546 13.9553C20.948 13.9319 20.941 13.9079 20.9337 13.8832C20.8054 13.4505 20.5681 13.0524 20.2474 12.7317C19.184 11.6682 17.4535 11.6682 16.39 12.7317C15.508 13.6138 15.3517 14.9545 15.9408 15.9983L12.9704 18.9687C11.9266 18.3795 10.5859 18.5359 9.70386 19.418C8.64575 20.4333 8.64575 22.2601 9.70386 23.2753C10.0245 23.5961 10.4228 23.8334 10.8552 23.9615C10.88 23.9689 10.9041 23.9759 10.9275 23.9825C10.9588 23.9915 10.9977 24.0027 11.0258 24.0119C11.035 24.04 11.0461 24.0789 11.0551 24.11C11.0618 24.1335 11.0687 24.1576 11.076 24.1823C11.6534 26.1516 14.172 26.791 15.6196 25.3338C16.5017 24.4518 16.658 23.111 16.0689 22.0673L19.0393 19.0969C20.083 19.6861 21.4238 19.5295 22.3059 18.6475C22.8157 18.1377 23.0977 17.4552 23.0999 16.7257C23.102 15.9918 22.8201 15.3044 22.3058 14.7901C21.9852 14.4694 21.587 14.2322 21.1543 14.1039ZM21.4218 17.7634C20.8563 18.329 19.9826 18.3521 19.3892 17.8172C19.1422 17.5945 18.7638 17.6041 18.5285 17.8394L14.8115 21.5563C14.5763 21.7916 14.5665 22.1699 14.7893 22.417C16.0177 23.8817 14.0443 25.7508 12.6464 24.4497C12.4701 24.2734 12.345 24.0638 12.2748 23.8268L12.257 23.7653C12.2053 23.5853 12.1346 23.3387 11.9167 23.1208C11.6988 22.9031 11.4524 22.8323 11.2724 22.7807L11.2107 22.7628C10.9738 22.6926 10.7643 22.5676 10.588 22.3913C10.0149 21.8414 10.0149 20.852 10.588 20.3021C11.1446 19.7454 12.0374 19.7225 12.6205 20.2484C12.8676 20.4711 13.2459 20.4614 13.4812 20.2262L17.1982 16.5092C17.4335 16.2739 17.4433 15.8956 17.2204 15.6485C16.6855 15.0553 16.7085 14.1814 17.2741 13.6158C17.8403 13.0495 18.7971 13.0495 19.3633 13.6158C19.5397 13.7921 19.6647 14.0017 19.7349 14.2385L19.7526 14.2998C19.8042 14.4799 19.8749 14.7265 20.093 14.9447C20.311 15.1626 20.5577 15.2333 20.7377 15.2849L20.7989 15.3026C21.8559 15.5958 22.198 16.9992 21.4218 17.7634Z" fill="#7B8E98"/>
<g clip-path="url(#clip0_5551_10669)">
<path d="M18.968 3.0789C18.0595 2.01896 17.2418 1.08016 16.6058 0.292782C16.5756 0.232214 16.515 0.20193 16.4847 0.171647C16.1516 -0.100908 15.667 -0.0403407 15.3945 0.292782C14.7585 1.08016 13.9409 2.01896 13.0323 3.0789C9.03487 7.71234 3.49292 14.1325 3.49292 19.4928C3.49292 22.9451 4.88598 26.0644 7.15727 28.3357C9.42856 30.5767 12.5478 32 16.0002 32C19.4525 32 22.5718 30.607 24.8431 28.3357C27.1144 26.0644 28.5074 22.9451 28.5074 19.4928C28.5074 14.1325 22.9655 7.71234 18.968 3.0789ZM23.7528 27.2152C21.7541 29.2139 19.0286 30.4555 16.0002 30.4555C12.9718 30.4555 10.2462 29.2139 8.24749 27.2454C6.27904 25.277 5.0374 22.5212 5.0374 19.4928C5.0374 14.7079 10.3674 8.53 14.2134 4.07827C14.8494 3.32117 15.4551 2.62464 16.0002 1.9584C16.5453 2.62464 17.151 3.32117 17.7869 4.04798C21.633 8.49972 26.9629 14.6473 26.9629 19.4625C26.9629 22.4909 25.7213 25.2164 23.7528 27.2152Z" fill="#7B8E98"/>
</g>
<defs>
<clipPath id="clip0_5551_10669">
<rect width="32" height="32" fill="white"/>
</clipPath>
</defs>
</svg>
