<svg width="32" height="32" viewBox="0 0 32 32" fill="none" xmlns="http://www.w3.org/2000/svg">
<path d="M29.8652 6.24563C29.1611 5.54158 28.3088 4.98186 27.3856 4.61528C26.3175 1.86392 23.5438 -0.033514 20.5771 0.000988135H20.576C15.6741 -0.081017 12.0404 4.95605 13.599 9.56046L9.5626 13.597C6.96194 12.7619 4.08926 13.4451 2.14238 15.3919C-1.57991 19.0701 -0.24639 25.476 4.62198 27.379C4.98844 28.3019 5.54816 29.1542 6.25239 29.8585C7.68023 31.2863 9.55516 32.0002 11.4307 32C13.3058 31.9998 15.1815 31.286 16.609 29.8585C18.556 27.9116 19.2391 25.039 18.404 22.4382L22.4403 18.4017C23.1728 18.6389 23.9271 18.7547 24.6771 18.7546C26.5844 18.7545 28.4617 18.0056 29.8652 16.6021C31.2415 15.2258 31.9996 13.3871 31.9998 11.4247C32.0002 9.46183 31.2421 7.62246 29.8652 6.24563ZM28.9813 15.7182C27.2777 17.4218 24.735 17.9635 22.5035 17.0979C22.2726 17.0084 22.0106 17.0636 21.8354 17.2387L17.2418 21.8325C17.0673 22.0071 17.0118 22.2681 17.1003 22.4986C17.9603 24.7372 17.4205 27.2791 15.7251 28.9745C12.6445 32.1306 7.09982 30.8637 5.69779 26.687C5.63498 26.5072 5.49366 26.3659 5.3139 26.3031C4.44797 26.0004 3.67829 25.5165 3.02625 24.8645C-1.53022 20.11 3.32883 12.6772 9.50216 14.9005C9.73267 14.9891 9.99375 14.9337 10.1683 14.759L14.7619 10.1652C14.9369 9.99017 14.9922 9.72816 14.9026 9.49727C12.6291 3.37895 20.1836 -1.54805 24.8712 3.01961C25.5138 3.66215 26.0112 4.4532 26.3099 5.30726C26.3727 5.48696 26.514 5.62815 26.6936 5.69097C30.8899 7.13187 32.1253 12.6003 28.9813 15.7182Z" fill="#7B8E98"/>
<path d="M28.0934 8.01408C27.5266 7.44736 26.8227 7.02784 26.0579 6.80088C26.0101 6.7867 25.9638 6.77344 25.9186 6.76044C25.4015 6.61137 25.3862 6.59612 25.2371 6.07909C25.2241 6.0339 25.2108 5.98746 25.1966 5.93971C24.9698 5.17484 24.5502 4.47099 23.9834 3.90427C23.0751 2.99571 21.8586 2.49736 20.5614 2.50149C19.2705 2.50537 18.0634 3.00358 17.1628 3.90427C16.2728 4.7942 15.7681 5.96764 15.7417 7.20835C15.7199 8.23835 16.0276 9.23685 16.6168 10.0753L10.0779 16.6146C8.18758 15.2906 5.58054 15.4869 3.90713 17.1602C2.03613 18.9554 2.0362 22.1855 3.90713 23.9806C4.47416 24.5476 5.17802 24.9672 5.94282 25.194C5.99032 25.208 6.03651 25.2213 6.08145 25.2342C6.34228 25.3089 6.4716 25.3488 6.56023 25.4374C6.64886 25.5261 6.68874 25.6554 6.76356 25.9162C6.77643 25.9612 6.78968 26.0074 6.80381 26.055C7.82587 29.5386 12.2812 30.6722 14.8376 28.0906C16.511 26.4172 16.7072 23.8102 15.3832 21.9199L21.9223 15.3805C22.7608 15.9698 23.7597 16.2785 24.7893 16.2556C26.03 16.2293 27.2035 15.7246 28.0934 14.8347C28.9941 13.934 29.4923 12.7271 29.4962 11.4361C29.5001 10.1379 29.0019 8.92264 28.0934 8.01408ZM27.2095 13.9506C25.8417 15.3183 23.7281 15.374 22.2931 14.0801C22.0459 13.8573 21.6677 13.867 21.4325 14.1023L14.1054 21.4298C13.8702 21.665 13.8604 22.0433 14.0832 22.2903C15.356 23.7018 15.2992 25.8613 13.9538 27.2065C12.0768 29.1162 8.74187 28.2683 8.00238 25.6996C7.98938 25.6557 7.97719 25.6131 7.96532 25.5716C7.86706 25.229 7.76549 24.8746 7.44428 24.5535C7.12308 24.2323 6.76868 24.1307 6.42597 24.0325C6.38447 24.0206 6.3419 24.0083 6.29815 23.9954C5.73249 23.8276 5.21133 23.5169 4.79112 23.0967C3.4051 21.7668 3.4051 19.374 4.79112 18.0441C6.13639 16.6988 8.29596 16.6419 9.70743 17.9146C9.9545 18.1373 10.3327 18.1277 10.568 17.8924L17.8952 10.5649C18.1304 10.3297 18.1401 9.95146 17.9174 9.70438C16.6234 8.26941 16.6791 6.15591 18.0469 4.7882C18.7124 4.12259 19.6069 3.75444 20.5653 3.75157C22.1276 3.72394 23.5709 4.80501 23.9983 6.29529C24.0113 6.33935 24.0236 6.38217 24.0356 6.4238C24.1338 6.76626 24.2353 7.12034 24.5564 7.44136C24.8774 7.76232 25.2315 7.86389 25.574 7.96214C25.6157 7.97408 25.6584 7.9864 25.7024 7.9994C26.2683 8.16734 26.7895 8.47811 27.2095 8.89814C27.8809 9.56956 28.2491 10.4696 28.2462 11.4324C28.2432 12.3907 27.8751 13.2851 27.2095 13.9506Z" fill="#7B8E98"/>
<path d="M20.8205 6.2658L20.8202 6.26548C20.5761 6.02141 20.1805 6.02159 19.9364 6.26567C19.5419 6.65426 19.8319 7.33886 20.3785 7.33286C20.9252 7.3388 21.2151 6.65432 20.8205 6.2658Z" fill="#7B8E98"/>
<path d="M25.7694 10.1552C25.5253 9.91108 25.1297 9.9112 24.8856 10.1553C24.4911 10.544 24.7811 11.2285 25.3278 11.2225C25.8743 11.2285 26.1644 10.544 25.7697 10.1555L25.7694 10.1552Z" fill="#7B8E98"/>
<path d="M21.5523 10.7092L21.552 10.7089C20.9162 10.1755 20.1202 11.0526 20.7115 11.6342C20.9662 11.8659 21.3616 11.8481 21.5944 11.5921C21.8266 11.3366 21.8077 10.9413 21.5523 10.7092Z" fill="#7B8E98"/>
<path d="M16.8648 13.6267L16.8645 13.6264C16.2287 13.093 15.4327 13.9701 16.024 14.5517C16.2787 14.7834 16.6741 14.7656 16.9069 14.5096C17.1391 14.2541 17.1203 13.8588 16.8648 13.6267Z" fill="#7B8E98"/>
<path d="M15.2709 17.7787C15.0387 17.5233 14.6436 17.5046 14.3881 17.7368C14.1327 17.969 14.114 18.3645 14.3463 18.6199C14.579 18.8758 14.9745 18.8937 15.2292 18.662C15.4846 18.4297 15.5035 18.0344 15.2712 17.779L15.2709 17.7787Z" fill="#7B8E98"/>
<path d="M10.15 19.6369L10.1497 19.6366C9.51387 19.1032 8.71782 19.9804 9.30911 20.5619C9.56381 20.7936 9.95927 20.7759 10.192 20.5198C10.4242 20.2645 10.4054 19.8691 10.15 19.6369Z" fill="#7B8E98"/>
<path d="M11.5858 24.1654C11.3417 23.9213 10.9461 23.9215 10.702 24.1655C10.3075 24.5542 10.5975 25.2387 11.1442 25.2327C11.6908 25.2387 11.9808 24.5542 11.5861 24.1657L11.5858 24.1654Z" fill="#7B8E98"/>
<path d="M6.4569 20.2763C6.21283 20.0322 5.81724 20.0323 5.5731 20.2764C5.17857 20.665 5.46859 21.3496 6.01525 21.3436C6.56191 21.3496 6.85187 20.6651 6.45722 20.2766L6.4569 20.2763Z" fill="#7B8E98"/>
</svg>
