<svg width="32" height="32" viewBox="0 0 32 32" fill="none" xmlns="http://www.w3.org/2000/svg">
<g clip-path="url(#clip0_5551_16642)">
<path d="M21.6758 27.5663L21.6756 27.5663L21.6367 27.5754L21.5992 27.5886L21.599 27.5887L21.5823 27.5416C21.5771 27.5434 21.5686 27.5461 21.5571 27.5498C21.4237 27.592 20.882 27.7635 20.343 28.2717L21.6758 27.5663ZM21.6758 27.5663C22.7047 27.3229 24.0945 26.7467 25.3821 25.8545C26.6696 24.9622 27.8587 23.7513 28.4802 22.2366C29.4102 19.9697 28.9576 17.3616 27.152 14.4808C25.3033 11.5308 24.2922 9.10176 23.4791 7.14381C22.6707 5.19737 22.0812 3.78521 21.0841 2.89928C20.054 1.98373 18.5287 1.61664 16.0056 1.61664H15.9936C13.4698 1.61664 11.9445 1.98306 10.9144 2.89894L21.6758 27.5663ZM20.6566 31.2332V31.95H11.4233V31.2329C11.4233 29.6401 10.1877 29.0478 9.96562 28.9529L9.96589 28.9523L9.95785 28.9503C8.93965 28.7013 7.38224 28.0994 5.88631 27.0883C4.39043 26.0772 2.95933 24.6592 2.18789 22.7793C1.66469 21.5041 1.4953 20.1273 1.68519 18.6918C1.89474 17.1079 2.54751 15.425 3.628 13.7008C5.39874 10.8755 6.38346 8.50492 7.17193 6.60682L7.19145 6.55983L7.19145 6.55983L7.21662 6.49922C8.06111 4.46571 8.73169 2.851 9.95918 1.76003C11.2675 0.597655 13.066 0.05 15.9876 0.05H15.9877H15.9877H15.9877H15.9877H15.9878H15.9878H15.9878H15.9878H15.9878H15.9879H15.9879H15.9879H15.9879H15.9879H15.988H15.988H15.988H15.988H15.9881H15.9881H15.9881H15.9881H15.9881H15.9882H15.9882H15.9882H15.9882H15.9882H15.9883H15.9883H15.9883H15.9883H15.9884H15.9884H15.9884H15.9884H15.9884H15.9885H15.9885H15.9885H15.9885H15.9885H15.9886H15.9886H15.9886H15.9886H15.9887H15.9887H15.9887H15.9887H15.9887H15.9888H15.9888H15.9888H15.9888H15.9888H15.9889H15.9889H15.9889H15.9889H15.989H15.989H15.989H15.989H15.989H15.9891H15.9891H15.9891H15.9891H15.9892H15.9892H15.9892H15.9892H15.9892H15.9893H15.9893H15.9893H15.9893H15.9893H15.9894H15.9894H15.9894H15.9894H15.9895H15.9895H15.9895H15.9895H15.9895H15.9896H15.9896H15.9896H15.9896H15.9896H15.9897H15.9897H15.9897H15.9897H15.9898H15.9898H15.9898H15.9898H15.9898H15.9899H15.9899H15.9899H15.9899H15.9899H15.99H15.99H15.99H15.99H15.9901H15.9901H15.9901H15.9901H15.9901H15.9902H15.9902H15.9902H15.9902H15.9902H15.9903H15.9903H15.9903H15.9903H15.9904H15.9904H15.9904H15.9904H15.9904H15.9905H15.9905H15.9905H15.9905H15.9905H15.9906H15.9906H15.9906H15.9906H15.9907H15.9907H15.9907H15.9907H15.9907H15.9908H15.9908H15.9908H15.9908H15.9908H15.9909H15.9909H15.9909H15.9909H15.991H15.991H15.991H15.991H15.991H15.9911H15.9911H15.9911H15.9911H15.9911H15.9912H15.9912H15.9912H15.9912H15.9913H15.9913H15.9913H15.9913H15.9913H15.9914H15.9914H15.9914H15.9914H15.9914H15.9915H15.9915H15.9915H15.9915H15.9916H15.9916H15.9916H15.9916H15.9916H15.9917H15.9917H15.9917H15.9917H15.9917H15.9918H15.9918H15.9918H15.9918H15.9919H15.9919H15.9919H15.9919H15.9919H15.992H15.992H15.992H15.992H15.992H15.9921H15.9921H15.9921H15.9921H15.9922H15.9922H15.9922H15.9922H15.9922H15.9923H15.9923H15.9923H15.9923H15.9923H15.9924H15.9924H15.9924H15.9924H15.9925H15.9925H15.9925H15.9925H15.9925H15.9926H15.9926H15.9926H15.9926H15.9926H15.9927H15.9927H15.9927H15.9927H15.9928H15.9928H15.9928H15.9928H15.9928H15.9929H15.9929H15.9929H15.9929H15.9929H15.993H15.993H15.993H15.993H15.9931H15.9931H15.9931H15.9931H15.9931H15.9932H15.9932H15.9932H15.9932H15.9932H15.9933H15.9933H15.9933H15.9933H15.9934H15.9934H15.9934H15.9934H15.9934H15.9935H15.9935H15.9935H15.9935H15.9935H15.9936H15.9936H15.9936H15.9936H15.9937H15.9937H15.9937H15.9937H15.9937H15.9938H15.9938H15.9938H15.9938H15.9938H15.9939H15.9939H15.9939H15.9939H15.994H15.994H15.994H15.994H15.994H15.9941H15.9941H15.9941H15.9941H15.9941H15.9942H15.9942H15.9942H15.9942H15.9943H15.9943H15.9943H15.9943H15.9943H15.9944H15.9944H15.9944H15.9944H15.9944H15.9945H15.9945H15.9945H15.9945H15.9946H15.9946H15.9946H15.9946H15.9946H15.9947H15.9947H15.9947H15.9947H15.9947H15.9948H15.9948H15.9948H15.9948H15.9949H15.9949H15.9949H15.9949H15.9949H15.995H15.995H15.995H15.995H15.995H15.9951H15.9951H15.9951H15.9951H15.9952H15.9952H15.9952H15.9952H15.9952H15.9953H15.9953H15.9953H15.9953H15.9953H15.9954H15.9954H15.9954H15.9954H15.9955H15.9955H15.9955H15.9955H15.9955H15.9956H15.9956H15.9956H15.9956H15.9956H15.9957H15.9957H15.9957H15.9957H15.9958H15.9958H15.9958H15.9958H15.9958H15.9959H15.9959H15.9959H15.9959H15.9959H15.996H15.996H15.996H15.996H15.9961H15.9961H15.9961H15.9961H15.9961H15.9962H15.9962H15.9962H15.9962H15.9963H15.9963H15.9963H15.9963H15.9963H15.9964H15.9964H15.9964H15.9964H15.9964H15.9965H15.9965H15.9965H15.9965H15.9966H15.9966H15.9966H15.9966H15.9966H15.9967H15.9967H15.9967H15.9967H15.9967H15.9968H15.9968H15.9968H15.9968H15.9969H15.9969H15.9969H15.9969H15.9969H15.997H15.997H15.997H15.997H15.997H15.9971H15.9971H15.9971H15.9971H15.9972H15.9972H15.9972H15.9972H15.9972H15.9973H15.9973H15.9973H15.9973H15.9973H15.9974H15.9974H15.9974H15.9974H15.9975H15.9975H15.9975H15.9975H15.9975H15.9976H15.9976H15.9976H15.9976H15.9976H15.9977H15.9977H15.9977H15.9977H15.9978H15.9978H15.9978H15.9978H15.9978H15.9979H15.9979H15.9979H15.9979H15.9979H15.998H15.998H15.998H15.998H15.9981H15.9981H15.9981H15.9981H15.9981H15.9982H15.9982H15.9982H15.9982H15.9983H15.9983H15.9983H15.9983H15.9983H15.9984H15.9984H15.9984H15.9984H15.9984H15.9985H15.9985H15.9985H15.9985H15.9986H15.9986H15.9986H15.9986H15.9986H16.006C18.9306 0.05 20.7304 0.597336 22.039 1.7604L22.0723 1.72303L22.039 1.76041C23.2524 2.83857 23.9212 4.44953 24.752 6.45069C24.7702 6.49445 24.7884 6.5384 24.8068 6.58253L24.8529 6.56335L24.8068 6.58253L24.8082 6.58592C25.5998 8.49134 26.586 10.8651 28.3702 13.7122C29.4508 15.4364 30.1035 17.1137 30.313 18.6976C30.503 20.1332 30.3428 21.507 29.8194 22.7823L29.8657 22.8013L29.8194 22.7823C29.0481 24.6623 27.6248 26.08 26.1368 27.0907C24.6488 28.1015 23.0993 28.7031 22.0811 28.952L22.0809 28.9514L22.0733 28.9546C21.8499 29.0501 20.6566 29.641 20.6566 31.2332Z" fill="#7B8E98" stroke="white" stroke-width="0.1"/>
<path d="M13.0127 12.7673C13.0127 12.2476 12.5913 11.8262 12.0715 11.8262C11.5518 11.8262 11.1304 12.2476 11.1304 12.7673C11.1304 13.2871 11.5518 13.7085 12.0715 13.7085C12.5913 13.7085 13.0127 13.2871 13.0127 12.7673Z" fill="#7B8E98"/>
<path d="M20.5421 12.7673C20.5421 12.2476 20.1208 11.8262 19.601 11.8262C19.0812 11.8262 18.6598 12.2476 18.6598 12.7673C18.6598 13.2871 19.0812 13.7085 19.601 13.7085C20.1208 13.7085 20.5421 13.2871 20.5421 12.7673Z" fill="#7B8E98"/>
<path d="M24.0559 17.3987L24.0623 17.3981C24.1989 17.385 24.4227 17.3637 24.6639 17.3637C24.9233 17.3637 25.712 17.3637 26.0949 17.9434C26.2179 18.1294 26.3886 18.5235 26.1539 19.0711C25.8586 19.76 25.3596 20.2287 24.9026 20.5351C24.9024 20.5348 24.9022 20.5345 24.902 20.5342L24.8609 20.5627L24.8882 20.6046C24.8886 20.6043 24.8889 20.6041 24.8893 20.6039C25.0477 20.8357 25.1884 21.0719 25.3029 21.3007M24.0559 17.3987L24.043 17.4001C23.7997 17.4234 23.5753 17.4347 23.3573 17.4347C22.7113 17.4347 22.116 17.3343 21.3666 17.0993C20.9753 16.9764 20.5756 16.838 20.189 16.704M24.0559 17.3987L24.0612 17.4484L24.0666 17.4479C24.2033 17.4349 24.4251 17.4137 24.6639 17.4137C24.7934 17.4137 25.0497 17.4138 25.3204 17.4845C25.591 17.5552 25.8709 17.6951 26.0532 17.971L26.0532 17.971C26.1695 18.147 26.3343 18.5232 26.1079 19.0514C25.8087 19.7496 25.2962 20.2187 24.8336 20.5208L24.7905 20.549L24.8198 20.5912C24.9886 20.8345 25.1381 21.0831 25.2582 21.3231M24.0559 17.3987L24.0607 17.4485L24.0482 17.4498L24.0477 17.4498C23.803 17.4733 23.5771 17.4847 23.3573 17.4847C22.7053 17.4847 22.1048 17.3832 21.3517 17.147L21.3516 17.147C20.9595 17.0238 20.5591 16.8852 20.1726 16.7513M20.189 16.704C19.6519 16.518 19.0963 16.3256 18.5309 16.1627M20.189 16.704L20.1726 16.7513C20.1726 16.7513 20.1726 16.7513 20.1726 16.7513M20.189 16.704L20.1726 16.7513M18.5309 16.1627C17.7413 15.9353 17.0783 15.8057 16.4449 15.755M18.5309 16.1627L18.5171 16.2108M18.5309 16.1627L18.5171 16.2107C18.5171 16.2107 18.5171 16.2108 18.5171 16.2108M16.4449 15.755C16.3037 15.7437 16.1523 15.739 15.9993 15.7413C15.8463 15.739 15.695 15.7436 15.5536 15.755C14.92 15.8057 14.2573 15.9353 13.4676 16.1627C12.9019 16.3254 12.3466 16.5176 11.8096 16.704C11.4233 16.838 11.0236 16.9763 10.6323 17.0993C9.88295 17.3343 9.28761 17.4347 8.64159 17.4347C8.42357 17.4347 8.19923 17.4234 7.95592 17.4001L7.94295 17.3987M16.4449 15.755L16.4409 15.8048C17.0702 15.8552 17.7298 15.9841 18.5171 16.2108M16.4449 15.755L16.4409 15.8048C16.3013 15.7936 16.1516 15.789 16 15.7913L15.9985 15.7913C15.847 15.789 15.6973 15.7936 15.5576 15.8048L15.5576 15.8048C14.9281 15.8552 14.2688 15.9841 13.4814 16.2108L13.4814 16.2108C12.9173 16.373 12.3632 16.5648 11.826 16.7512L11.826 16.7513C11.4397 16.8852 11.0394 17.0238 10.6473 17.147L10.6472 17.147C9.89408 17.3832 9.29365 17.4847 8.64159 17.4847C8.4218 17.4847 8.19586 17.4733 7.95115 17.4498L7.95067 17.4498L7.95067 17.4498L7.93818 17.4485L7.94295 17.3987M7.94295 17.3987L7.93795 17.3982C7.80174 17.3852 7.57698 17.3637 7.33496 17.3637C7.0756 17.3637 6.28697 17.3637 5.90431 17.9441C5.78162 18.13 5.61098 18.5241 5.84566 19.0717M7.94295 17.3987L7.9377 17.4484L7.93358 17.448C7.79739 17.435 7.57458 17.4137 7.33496 17.4137C7.20552 17.4137 6.94918 17.4138 6.67852 17.4846C6.40799 17.5553 6.12818 17.6954 5.94606 17.9716L5.94605 17.9716L9.75658 25.3592M5.84566 19.0717C6.14096 19.7606 6.63996 20.2293 7.09661 20.5355C7.09683 20.5352 7.09704 20.5349 7.09726 20.5345L7.13832 20.5631L7.11098 20.6049C7.11063 20.6047 7.11028 20.6045 7.10992 20.6043C6.95151 20.8358 6.81088 21.0723 6.69662 21.3011C6.32798 22.038 6.24662 22.6564 6.45464 23.1394C6.66831 23.635 7.15332 23.9193 7.78595 23.9193C8.0481 23.9193 8.34352 23.8739 8.68093 23.7813C8.68091 23.7766 8.6809 23.7719 8.68092 23.7672L8.73092 23.7673L8.74461 23.8154C8.74021 23.8167 8.73581 23.8179 8.73143 23.8192C8.73422 23.9458 8.74852 24.073 8.77726 24.1993C8.89523 24.7197 9.22593 25.136 9.73327 25.4034C10.0503 25.5704 10.39 25.655 10.7426 25.655C11.3255 25.655 11.8591 25.436 12.4773 25.1823L12.4786 25.1817L12.4806 25.1809C13.3319 24.8314 14.3915 24.3964 15.9996 24.3964C17.609 24.3964 18.6689 24.8317 19.5209 25.1817M5.84566 19.0717L5.89161 19.052C5.89161 19.052 5.89161 19.052 5.89161 19.052M5.84566 19.0717L5.89161 19.052M19.5209 25.1817L19.5222 25.1823C20.1403 25.436 20.674 25.655 21.2566 25.655H21.2569C21.6096 25.655 21.9489 25.5704 22.2659 25.4034C22.7732 25.136 23.1036 24.7197 23.2219 24.1993C23.2507 24.0729 23.2647 23.9457 23.2677 23.8188C23.2633 23.8176 23.2589 23.8164 23.2546 23.8151L23.2683 23.7671H23.3183C23.3183 23.7717 23.3182 23.7764 23.3182 23.781C23.6557 23.8736 23.9511 23.9191 24.2132 23.9191C24.8459 23.9191 25.3312 23.6347 25.5449 23.1391M19.5209 25.1817L19.5399 25.1355C19.5399 25.1355 19.5399 25.1355 19.5399 25.1355M19.5209 25.1817L19.5399 25.1355M25.5449 23.1391C25.7529 22.656 25.6716 22.0377 25.3029 21.3007M25.5449 23.1391L25.499 23.1193C25.499 23.1193 25.499 23.1193 25.499 23.1193M25.5449 23.1391L25.499 23.1193M25.3029 21.3007L25.2582 21.3231M25.3029 21.3007L25.2582 21.3231C25.2582 21.3231 25.2582 21.3231 25.2582 21.3231M25.2582 21.3231C25.624 22.0544 25.6985 22.6559 25.499 23.1193M25.499 23.1193C25.2947 23.593 24.8302 23.8691 24.2132 23.8691C23.9442 23.8691 23.6373 23.82 23.2819 23.719L23.2183 23.7008V23.7671C23.2183 23.9079 23.2049 24.0488 23.1732 24.1882C23.0584 24.6932 22.7381 25.098 22.2426 25.3592C21.9327 25.5224 21.6013 25.605 21.2569 25.605H21.2566C20.6852 25.605 20.1606 25.3902 19.5399 25.1355M19.5399 25.1355C18.6867 24.7849 17.6192 24.3464 15.9996 24.3464C14.3816 24.3464 13.3146 24.7845 12.4622 25.1345L12.4596 25.1355C11.8389 25.3902 11.3143 25.605 10.7426 25.605C10.3982 25.605 10.0665 25.5224 9.75658 25.3592M9.75658 25.3592C9.26106 25.098 8.9405 24.6932 8.82602 24.1883L8.82601 24.1882C8.79428 24.0487 8.78059 23.9078 8.78092 23.7675L8.78107 23.7011L8.71722 23.7192C8.36193 23.8204 8.05505 23.8693 7.78595 23.8693C7.16899 23.8693 6.70475 23.5932 6.50055 23.1196C6.30102 22.6563 6.37557 22.0547 6.74134 21.3234L6.74135 21.3234C6.8612 21.0835 7.01055 20.8345 7.17937 20.5916L7.20875 20.5493L7.16565 20.5212C6.70333 20.2194 6.19089 19.7502 5.89161 19.052M9.75658 25.3592C9.75658 25.3592 9.75657 25.3592 9.75657 25.3592L9.73355 25.4029L9.75658 25.3592ZM9.75658 25.3592L5.89161 19.052M20.1726 16.7513C19.6354 16.5652 19.081 16.3733 18.5171 16.2108M10.4271 24.0879C10.5315 24.1428 10.6298 24.168 10.7427 24.168C10.8908 24.168 11.0632 24.1264 11.2566 24.0615C11.4498 23.9966 11.6685 23.9068 11.9107 23.8074L11.9133 23.8063L11.9134 23.8063C12.8373 23.4269 14.0968 22.9097 15.9997 22.9097C17.9022 22.9097 19.1621 23.4269 20.086 23.8063L20.086 23.8063L10.4271 24.0879ZM10.4271 24.0879C10.3481 24.0465 10.3004 24.0055 10.2711 23.9664C10.2411 23.9264 10.2332 23.8918 10.2286 23.8714M10.4271 24.0879L10.2286 23.8714M10.2286 23.8714C10.2086 23.7847 10.2161 23.6802 10.2392 23.5711C10.2625 23.4612 10.3026 23.3425 10.3515 23.2254L10.3609 23.203L10.3842 23.1965C11.1366 22.9866 11.9212 22.8027 12.7299 22.6601C13.9603 22.4424 14.9968 22.2834 16.04 22.2834H16.0923C17.1397 22.2834 18.2213 22.4748 19.1794 22.6443C19.2093 22.6496 19.2392 22.6549 19.2689 22.6601C19.269 22.6601 19.269 22.6601 19.269 22.6601L10.2286 23.8714ZM10.2286 23.8714L10.2773 23.8603L10.2286 23.8716C10.2286 23.8715 10.2286 23.8715 10.2286 23.8714ZM21.7704 23.8715L21.7217 23.8603L21.5487 24.0437L21.572 24.0879C21.572 24.0879 21.572 24.0879 21.5721 24.0879C21.651 24.0462 21.6987 24.0053 21.7279 23.9663C21.7578 23.9264 21.7657 23.892 21.7704 23.8716C21.7704 23.8715 21.7704 23.8715 21.7704 23.8715ZM23.4602 19.606L23.4602 19.6061L23.4622 19.6054C23.5069 19.5914 24.0806 19.4052 24.493 18.9419L24.5734 18.8516L24.4527 18.8587C24.3556 18.8645 24.2664 18.8732 24.1985 18.8799L24.1984 18.8799L24.1972 18.88L24.1852 18.8815C24.185 18.8816 24.1848 18.8816 24.1845 18.8816C23.8937 18.9094 23.6233 18.924 23.3576 18.924C22.5628 18.924 21.8119 18.8013 20.9213 18.5219C20.509 18.3924 20.0992 18.2536 19.7023 18.1164C19.1601 17.9286 18.6475 17.7576 18.1199 17.6059C17.4286 17.4067 16.8582 17.3078 16.3264 17.2651L16.3264 17.2651C16.2731 17.2608 16.2183 17.266 16.1664 17.2715C16.1607 17.2721 16.155 17.2727 16.1494 17.2734C16.1024 17.2784 16.0575 17.2833 16.0124 17.2833H15.9994H15.9864C15.9415 17.2833 15.8969 17.2785 15.8503 17.2735C15.8442 17.2729 15.8381 17.2722 15.8319 17.2716C15.78 17.2661 15.7249 17.261 15.671 17.2655C15.1399 17.308 14.5698 17.3935 13.8779 17.5926L13.8779 17.5926C13.3509 17.7444 12.8387 17.9219 12.2978 18.1092L12.2953 18.1101L12.2953 18.1101C11.8982 18.2477 11.4886 18.3896 11.0764 18.519C10.1858 18.7984 9.4352 18.9227 8.64041 18.9227C8.37449 18.9227 8.10409 18.9091 7.81284 18.8813L7.79982 18.8799L7.79958 18.8799C7.73181 18.8733 7.64242 18.8648 7.54552 18.8588L7.42436 18.8512L7.50504 18.9419C7.91743 19.4055 8.49148 19.5914 8.5357 19.6054L8.53569 19.6054L8.53786 19.606L9.7007 19.9162L8.86199 20.7901L8.86172 20.7904C8.56455 21.1049 8.28164 21.4917 8.0848 21.8538L8.08476 21.8539C7.96811 22.0693 7.90195 22.2362 7.86642 22.3572L7.84505 22.43L7.92037 22.421C8.06061 22.4041 8.27962 22.3563 8.60185 22.2439L8.60188 22.2439C8.85178 22.1566 9.10539 22.0692 9.36243 21.9898L9.36244 21.9898C10.1036 21.7608 10.8757 21.5536 11.6719 21.3883L11.6719 21.3883C11.7743 21.367 11.8758 21.3439 11.9772 21.3208C12.1439 21.2829 12.3102 21.2451 12.479 21.2153C12.5555 21.2018 12.6312 21.1883 12.7063 21.175C13.667 21.0048 14.5194 20.8538 15.3677 20.8079C15.4729 20.8023 15.5778 20.7819 15.6788 20.7624C15.6882 20.7606 15.6976 20.7587 15.7069 20.7569C15.818 20.7356 15.9248 20.7167 16.031 20.7167H16.0311H16.0312H16.0313H16.0315H16.0316H16.0317H16.0318H16.0319H16.0321H16.0322H16.0323H16.0324H16.0325H16.0327H16.0328H16.0329H16.033H16.0331H16.0333H16.0334H16.0335H16.0336H16.0337H16.0339H16.034H16.0341H16.0342H16.0343H16.0344H16.0346H16.0347H16.0348H16.0349H16.035H16.0352H16.0353H16.0354H16.0355H16.0356H16.0358H16.0359H16.036H16.0361H16.0362H16.0364H16.0365H16.0366H16.0367H16.0368H16.037H16.0371H16.0372H16.0373H16.0374H16.0376H16.0377H16.0378H16.0379H16.038H16.0382H16.0383H16.0384H16.0385H16.0386H16.0387H16.0389H16.039H16.0391H16.0392H16.0393H16.0395H16.0396H16.0397H16.0398H16.0399H16.0401H16.0402H16.0403H16.0404H16.0405H16.0407H16.0408H16.0409H16.041H16.0411H16.0413H16.0414H16.0415H16.0416H16.0417H16.0419H16.042H16.0421H16.0422H16.0423H16.0425H16.0426H16.0427H16.0428H16.0429H16.0431H16.0432H16.0433H16.0434H16.0435H16.0437H16.0438H16.0439H16.044H16.0441H16.0443H16.0444H16.0445H16.0446H16.0447H16.0449H16.045H16.0451H16.0452H16.0453H16.0455H16.0456H16.0457H16.0458H16.0459H16.046H16.0462H16.0463H16.0464H16.0465H16.0466H16.0468H16.0469H16.047H16.0471H16.0472H16.0474H16.0475H16.0476H16.0477H16.0478H16.048H16.0481H16.0482H16.0483H16.0484H16.0486H16.0487H16.0488H16.0489H16.049H16.0492H16.0493H16.0494H16.0495H16.0496H16.0498H16.0499H16.05H16.0501H16.0502H16.0504H16.0505H16.0506H16.0507H16.0508H16.051H16.0511H16.0512H16.0513H16.0514H16.0516H16.0517H16.0518H16.0519H16.052H16.0522H16.0523H16.0524H16.0525H16.0526H16.0528H16.0529H16.053H16.0531H16.0532H16.0534H16.0535H16.0536H16.0537H16.0538H16.054H16.0541H16.0542H16.0543H16.0544H16.0546H16.0547H16.0548H16.0549H16.055H16.0552H16.0553H16.0554H16.0555H16.0556H16.0558H16.0559H16.056H16.0561H16.0562H16.0564H16.0565H16.0566H16.0567H16.0568H16.057H16.0571H16.0572H16.0573H16.0574H16.0576H16.0577H16.0578H16.0579H16.058H16.0582H16.0583H16.0584H16.0585H16.0586H16.0588H16.0589H16.059H16.0591H16.0592H16.0594H16.0595H16.0596H16.0597H16.0598H16.06H16.0601H16.0602H16.0603H16.0604H16.0606H16.0607H16.0608H16.0609H16.061H16.0612H16.0613H16.0614H16.0615H16.0616H16.0618H16.0619H16.062H16.0621H16.0622H16.0624H16.0625H16.0626H16.0627H16.0628H16.063H16.0631H16.0632H16.0633H16.0634H16.0636H16.0637H16.0638H16.0639H16.064H16.0642H16.0643H16.0644H16.0645H16.0646H16.0648H16.0649H16.065H16.0651H16.0652H16.0654H16.0655H16.0656H16.0657H16.0658H16.066H16.0661H16.0662H16.0663H16.0664H16.0666H16.0667H16.0668H16.0669H16.067H16.0672H16.0673H16.0674H16.0675H16.0676H16.0678H16.0679H16.068H16.0681H16.0682H16.0684H16.0685H16.0686H16.0687H16.0688H16.069H16.0691H16.0692H16.0693H16.0694H16.0696H16.0697H16.0698H16.0699H16.0701H16.0702H16.0703H16.0704H16.0705H16.0707H16.0708H16.0709H16.071H16.0711H16.0712H16.0714H16.0715H16.0716H16.0717H16.0719H16.072H16.0721H16.0722H16.0723H16.0725H16.0726H16.0727H16.0728H16.0729H16.0731H16.0732H16.0733H16.0734H16.0735H16.0737H16.0738H16.0739H16.074H16.0741H16.0743H16.0744H16.0745H16.0746H16.0747H16.0749H16.075H16.0751H16.0752H16.0753H16.0755H16.0756H16.0757H16.0758H16.0759H16.0761H16.0762H16.0763H16.0764H16.0765H16.0767H16.0768H16.0769H16.077H16.0771H16.0773H16.0774H16.0775H16.0776H16.0777H16.0779H16.078H16.0781H16.0782H16.0783H16.0784H16.0786H16.0787H16.0788H16.0789H16.079H16.0792H16.0793H16.0794H16.0795H16.0796H16.0798H16.0799H16.08H16.0801H16.0802H16.0804H16.0805H16.0806H16.0807H16.0808H16.081H16.0811H16.0812H16.0813H16.0814H16.0816H16.0817H16.0818H16.0819H16.082H16.0822H16.0823H16.0824H16.0825H16.0826H16.0828H16.0829H16.083H16.0831H16.0832H16.0834H16.0835H16.0836H16.0837H16.0838H16.084H16.0841H16.0842H16.0843H16.0844H16.0846H16.0847H16.0848H16.0849H16.085H16.0852H16.0853H16.0854H16.0855H16.0856H16.0858H16.0859H16.086H16.0861H16.0862H16.0864H16.0865H16.0866H16.0867H16.0868H16.087H16.0871H16.0872H16.0873H16.0874H16.0876H16.0877H16.0878H16.0879H16.088H16.0882H16.0883H16.0884H16.0885H16.0886H16.0887H16.0889H16.089H16.0891H16.0892H16.0893H16.0895H16.0896H16.0897H16.0898H16.0899H16.0901H16.0902H16.0903H16.0904H16.0905H16.0907H16.0908H16.0909H16.091H16.0911H16.0913H16.0914H16.0915H16.0916H16.0917H16.0919H16.092H16.0921H16.0922H16.0923C16.1806 20.7167 16.2697 20.7346 16.3639 20.7549C16.3704 20.7563 16.377 20.7577 16.3836 20.7592C16.4702 20.778 16.5614 20.7977 16.6529 20.8023L16.6529 20.8023C17.403 20.8394 18.1345 20.9831 18.8247 21.1186C19.0614 21.1651 19.2933 21.2107 19.5193 21.2506L19.5193 21.2507C19.7911 21.2985 20.06 21.3504 20.3265 21.4057C21.123 21.5714 21.8952 21.7696 22.6359 21.9985L22.6507 21.9507L22.6359 21.9985C22.8933 22.078 23.1471 22.1611 23.3965 22.2479C23.7192 22.3605 23.9381 22.4058 24.078 22.4227L24.1536 22.4318L24.1319 22.3588C24.0961 22.2381 24.0303 22.0702 23.9132 21.8545L23.9132 21.8545C23.7164 21.4925 23.4335 21.105 23.1363 20.7907L22.3073 19.9137L23.4602 19.606Z" fill="#7B8E98" stroke="white" stroke-width="0.1"/>
</g>
<defs>
<clipPath id="clip0_5551_16642">
<rect width="32" height="32" fill="white"/>
</clipPath>
</defs>
</svg>
