<svg width="32" height="32" viewBox="0 0 32 32" fill="none" xmlns="http://www.w3.org/2000/svg">
<path d="M30.5802 21.6935C30.5332 21.5141 30.4399 21.3501 30.3097 21.218C30.1796 21.0859 30.017 20.9903 29.8383 20.9407L24.0727 19.3396C24.0892 18.6445 23.9999 17.9509 23.8077 17.2826C23.5243 16.3314 23.17 15.4028 22.7479 14.5046C23.4365 13.551 23.8073 12.4046 23.8077 11.2282C23.8184 10.293 23.5973 9.36961 23.1642 8.54068C22.7312 7.71175 22.0996 7.00307 21.3259 6.47796C20.5522 5.95284 19.6605 5.62766 18.7305 5.53146C17.8006 5.43525 16.8613 5.57103 15.9965 5.92666C11.8525 2.65029 6.83935 0.964386 2.40913 1.48394C2.17465 1.51289 1.95656 1.61939 1.7895 1.78652C1.62244 1.95365 1.51599 2.17183 1.48705 2.40641C0.957121 6.81732 2.6529 11.8432 5.95966 16.0209C5.49177 17.1574 5.40702 18.4156 5.71827 19.6047C6.02951 20.7938 6.71978 21.8489 7.68444 22.6102C8.6491 23.3715 9.83554 23.7974 11.0639 23.8233C12.2923 23.8492 13.4957 23.4738 14.4915 22.7539C15.3894 23.1763 16.3176 23.5307 17.2684 23.8142C17.8851 23.9927 18.5235 24.0855 19.1655 24.0899H19.3245L20.9249 29.858C20.9745 30.0367 21.07 30.1994 21.2021 30.3296C21.3341 30.4598 21.498 30.5531 21.6774 30.6002C21.7654 30.6113 21.8544 30.6113 21.9424 30.6002C22.0818 30.601 22.2201 30.5742 22.3492 30.5215C22.4784 30.4687 22.5958 30.391 22.6949 30.2927L30.2623 22.722C30.4022 22.5946 30.5055 22.432 30.5614 22.2512C30.6173 22.0703 30.6238 21.8778 30.5802 21.6935ZM18.1481 7.65497C19.0925 7.65497 19.9983 8.03032 20.6662 8.69845C21.334 9.36658 21.7092 10.2728 21.7092 11.2176C21.7032 11.5522 21.6496 11.8842 21.5502 12.2037C20.5663 10.5881 19.3921 9.09653 18.0527 7.761L17.9573 7.67618L18.1481 7.65497ZM11.7253 5.64037C10.3128 8.2033 8.20353 10.3135 5.64171 11.7266C4.20607 9.23317 3.47347 6.39682 3.52198 3.51974C6.39689 3.4791 9.22996 4.21148 11.7253 5.64037ZM11.2166 21.7147C10.2721 21.7147 9.36631 21.3394 8.69847 20.6713C8.03063 20.0031 7.65544 19.097 7.65544 18.1521C7.65544 18.0885 7.65544 18.0249 7.65544 17.9612L7.74023 18.0567C9.07525 19.3965 10.5662 20.5713 12.181 21.5557C11.8685 21.6534 11.5439 21.7069 11.2166 21.7147ZM17.8513 21.7147C16.7997 21.4129 15.778 21.0154 14.7989 20.5272C12.7527 19.5048 10.8875 18.1546 9.27703 16.5298C8.34635 15.6011 7.50205 14.5897 6.75456 13.5079C9.60348 11.9188 11.9554 9.56955 13.5483 6.7219C14.6294 7.46592 15.6405 8.30705 16.5689 9.23484C18.1928 10.8461 19.5425 12.7121 20.5645 14.7591C21.0518 15.7561 21.4457 16.7961 21.741 17.8658C21.9546 18.4219 22.0152 19.0251 21.9164 19.6126C21.8176 20.2001 21.563 20.7503 21.1793 21.2058C20.7246 21.5833 20.1773 21.8325 19.5941 21.9276C19.0109 22.0227 18.4129 21.9602 17.8619 21.7466L17.8513 21.7147ZM22.4935 27.4617L21.4336 23.5279C22.3947 23.1135 23.1686 22.3582 23.6063 21.4073L27.5278 22.4676L22.4935 27.4617ZM7.26329 6.20234C7.25931 6.06322 7.28837 5.92513 7.34808 5.79942C7.40175 5.67093 7.47703 5.55258 7.57065 5.44952C7.66918 5.35014 7.7864 5.27126 7.91556 5.21742C8.04471 5.16359 8.18324 5.13588 8.32315 5.13588C8.46307 5.13588 8.6016 5.16359 8.73075 5.21742C8.8599 5.27126 8.97713 5.35014 9.07565 5.44952C9.16927 5.55258 9.24455 5.67093 9.29822 5.79942C9.3543 5.92634 9.38326 6.06358 9.38326 6.20234C9.38326 6.34111 9.3543 6.47834 9.29822 6.60526C9.24455 6.73376 9.16927 6.8521 9.07565 6.95517C8.97713 7.05455 8.8599 7.13343 8.73075 7.18726C8.6016 7.24109 8.46307 7.26881 8.32315 7.26881C8.18324 7.26881 8.04471 7.24109 7.91556 7.18726C7.7864 7.13343 7.66918 7.05455 7.57065 6.95517C7.47703 6.8521 7.40175 6.73376 7.34808 6.60526C7.28837 6.47955 7.25931 6.34147 7.26329 6.20234Z" fill="#7B8E98"/>
<path fill-rule="evenodd" clip-rule="evenodd" d="M29.7453 21.2759L23.7185 19.6023L23.725 19.3314C23.7407 18.672 23.656 18.0141 23.4739 17.3803C23.1955 16.4463 22.8476 15.5345 22.4331 14.6526L22.3459 14.4671L22.4659 14.301C23.1117 13.4066 23.4595 12.3315 23.4599 11.2281L23.4599 11.2243C23.4699 10.3464 23.2624 9.47977 22.856 8.70175C22.4495 7.92373 21.8567 7.2586 21.1305 6.76575C20.4044 6.27292 19.5675 5.96772 18.6948 5.87744C17.822 5.78715 16.9404 5.91458 16.1288 6.24834L15.9405 6.32579L15.7808 6.19951C11.6921 2.96687 6.76913 1.32323 2.45079 1.82926C2.29366 1.84888 2.14752 1.92035 2.0355 2.03241C1.92337 2.14459 1.85186 2.29102 1.83232 2.4485C1.3162 6.7462 2.96867 11.6817 6.23239 15.805L6.35889 15.9648L6.2813 16.1533C5.84219 17.2199 5.76266 18.4007 6.05476 19.5166C6.34685 20.6326 6.99465 21.6228 7.89992 22.3372C8.80518 23.0516 9.91855 23.4512 11.0713 23.4755C12.224 23.4999 13.3532 23.1475 14.2878 22.472L14.454 22.3518L14.6396 22.4391C15.5213 22.8539 16.4327 23.202 17.3664 23.4804C17.9517 23.6498 18.5575 23.7378 19.1667 23.742H19.589L21.2601 29.765C21.2934 29.8851 21.3576 29.9944 21.4463 30.082C21.5296 30.1641 21.6317 30.2244 21.7436 30.2576C21.7953 30.2624 21.8473 30.2616 21.8989 30.2551L21.9215 30.2522L21.9444 30.2524C22.0381 30.2529 22.1309 30.2349 22.2177 30.1995C22.3042 30.1641 22.3829 30.1121 22.4494 30.0463C22.4495 30.0461 22.4492 30.0464 22.4494 30.0463L30.022 22.4704L30.0281 22.4649C30.1221 22.3792 30.1915 22.27 30.2291 22.1484C30.2663 22.0282 30.271 21.9003 30.2427 21.7777C30.2108 21.6587 30.1485 21.55 30.062 21.4622C29.9745 21.3734 29.8653 21.3092 29.7453 21.2759ZM30.5802 21.6935C30.5332 21.5141 30.4399 21.3501 30.3097 21.218C30.1796 21.0859 30.017 20.9903 29.8383 20.9407L24.0727 19.3396C24.0892 18.6445 23.9999 17.9509 23.8077 17.2826C23.5243 16.3314 23.17 15.4028 22.7479 14.5046C23.4365 13.551 23.8073 12.4046 23.8077 11.2282C23.8184 10.293 23.5973 9.36961 23.1642 8.54068C22.7312 7.71175 22.0996 7.00307 21.3259 6.47796C20.5522 5.95284 19.6605 5.62766 18.7305 5.53146C17.8006 5.43525 16.8613 5.57103 15.9965 5.92666C11.8525 2.65029 6.83935 0.964386 2.40913 1.48394C2.17465 1.51289 1.95656 1.61939 1.7895 1.78652C1.62244 1.95365 1.51599 2.17183 1.48705 2.40641C0.957121 6.81732 2.6529 11.8432 5.95966 16.0209C5.49177 17.1574 5.40702 18.4156 5.71827 19.6047C6.02951 20.7938 6.71978 21.8489 7.68444 22.6102C8.6491 23.3715 9.83554 23.7974 11.0639 23.8233C12.2923 23.8492 13.4957 23.4738 14.4915 22.7539C15.3894 23.1763 16.3176 23.5307 17.2684 23.8142C17.8851 23.9927 18.5235 24.0855 19.1655 24.0899H19.3245L20.9249 29.858C20.9745 30.0367 21.07 30.1993 21.2021 30.3296C21.3341 30.4598 21.498 30.5531 21.6774 30.6002C21.7654 30.6113 21.8544 30.6113 21.9424 30.6002C22.0818 30.601 22.2201 30.5742 22.3492 30.5215C22.4784 30.4687 22.5958 30.391 22.6949 30.2927L30.2623 22.722C30.4022 22.5946 30.5055 22.432 30.5614 22.2512C30.6173 22.0703 30.6238 21.8778 30.5802 21.6935ZM18.1288 7.30715H18.1481C19.1848 7.30715 20.1791 7.71918 20.9122 8.45255C21.6452 9.18592 22.057 10.1806 22.057 11.2176V11.2239C22.0504 11.5914 21.9916 11.9561 21.8823 12.3071L21.6536 13.0422L21.2531 12.3846C20.2854 10.7956 19.1308 9.32838 17.8141 8.01429L17.1422 7.41682L18.1288 7.30715ZM18.295 8.00616C19.4225 9.16368 20.4282 10.4338 21.2965 11.7965C21.3824 11.9313 21.467 12.0671 21.5502 12.2037C21.599 12.0469 21.6367 11.8871 21.6632 11.7255C21.6907 11.5577 21.7061 11.388 21.7092 11.2176C21.7092 10.2728 21.334 9.36658 20.6662 8.69845C20.07 8.102 19.2842 7.73888 18.4505 7.66783C18.3537 7.65958 18.2562 7.65527 18.1584 7.65499C18.1549 7.65498 18.1515 7.65497 18.1481 7.65497L17.9573 7.67618L18.0527 7.761C18.0846 7.7928 18.1164 7.82469 18.1481 7.85666C18.1565 7.86516 18.1649 7.87366 18.1733 7.88217C18.214 7.92336 18.2546 7.96468 18.295 8.00616ZM12.1951 5.50857L12.0299 5.80826C10.5857 8.42872 8.42908 10.5863 5.8097 12.0311L5.51067 12.1961L5.34027 11.9001C3.87324 9.3522 3.12464 6.45385 3.17421 3.51388L3.17989 3.17672L3.51707 3.17195C6.45428 3.13043 9.34874 3.87868 11.8981 5.33853L12.1951 5.50857ZM7.30761 17.0461L7.99362 17.8182C9.30721 19.1354 10.7738 20.2905 12.3621 21.2587L13.0181 21.6586L12.2848 21.8877C11.9413 21.995 11.5846 22.0538 11.2249 22.0625L11.2166 21.7147C11.38 21.7108 11.5427 21.6955 11.7036 21.669C11.865 21.6424 12.0245 21.6046 12.181 21.5557C12.0446 21.4725 11.9091 21.388 11.7745 21.3022C10.421 20.439 9.15889 19.4401 8.00769 18.3209C7.95014 18.2649 7.89286 18.2086 7.83586 18.1521C7.80389 18.1204 7.77202 18.0886 7.74023 18.0567L7.65544 17.9612V18.1521C7.65544 18.2612 7.66044 18.3697 7.67031 18.4775C7.74596 19.303 8.10772 20.0803 8.69847 20.6713C9.36631 21.3394 10.2721 21.7147 11.2166 21.7147V22.0626C10.1798 22.0626 9.18553 21.6505 8.45247 20.9172C7.71941 20.1838 7.30761 19.1892 7.30761 18.1521V17.0461ZM20.5645 14.7591C21.0518 15.756 21.4457 16.7961 21.741 17.8658C21.9546 18.4219 22.0152 19.0251 21.9164 19.6126C21.8176 20.2001 21.563 20.7503 21.1793 21.2058C20.7246 21.5833 20.1773 21.8325 19.5941 21.9276C19.0109 22.0227 18.4129 21.9602 17.8619 21.7466L17.8513 21.7147C16.7997 21.4129 15.778 21.0154 14.7989 20.5272C12.7527 19.5048 10.8875 18.1546 9.27703 16.5298C8.42886 15.6835 7.65244 14.7684 6.95566 13.794C6.88787 13.6992 6.82083 13.6038 6.75456 13.5079C6.85627 13.4512 6.95734 13.3935 7.05777 13.3348C9.67006 11.8091 11.8457 9.63586 13.3749 7.02482C13.4336 6.92449 13.4914 6.82351 13.5483 6.7219C13.6443 6.78797 13.7397 6.8548 13.8346 6.9224C14.8083 7.61599 15.7229 8.38944 16.5689 9.23484C18.1928 10.8461 19.5425 12.7121 20.5645 14.7591ZM16.8142 8.98831C18.4649 10.6262 19.8368 12.523 20.8757 14.6037L20.5645 14.7591L20.877 14.6063C21.3713 15.6176 21.7713 16.6724 22.0718 17.7572C22.3028 18.3669 22.3675 19.0272 22.2594 19.6703C22.1503 20.3191 21.8691 20.9268 21.4453 21.4299L21.4253 21.4536L21.4015 21.4734C20.8991 21.8905 20.2945 22.1659 19.6501 22.2709C19.0057 22.3759 18.3449 22.3069 17.7362 22.0709L17.5836 22.0117L17.5789 21.9975C16.569 21.6966 15.5869 21.3088 14.6437 20.8385C12.5638 19.7993 10.6676 18.4267 9.03062 16.7753C8.08529 15.8319 7.22769 14.8045 6.4684 13.7056L6.25075 13.3907L6.58512 13.2041C9.37777 11.6464 11.6833 9.34355 13.2447 6.55209L13.431 6.21899L13.7455 6.43536C14.8438 7.19125 15.871 8.04577 16.8142 8.98831ZM22.3134 28.1302L21.0195 23.3277L21.2959 23.2085C22.1781 22.8281 22.8885 22.1348 23.2904 21.2618L23.4133 20.9948L28.2014 22.2894L22.3134 28.1302ZM7.66583 5.94115L7.66226 5.94866C7.62615 6.0247 7.60857 6.10823 7.61098 6.19239L7.26329 6.20234C7.25931 6.06322 7.28837 5.92513 7.34808 5.79942C7.40175 5.67093 7.47703 5.55258 7.57065 5.44952C7.66918 5.35014 7.7864 5.27126 7.91556 5.21742C8.04471 5.16359 8.18324 5.13588 8.32315 5.13588C8.46307 5.13588 8.6016 5.16359 8.73075 5.21742C8.8599 5.27126 8.97713 5.35014 9.07565 5.44952C9.16927 5.55258 9.24455 5.67093 9.29822 5.79942C9.3543 5.92634 9.38326 6.06358 9.38326 6.20234C9.38326 6.34111 9.3543 6.47834 9.29822 6.60526C9.24455 6.73376 9.16927 6.8521 9.07565 6.95517C8.97713 7.05455 8.8599 7.13343 8.73075 7.18726C8.6016 7.24109 8.46307 7.26881 8.32315 7.26881C8.18324 7.26881 8.04471 7.24109 7.91556 7.18726C7.7864 7.13343 7.66918 7.05455 7.57065 6.95517C7.47703 6.8521 7.40175 6.73376 7.34808 6.60526C7.28837 6.47955 7.25931 6.34147 7.26329 6.20234L7.61098 6.21229C7.60857 6.29646 7.62615 6.37999 7.66226 6.45602L7.66583 6.46353L7.66903 6.4712C7.70641 6.56067 7.75843 6.64326 7.82295 6.71556C7.88804 6.77985 7.96491 6.831 8.04937 6.8662C8.13613 6.90236 8.22918 6.92098 8.32315 6.92098C8.41713 6.92098 8.51018 6.90236 8.59694 6.8662C8.68139 6.831 8.75826 6.77985 8.82335 6.71556C8.88787 6.64326 8.9399 6.56067 8.97727 6.4712L8.98 6.46467C9.01651 6.38203 9.03543 6.2927 9.03543 6.20234C9.03543 6.11198 9.01657 6.02262 8.98006 5.93998L8.97721 5.93351C8.93983 5.84404 8.88787 5.76143 8.82335 5.68912C8.75826 5.62483 8.68139 5.57368 8.59694 5.53848C8.51018 5.50232 8.41713 5.48371 8.32315 5.48371C8.22918 5.48371 8.13613 5.50232 8.04937 5.53848C7.96491 5.57368 7.88804 5.62483 7.82296 5.68912C7.75844 5.76143 7.70641 5.84401 7.66903 5.93349L7.66583 5.94115ZM22.4935 27.4617L27.5278 22.4676L23.6063 21.4073C23.1686 22.3582 22.3947 23.1135 21.4336 23.5279L22.4935 27.4617ZM5.64171 11.7266C8.20353 10.3135 10.3128 8.2033 11.7253 5.64037C9.22996 4.21148 6.39689 3.4791 3.52198 3.51974C3.47347 6.39682 4.20607 9.23317 5.64171 11.7266Z" fill="white"/>
</svg>
