<svg width="14" height="14" viewBox="0 0 14 14" fill="none" xmlns="http://www.w3.org/2000/svg">
<path fill-rule="evenodd" clip-rule="evenodd" d="M5.21054 11.0832C4.9043 11.0832 4.66663 10.8438 4.66663 10.54C4.66663 10.388 4.72604 10.2499 4.83117 10.1441L8.03065 6.99523L4.83117 3.85562C4.72604 3.74974 4.66663 3.60703 4.66663 3.45972C4.66663 3.15589 4.9043 2.9165 5.21054 2.9165C5.3568 2.9165 5.48478 2.97175 5.58533 3.07302L9.14132 6.57171C9.2693 6.6914 9.33329 6.83871 9.33329 6.99984C9.33329 7.16096 9.2693 7.29907 9.1459 7.42336L5.5899 10.9267C5.48478 11.0279 5.3568 11.0832 5.21054 11.0832Z" fill="#1A1A1A"/>
</svg>
