<svg width="16" height="16" viewBox="0 0 16 16" fill="none" xmlns="http://www.w3.org/2000/svg">
<path fill-rule="evenodd" clip-rule="evenodd" d="M5.95499 12.6666C5.605 12.6666 5.33337 12.393 5.33337 12.0458C5.33337 11.8721 5.40128 11.7143 5.52142 11.5933L9.17797 7.99466L5.52142 4.40653C5.40128 4.28553 5.33337 4.12243 5.33337 3.95407C5.33337 3.60683 5.605 3.33325 5.95499 3.33325C6.12214 3.33325 6.26841 3.39639 6.38333 3.51213L10.4473 7.51063C10.5936 7.64742 10.6667 7.81578 10.6667 7.99992C10.6667 8.18406 10.5936 8.3419 10.4525 8.48395L6.38855 12.4877C6.26841 12.6035 6.12214 12.6666 5.95499 12.6666Z" fill="#1A1A1A"/>
</svg>
