<svg width="104" height="16" viewBox="0 0 104 16" fill="none" xmlns="http://www.w3.org/2000/svg">
<path fill-rule="evenodd" clip-rule="evenodd" d="M12.1108 14.2231C12.357 14.0381 12.411 13.7338 12.2609 13.304L11.0061 9.58584L14.2121 7.30001C14.5844 7.03741 14.7345 6.75691 14.6384 6.46446C14.5424 6.17202 14.2602 6.02878 13.7979 6.03475L9.86538 6.06459L8.67062 2.32849C8.52652 1.89281 8.31039 1.66602 7.99819 1.66602C7.69199 1.66602 7.47586 1.89281 7.33177 2.32849L6.13701 6.06459L2.2045 6.03475C1.74221 6.02878 1.46003 6.17202 1.36397 6.46446C1.26191 6.75691 1.418 7.03741 1.79024 7.30001L4.99628 9.58584L3.74148 13.304C3.59139 13.7338 3.64542 14.0381 3.89158 14.2231C4.13773 14.4141 4.44993 14.3485 4.82217 14.0799L7.99819 11.7583L11.1802 14.0799C11.5524 14.3485 11.8586 14.4141 12.1108 14.2231Z" fill="#FEBA0C"/>
<path fill-rule="evenodd" clip-rule="evenodd" d="M34.1108 14.2231C34.357 14.0381 34.411 13.7338 34.2609 13.304L33.0061 9.58584L36.2121 7.30001C36.5844 7.03741 36.7345 6.75691 36.6384 6.46446C36.5424 6.17202 36.2602 6.02878 35.7979 6.03475L31.8654 6.06459L30.6706 2.32849C30.5265 1.89281 30.3104 1.66602 29.9982 1.66602C29.692 1.66602 29.4759 1.89281 29.3318 2.32849L28.137 6.06459L24.2045 6.03475C23.7422 6.02878 23.46 6.17202 23.364 6.46446C23.2619 6.75691 23.418 7.03741 23.7902 7.30001L26.9963 9.58584L25.7415 13.304C25.5914 13.7338 25.6454 14.0381 25.8916 14.2231C26.1377 14.4141 26.4499 14.3485 26.8222 14.0799L29.9982 11.7583L33.1802 14.0799C33.5524 14.3485 33.8586 14.4141 34.1108 14.2231Z" fill="#FEBA0C"/>
<path fill-rule="evenodd" clip-rule="evenodd" d="M56.1108 14.2231C56.357 14.0381 56.411 13.7338 56.2609 13.304L55.0061 9.58584L58.2121 7.30001C58.5844 7.03741 58.7345 6.75691 58.6384 6.46446C58.5424 6.17202 58.2602 6.02878 57.7979 6.03475L53.8654 6.06459L52.6706 2.32849C52.5265 1.89281 52.3104 1.66602 51.9982 1.66602C51.692 1.66602 51.4759 1.89281 51.3318 2.32849L50.137 6.06459L46.2045 6.03475C45.7422 6.02878 45.46 6.17202 45.364 6.46446C45.2619 6.75691 45.418 7.03741 45.7902 7.30001L48.9963 9.58584L47.7415 13.304C47.5914 13.7338 47.6454 14.0381 47.8916 14.2231C48.1377 14.4141 48.4499 14.3485 48.8222 14.0799L51.9982 11.7583L55.1802 14.0799C55.5524 14.3485 55.8586 14.4141 56.1108 14.2231Z" fill="#FEBA0C"/>
<path fill-rule="evenodd" clip-rule="evenodd" d="M78.1108 14.2231C78.357 14.0381 78.411 13.7338 78.2609 13.304L77.0061 9.58584L80.2121 7.30001C80.5844 7.03741 80.7345 6.75691 80.6384 6.46446C80.5424 6.17202 80.2602 6.02878 79.7979 6.03475L75.8654 6.06459L74.6706 2.32849C74.5265 1.89281 74.3104 1.66602 73.9982 1.66602C73.692 1.66602 73.4759 1.89281 73.3318 2.32849L72.137 6.06459L68.2045 6.03475C67.7422 6.02878 67.46 6.17202 67.364 6.46446C67.2619 6.75691 67.418 7.03741 67.7902 7.30001L70.9963 9.58584L69.7415 13.304C69.5914 13.7338 69.6454 14.0381 69.8916 14.2231C70.1377 14.4141 70.4499 14.3485 70.8222 14.0799L73.9982 11.7583L77.1802 14.0799C77.5524 14.3485 77.8586 14.4141 78.1108 14.2231ZM77.1923 13.0355L74.3045 10.8451C74.1123 10.6959 73.8902 10.6959 73.6981 10.8451L70.8102 13.0355C70.7862 13.0534 70.7682 13.0593 70.7562 13.0474C70.7442 13.0295 70.7502 13.0235 70.7562 12.9877L71.951 9.57987C72.035 9.34711 71.987 9.15613 71.7769 9.01289L68.787 6.95983C68.7569 6.94192 68.7509 6.92999 68.7569 6.91805C68.7629 6.90015 68.7749 6.90015 68.811 6.90015L72.4433 6.95983C72.6894 6.9658 72.8455 6.8703 72.9236 6.62561L73.9682 3.17001C73.9743 3.1342 73.9863 3.12226 73.9983 3.12226C74.0163 3.12226 74.0283 3.1342 74.0343 3.17001L75.079 6.62561C75.157 6.8703 75.3131 6.9658 75.5593 6.95983L79.1916 6.90015C79.2276 6.90015 79.2396 6.90015 79.2456 6.91805C79.2516 6.92999 79.2396 6.94192 79.2156 6.95983L76.2257 9.01289C76.0155 9.15613 75.9675 9.34711 76.0516 9.57987L77.2463 12.9877C77.2523 13.0235 77.2583 13.0295 77.2463 13.0474C77.2343 13.0593 77.2163 13.0534 77.1923 13.0355Z" fill="#CFD8DC"/>
<path fill-rule="evenodd" clip-rule="evenodd" d="M100.111 14.2231C100.357 14.0381 100.411 13.7338 100.261 13.304L99.0061 9.58584L102.212 7.30001C102.584 7.03741 102.734 6.75691 102.638 6.46446C102.542 6.17202 102.26 6.02878 101.798 6.03475L97.8654 6.06459L96.6706 2.32849C96.5265 1.89281 96.3104 1.66602 95.9982 1.66602C95.692 1.66602 95.4759 1.89281 95.3318 2.32849L94.137 6.06459L90.2045 6.03475C89.7422 6.02878 89.46 6.17202 89.364 6.46446C89.2619 6.75691 89.418 7.03741 89.7902 7.30001L92.9963 9.58584L91.7415 13.304C91.5914 13.7338 91.6454 14.0381 91.8916 14.2231C92.1377 14.4141 92.4499 14.3485 92.8222 14.0799L95.9982 11.7583L99.1802 14.0799C99.5524 14.3485 99.8586 14.4141 100.111 14.2231ZM99.1923 13.0355L96.3045 10.8451C96.1123 10.6959 95.8902 10.6959 95.6981 10.8451L92.8102 13.0355C92.7862 13.0534 92.7682 13.0593 92.7562 13.0474C92.7442 13.0295 92.7502 13.0235 92.7562 12.9877L93.951 9.57987C94.035 9.34711 93.987 9.15613 93.7769 9.01289L90.787 6.95983C90.7569 6.94192 90.7509 6.92999 90.7569 6.91805C90.7629 6.90015 90.7749 6.90015 90.811 6.90015L94.4433 6.95983C94.6894 6.9658 94.8455 6.8703 94.9236 6.62561L95.9682 3.17001C95.9743 3.1342 95.9863 3.12226 95.9983 3.12226C96.0163 3.12226 96.0283 3.1342 96.0343 3.17001L97.079 6.62561C97.157 6.8703 97.3131 6.9658 97.5593 6.95983L101.192 6.90015C101.228 6.90015 101.24 6.90015 101.246 6.91805C101.252 6.92999 101.24 6.94192 101.216 6.95983L98.2257 9.01289C98.0155 9.15613 97.9675 9.34711 98.0516 9.57987L99.2463 12.9877C99.2523 13.0235 99.2583 13.0295 99.2463 13.0474C99.2343 13.0593 99.2163 13.0534 99.1923 13.0355Z" fill="#CFD8DC"/>
</svg>
