<svg width="32" height="32" viewBox="0 0 32 32" fill="none" xmlns="http://www.w3.org/2000/svg">
<path fill-rule="evenodd" clip-rule="evenodd" d="M16.0001 29.3307C23.2942 29.3307 29.3334 23.2915 29.3334 15.9974C29.3334 8.71635 23.2811 2.66406 15.987 2.66406C8.70596 2.66406 2.66675 8.71635 2.66675 15.9974C2.66675 23.2915 8.71904 29.3307 16.0001 29.3307ZM16.0001 27.1102C9.8302 27.1102 4.9021 22.1691 4.9021 15.9991C4.9021 9.84227 9.81713 4.88802 15.9871 4.88802C22.157 4.88802 27.0982 9.84227 27.1112 15.9991C27.1243 22.1691 22.1701 27.1102 16.0001 27.1102ZM15.987 18.3611C16.6144 18.3611 16.9804 18.0081 16.9935 17.3284L17.1765 10.4264C17.1896 9.75975 16.6667 9.26302 15.9739 9.26302C15.268 9.26302 14.7713 9.74668 14.7844 10.4133L14.9543 17.3284C14.9674 17.995 15.3334 18.3611 15.987 18.3611ZM15.987 22.6122C16.7452 22.6122 17.3988 22.0109 17.3988 21.2527C17.3988 20.4815 16.7583 19.8932 15.987 19.8932C15.2158 19.8932 14.5753 20.4945 14.5753 21.2527C14.5753 21.9978 15.2289 22.6122 15.987 22.6122Z" fill="#7B8E98"/>
</svg>
