<svg width="48" height="48" viewBox="0 0 48 48" fill="none" xmlns="http://www.w3.org/2000/svg">
<rect width="48" height="48" rx="8" fill="#ECEFF1"/>
<path d="M30.875 14.7031H17.125C15.4018 14.7031 14 16.1049 14 17.8281V28.7656C14 30.4888 15.4018 31.8906 17.125 31.8906H24.5469C24.8449 31.8906 25.1169 31.7211 25.2483 31.4535C25.3795 31.186 25.3472 30.8669 25.1647 30.6313L23.1212 27.9903L28.785 20.7862L32.4375 25.1435V26.4609C32.4375 26.8925 32.7872 27.2422 33.2188 27.2422C33.6503 27.2422 34 26.8925 34 26.4609V17.8281C34 16.1049 32.5982 14.7031 30.875 14.7031V14.7031ZM29.3644 19.045C29.2132 18.8647 28.989 18.7617 28.7534 18.7658C28.518 18.7694 28.2969 18.879 28.1515 19.0641L22.1352 26.7162L20.0866 24.0688C19.9386 23.8775 19.7104 23.7656 19.4688 23.7656C19.4684 23.7656 19.468 23.7656 19.4677 23.7656C19.2255 23.7659 18.9971 23.8785 18.8495 24.0705L17.1302 26.3056C16.8671 26.6477 16.9311 27.1381 17.273 27.4012C17.6151 27.6644 18.1055 27.6003 18.3686 27.2584L19.4706 25.8259L22.9545 30.3281H17.125C16.2635 30.3281 15.5625 29.6271 15.5625 28.7656V17.8281C15.5625 16.9666 16.2635 16.2656 17.125 16.2656H30.875C31.7365 16.2656 32.4375 16.9666 32.4375 17.8281V22.7112L29.3644 19.045ZM19.4688 17.5156C18.1763 17.5156 17.125 18.567 17.125 19.8594C17.125 21.1518 18.1763 22.2031 19.4688 22.2031C20.7612 22.2031 21.8125 21.1518 21.8125 19.8594C21.8125 18.567 20.7612 17.5156 19.4688 17.5156ZM19.4688 20.6406C19.038 20.6406 18.6875 20.2901 18.6875 19.8594C18.6875 19.4286 19.038 19.0781 19.4688 19.0781C19.8995 19.0781 20.25 19.4286 20.25 19.8594C20.25 20.2901 19.8995 20.6406 19.4688 20.6406ZM34 29.5859C34 30.0175 33.6503 30.3672 33.2188 30.3672H31.0703V32.5156C31.0703 32.9471 30.7206 33.2969 30.2891 33.2969C29.8575 33.2969 29.5078 32.9471 29.5078 32.5156V30.3672H27.3594C26.9279 30.3672 26.5781 30.0175 26.5781 29.5859C26.5781 29.1544 26.9279 28.8047 27.3594 28.8047H29.5078V26.6562C29.5078 26.2247 29.8575 25.875 30.2891 25.875C30.7206 25.875 31.0703 26.2247 31.0703 26.6562V28.8047H33.2188C33.6503 28.8047 34 29.1544 34 29.5859Z" fill="#1A1A1A"/>
</svg>
