<svg width="16" height="16" viewBox="0 0 16 16" fill="none" xmlns="http://www.w3.org/2000/svg">
<path fill-rule="evenodd" clip-rule="evenodd" d="M8.52369 14.5186L13.4548 11.7917C14.032 11.4677 14.3332 11.1498 14.3332 10.2754V5.43307C14.3332 4.7972 14.0948 4.4059 13.5678 4.10631L9.12597 1.64844C8.36685 1.22656 7.63282 1.22656 6.8737 1.64844L2.43817 4.10631C1.90491 4.4059 1.6665 4.7972 1.6665 5.43307V10.2754C1.6665 11.1498 1.97392 11.4677 2.54483 11.7917L7.48225 14.5186C7.83358 14.7143 8.16609 14.7143 8.52369 14.5186ZM10.9516 5.86717L6.08947 3.18919L7.29403 2.52275C7.7771 2.25373 8.22254 2.24762 8.71189 2.52275L12.8463 4.82166L10.9516 5.86717ZM8.00297 7.49354L3.15964 4.82168L5.09823 3.73948L9.94155 6.42357L8.00297 7.49354ZM7.50735 13.4242L3.10946 10.9847C2.74558 10.7829 2.62011 10.5811 2.62011 10.2449V5.62871L7.50735 8.34948V13.4242ZM8.49231 13.4242V8.34948L13.3796 5.62871V10.2449C13.3796 10.5811 13.2541 10.7829 12.8965 10.9847L8.49231 13.4242Z" fill="#7B8E98"/>
</svg>
