<svg width="16" height="16" viewBox="0 0 16 16" fill="none" xmlns="http://www.w3.org/2000/svg">
<path fill-rule="evenodd" clip-rule="evenodd" d="M12.5728 14C13.9711 14 14.6668 13.2737 14.6668 11.835V4.16497C14.6668 2.72631 13.9711 2 12.5728 2H3.43418C2.03595 2 1.3335 2.71933 1.3335 4.16497V11.835C1.3335 13.2807 2.03595 14 3.43418 14H12.5728ZM12.6598 12.8756H3.33381C2.73839 12.8756 2.41058 12.5474 2.41058 11.8979V5.31216C2.41058 4.66965 2.73839 4.33443 3.33381 4.33443H12.6598C13.2552 4.33443 13.5897 4.66965 13.5897 5.31216V11.8979C13.5897 12.5474 13.2552 12.8756 12.6598 12.8756ZM7.08699 6.84164C7.32115 6.84164 7.40143 6.7718 7.40143 6.52737V6.11532C7.40143 5.87089 7.32115 5.79407 7.08699 5.79407H6.69228C6.45812 5.79407 6.37784 5.87089 6.37784 6.11532V6.52737C6.37784 6.7718 6.45812 6.84164 6.69228 6.84164H7.08699ZM9.30806 6.84164C9.54222 6.84164 9.6225 6.7718 9.6225 6.52737V6.11532C9.6225 5.87089 9.54222 5.79407 9.30806 5.79407H8.92004C8.6792 5.79407 8.60561 5.87089 8.60561 6.11532V6.52737C8.60561 6.7718 8.6792 6.84164 8.92004 6.84164H9.30806ZM11.5359 6.84164C11.7701 6.84164 11.8436 6.7718 11.8436 6.52737V6.11532C11.8436 5.87089 11.7701 5.79407 11.5359 5.79407H11.1412C10.907 5.79407 10.8268 5.87089 10.8268 6.11532V6.52737C10.8268 6.7718 10.907 6.84164 11.1412 6.84164H11.5359ZM4.86585 9.12533C5.1 9.12533 5.17359 9.05549 5.17359 8.81106V8.39902C5.17359 8.15458 5.1 8.08475 4.86585 8.08475H4.47113C4.23698 8.08475 4.1567 8.15458 4.1567 8.39902V8.81106C4.1567 9.05549 4.23698 9.12533 4.47113 9.12533H4.86585ZM7.08699 9.12533C7.32115 9.12533 7.40143 9.05549 7.40143 8.81106V8.39902C7.40143 8.15458 7.32115 8.08475 7.08699 8.08475H6.69228C6.45812 8.08475 6.37784 8.15458 6.37784 8.39902V8.81106C6.37784 9.05549 6.45812 9.12533 6.69228 9.12533H7.08699ZM9.30806 9.12533C9.54222 9.12533 9.6225 9.05549 9.6225 8.81106V8.39902C9.6225 8.15458 9.54222 8.08475 9.30806 8.08475H8.92004C8.6792 8.08475 8.60561 8.15458 8.60561 8.39902V8.81106C8.60561 9.05549 8.6792 9.12533 8.92004 9.12533H9.30806ZM11.5359 9.12533C11.7701 9.12533 11.8436 9.05549 11.8436 8.81106V8.39902C11.8436 8.15458 11.7701 8.08475 11.5359 8.08475H11.1412C10.907 8.08475 10.8268 8.15458 10.8268 8.39902V8.81106C10.8268 9.05549 10.907 9.12533 11.1412 9.12533H11.5359ZM4.86585 11.416C5.1 11.416 5.17359 11.3392 5.17359 11.0948V10.6827C5.17359 10.4383 5.1 10.3684 4.86585 10.3684H4.47113C4.23698 10.3684 4.1567 10.4383 4.1567 10.6827V11.0948C4.1567 11.3392 4.23698 11.416 4.47113 11.416H4.86585ZM7.08699 11.416C7.32115 11.416 7.40143 11.3392 7.40143 11.0948V10.6827C7.40143 10.4383 7.32115 10.3684 7.08699 10.3684H6.69228C6.45812 10.3684 6.37784 10.4383 6.37784 10.6827V11.0948C6.37784 11.3392 6.45812 11.416 6.69228 11.416H7.08699ZM9.30806 11.416C9.54222 11.416 9.6225 11.3392 9.6225 11.0948V10.6827C9.6225 10.4383 9.54222 10.3684 9.30806 10.3684H8.92004C8.6792 10.3684 8.60561 10.4383 8.60561 10.6827V11.0948C8.60561 11.3392 8.6792 11.416 8.92004 11.416H9.30806Z" fill="#7B8E98"/>
</svg>
