<svg width="32" height="32" viewBox="0 0 32 32" fill="none" xmlns="http://www.w3.org/2000/svg">
<path fill-rule="evenodd" clip-rule="evenodd" d="M21.8923 28C22.7393 28 23.2111 27.3958 23.2111 26.4654V23.3238H23.7919C27.3974 23.3238 29.3333 21.3422 29.3333 17.7898V9.53407C29.3333 5.98163 27.3974 4 23.7919 4H8.2081C4.60253 4 2.66666 5.99372 2.66666 9.53407V17.7898C2.66666 21.3301 4.60253 23.3238 8.2081 23.3238H15.9758L20.15 27.0334C20.8881 27.6858 21.2994 28 21.8923 28ZM21.3962 25.7887L17.5245 21.9463C17.0647 21.475 16.7259 21.3784 16.0484 21.3784H8.20809C5.77615 21.3784 4.61462 20.1338 4.61462 17.7776V9.534C4.61462 7.17779 5.77615 5.94531 8.20809 5.94531H23.7919C26.2359 5.94531 27.3853 7.17779 27.3853 9.534V17.7776C27.3853 20.1338 26.2359 21.3784 23.7919 21.3784H22.3037C21.6503 21.3784 21.3962 21.6321 21.3962 22.2846V25.7887Z" fill="#7B8E98"/>
</svg>
