<svg width="24" height="24" viewBox="0 0 24 24" fill="none" xmlns="http://www.w3.org/2000/svg">
<path fill-rule="evenodd" clip-rule="evenodd" d="M17.5167 22C19.4602 22 20.5193 20.9924 20.5193 19.0687V14.0712C21.4756 13.888 22 13.1552 22 12.0865V9.52163C22 8.2799 21.3111 7.49618 20.0463 7.49618H17.8663C18.4422 6.93639 18.7815 6.20356 18.7815 5.37913C18.7815 3.40458 17.1979 2 15.2134 2C13.7429 2 12.5296 2.80407 11.9949 4.23919C11.4602 2.80407 10.2571 2 8.78663 2C6.79177 2 5.21851 3.40458 5.21851 5.37913C5.21851 6.20356 5.54756 6.93639 6.12339 7.49618H3.95373C2.75064 7.49618 2 8.2799 2 9.52163V12.0865C2 13.1552 2.51414 13.888 3.47044 14.0712V19.0687C3.47044 20.9924 4.53985 22 6.48329 22H17.5167ZM11.1516 7.49435H9.55776C7.8611 7.49435 6.95622 6.50708 6.95622 5.44855C6.95622 4.34932 7.78912 3.69792 8.88938 3.69792C10.1542 3.69792 11.1516 4.66484 11.1516 6.28316V7.49435ZM14.4422 7.49435H12.8381V6.28316C12.8381 4.66484 13.8458 3.69792 15.1105 3.69792C16.2108 3.69792 17.0334 4.34932 17.0334 5.44855C17.0334 6.50708 16.108 7.49435 14.4422 7.49435ZM11.09 12.5732H4.37539C3.86125 12.5732 3.6556 12.3595 3.6556 11.8506V9.74372C3.6556 9.23481 3.86125 9.03125 4.37539 9.03125H11.09V12.5732ZM19.6349 12.5732H12.91V9.03125H19.6349C20.1491 9.03125 20.3444 9.23481 20.3444 9.74372V11.8506C20.3444 12.3595 20.1491 12.5732 19.6349 12.5732ZM11.09 20.4707H6.46274C5.60927 20.4707 5.12598 19.9923 5.12598 19.1475V14.1094H11.09V20.4707ZM17.527 20.4707H12.91V14.1094H18.8637V19.1475C18.8637 19.9923 18.3804 20.4707 17.527 20.4707Z" fill="#7B8E98"/>
</svg>
