<svg width="16" height="16" viewBox="0 0 16 16" fill="none" xmlns="http://www.w3.org/2000/svg">
<path d="M0.666626 7.39808C0.666626 7.65 0.863247 7.88963 1.19504 7.88963C1.36709 7.88963 1.50841 7.79747 1.63744 7.69301L2.43621 7.01713V12.8789C2.43621 13.7391 2.9462 14.2368 3.82484 14.2368H12.1382C13.0107 14.2368 13.5207 13.7391 13.5207 12.8789V6.97412L14.3748 7.69301C14.4977 7.79747 14.639 7.88963 14.811 7.88963C15.0998 7.88963 15.3333 7.71145 15.3333 7.41652C15.3333 7.23218 15.2718 7.1093 15.1428 6.9987C13.0112 5.2062 10.8671 3.42768 8.7465 1.62235C8.29182 1.23526 7.72653 1.23526 7.2657 1.62235L0.863247 6.9987C0.72807 7.1093 0.666626 7.25676 0.666626 7.39808ZM4.03375 13.2475C3.64051 13.2475 3.42546 13.0263 3.42546 12.627V6.18764L7.78798 2.53172C7.92315 2.40884 8.08905 2.40884 8.22423 2.53172L12.5315 6.14463V12.627C12.5315 13.0263 12.3164 13.2475 11.9293 13.2475C9.01718 13.2475 6.99014 13.2475 4.03375 13.2475Z" fill="#7B8E98"/>
</svg>
