<svg width="25" height="24" viewBox="0 0 25 24" fill="none" xmlns="http://www.w3.org/2000/svg">
<path fill-rule="evenodd" clip-rule="evenodd" d="M12.5 19C13.0269 19 13.4534 18.5723 13.4534 18.087V12.9377H18.555C19.0651 12.9377 19.5 12.5182 19.5 12C19.5 11.49 19.0651 11.0623 18.555 11.0623H13.4534V5.91304C13.4534 5.41951 13.0269 5 12.5 5C11.9815 5 11.5466 5.41951 11.5466 5.91304V11.0623H6.44504C5.95161 11.0623 5.5 11.49 5.5 12C5.5 12.5182 5.95161 12.9377 6.44504 12.9377H11.5466V18.087C11.5466 18.5723 11.9815 19 12.5 19Z" fill="#7B8E98"/>
</svg>
