<svg width="32" height="32" viewBox="0 0 32 32" fill="none" xmlns="http://www.w3.org/2000/svg">
<path d="M15.3336 15.502C15.1058 15.502 14.8871 15.4114 14.726 15.2502L12.4057 12.9299C12.07 12.5945 12.07 12.0502 12.4057 11.7147C12.7412 11.379 13.2854 11.379 13.6209 11.7147L15.3336 13.4272L18.45 10.3108C18.7854 9.97538 19.3297 9.97538 19.6652 10.3108C20.0009 10.6465 20.0009 11.1906 19.6652 11.5263L15.9412 15.2502C15.7801 15.4114 15.5614 15.502 15.3336 15.502Z" fill="#7B8E98"/>
<path fill-rule="evenodd" clip-rule="evenodd" d="M16.0353 5.25081C11.8835 5.25081 8.50549 8.62856 8.50549 12.7806C8.50549 16.9327 11.8835 20.3105 16.0353 20.3105C20.1874 20.3105 23.5654 16.9327 23.5654 12.7806C23.5654 8.62856 20.1874 5.25081 16.0353 5.25081ZM16.0353 18.5917C12.8312 18.5917 10.2242 15.9849 10.2242 12.7806C10.2242 9.57633 12.8312 6.96956 16.0353 6.96956C19.2396 6.96956 21.8466 9.57633 21.8466 12.7806C21.8466 15.9849 19.2396 18.5917 16.0353 18.5917Z" fill="#7B8E98"/>
<path fill-rule="evenodd" clip-rule="evenodd" d="M27.3089 14.7683C27.4291 14.0878 27.3226 13.3897 27.0162 12.7806C27.3226 12.1714 27.4289 11.4734 27.3089 10.7926C27.189 10.112 26.8504 9.49258 26.354 9.02485C26.4337 8.34764 26.2949 7.65544 25.9492 7.05679C25.6036 6.45814 25.0734 5.99175 24.4473 5.72208C24.2904 5.05853 23.9234 4.45562 23.3939 4.01116C22.8641 3.56693 22.2066 3.31001 21.5258 3.27085C21.1514 2.70084 20.6002 2.25974 19.9505 2.02342C19.3011 1.78709 18.5952 1.77053 17.9422 1.96657C17.3955 1.55904 16.7266 1.33301 16.0353 1.33301C15.3442 1.33301 14.6752 1.55904 14.1285 1.96657C13.4755 1.77053 12.7696 1.78709 12.12 2.02342C11.4705 2.25997 10.9193 2.70107 10.5449 3.27085C9.8641 3.31024 9.20637 3.56693 8.67687 4.01116C8.14737 4.45562 7.78034 5.05853 7.62346 5.7223C6.99706 5.99197 6.46711 6.45814 6.12135 7.05679C5.77581 7.65544 5.63706 8.34764 5.71673 9.02485C5.22035 9.49258 4.88175 10.112 4.76179 10.7926C4.64162 11.4734 4.74814 12.1714 5.05452 12.7806C4.74814 13.3897 4.64162 14.0878 4.76179 14.7683C4.88175 15.4491 5.22035 16.0686 5.71673 16.5363C5.63706 17.2135 5.77581 17.9057 6.12135 18.5044C6.46711 19.103 6.99728 19.5692 7.62346 19.8389C7.72999 20.2898 7.93387 20.7128 8.21965 21.0769L5.70196 26.3459C5.55985 26.6431 5.60035 26.9954 5.8058 27.253C6.01147 27.5103 6.34604 27.6276 6.66741 27.5546L10.4598 26.6946L12.1732 30.1856C12.3176 30.4799 12.617 30.6663 12.9446 30.6663H12.9491C13.2785 30.6647 13.578 30.4747 13.7201 30.1775L16.0353 25.3323L18.3506 30.1775C18.4925 30.4747 18.792 30.6645 19.1214 30.6663H19.1261C19.4535 30.6663 19.7529 30.4799 19.8975 30.1856L21.6109 26.6946L25.4031 27.5546C25.7245 27.6276 26.059 27.5103 26.2647 27.253C26.4704 26.9954 26.5107 26.6431 26.3685 26.3459L23.8508 21.0769C24.1366 20.7128 24.3405 20.2898 24.447 19.8389C25.0734 19.5692 25.6036 19.103 25.9492 18.5044C26.2947 17.9057 26.4334 17.2135 26.354 16.5363C26.8502 16.0686 27.189 15.4491 27.3089 14.7683ZM25.3266 13.3094C25.583 13.6377 25.6884 14.0607 25.6164 14.47C25.5441 14.8793 25.3001 15.2405 24.9472 15.4614C24.6129 15.6704 24.4636 16.0802 24.5853 16.4553C24.714 16.8514 24.6686 17.2849 24.4607 17.645C24.253 18.0049 23.9001 18.2611 23.4928 18.3477C23.1072 18.4298 22.8268 18.764 22.8129 19.1581C22.7981 19.5741 22.6072 19.966 22.2888 20.2332C21.9703 20.5004 21.5514 20.6206 21.1389 20.5626C20.7484 20.5076 20.3706 20.726 20.2229 21.0914C20.0669 21.4775 19.7534 21.7805 19.3626 21.9226C18.9721 22.0647 18.5373 22.0343 18.1696 21.8389C17.8211 21.6538 17.3917 21.7295 17.1278 22.0226C16.8492 22.3319 16.4508 22.5094 16.0353 22.5094C15.6197 22.5094 15.2213 22.3319 14.9427 22.0226C14.7753 21.8367 14.5414 21.7384 14.304 21.7384C14.1668 21.7384 14.0285 21.7711 13.9009 21.8389C13.5334 22.0343 13.0984 22.0647 12.7079 21.9226C12.3173 21.7805 12.0038 21.4775 11.8476 21.0914C11.6999 20.726 11.3223 20.508 10.9316 20.5626C10.5191 20.6203 10.1002 20.5004 9.78174 20.2332C9.46328 19.966 9.27239 19.5741 9.25761 19.1581C9.24374 18.764 8.96355 18.4298 8.57773 18.3477C8.17064 18.2611 7.81772 18.0049 7.60981 17.645C7.40213 17.2849 7.3567 16.8514 7.48516 16.4553C7.6069 16.0802 7.45763 15.6704 7.12328 15.4614C6.77036 15.2405 6.52642 14.8793 6.45436 14.47C6.38207 14.0607 6.4877 13.6377 6.74395 13.3094C6.98654 12.9986 6.98654 12.5626 6.74395 12.2517C6.4877 11.9234 6.38207 11.5005 6.45436 11.0911C6.52642 10.6818 6.77036 10.3204 7.12328 10.0997C7.45763 9.89071 7.6069 9.48094 7.48516 9.10586C7.3567 8.70974 7.40213 8.27625 7.60981 7.91617C7.81772 7.5563 8.17042 7.30006 8.57773 7.21345C8.96332 7.13132 9.24374 6.79719 9.25761 6.40309C9.27239 5.98705 9.46328 5.59519 9.78174 5.32797C10.1 5.06076 10.5191 4.94081 10.9316 4.99855C11.3221 5.0536 11.6997 4.83518 11.8476 4.4695C12.0038 4.08367 12.3173 3.78066 12.7079 3.63855C13.0984 3.49621 13.5332 3.52687 13.9009 3.72224C14.2491 3.9071 14.6788 3.83146 14.9427 3.53851C15.2215 3.22922 15.6197 3.05175 16.0353 3.05175C16.4511 3.05175 16.8492 3.22922 17.1278 3.53851C17.3919 3.83146 17.8214 3.90732 18.1696 3.72224C18.5373 3.52687 18.9723 3.49644 19.3629 3.63855C19.7534 3.78066 20.0669 4.08367 20.2229 4.46972C20.3708 4.83518 20.7486 5.05338 21.1391 4.99855C21.5514 4.94081 21.9705 5.06076 22.289 5.32797C22.6072 5.59519 22.7983 5.98705 22.8129 6.40309C22.827 6.79741 23.1072 7.13132 23.493 7.21345C23.9001 7.30006 24.253 7.5563 24.4607 7.91617C24.6686 8.27625 24.714 8.70974 24.5856 9.10586C24.4638 9.48094 24.6129 9.89071 24.9472 10.0997C25.3004 10.3206 25.5443 10.682 25.6164 11.0911C25.6887 11.5005 25.583 11.9234 25.3268 12.2517C25.084 12.5626 25.084 12.9986 25.3266 13.3094ZM21.3287 24.8682C20.9404 24.7802 20.5425 24.9702 20.367 25.3277L19.1364 27.8355L17.2894 23.9703C17.5204 23.8714 17.7397 23.7456 17.9422 23.5946C18.5952 23.7906 19.3011 23.7741 19.9508 23.5377C20.6002 23.3014 21.1514 22.8601 21.5258 22.2903C21.8376 22.2724 22.144 22.2082 22.4358 22.1021L24.0529 25.4861L21.3287 24.8682ZM11.7037 25.3277C11.5569 25.0289 11.2545 24.8469 10.9325 24.8469C10.8694 24.8469 10.8056 24.8539 10.742 24.8682L8.01779 25.4859L9.63493 22.1019C9.92676 22.2082 10.2334 22.2722 10.5449 22.2903C10.9193 22.8601 11.4705 23.3012 12.12 23.5375C12.7696 23.7741 13.4755 23.7904 14.1285 23.5946C14.3311 23.7454 14.5504 23.8714 14.7813 23.9701L12.9343 27.8353L11.7037 25.3277Z" fill="#7B8E98"/>
</svg>
