<svg width="40" height="40" viewBox="0 0 40 40" fill="none" xmlns="http://www.w3.org/2000/svg">
<path fill-rule="evenodd" clip-rule="evenodd" d="M12.8442 35C13.702 35 14.334 34.5798 15.3724 33.6643L20.5342 29.1319H29.5936C34.1233 29.1319 36.6666 26.5205 36.6666 22.0632V12.0687C36.6666 7.61137 34.1233 5 29.5936 5H10.4062C5.89157 5 3.33325 7.61137 3.33325 12.0687V22.0632C3.33325 26.5355 5.96681 29.1319 10.3009 29.1319H10.9179V32.8088C10.9179 34.1446 11.6252 35 12.8442 35ZM13.5967 31.638V27.3607C13.5967 26.4752 13.2055 26.1301 12.3627 26.1301H10.5117C7.68253 26.1301 6.32812 24.7043 6.32812 21.9729V12.1585C6.32812 9.42705 7.68253 8.0013 10.5117 8.0013H29.5034C32.3176 8.0013 33.672 9.42705 33.672 12.1585V21.9729C33.672 24.7043 32.3176 26.1301 29.5034 26.1301H20.3688C19.4508 26.1301 18.9993 26.2801 18.3673 26.9405L13.5967 31.638ZM14.9361 21.4306C16.5012 21.4306 19.3906 19.5696 19.3906 16.0277C19.3906 13.9867 18.0813 12.3958 16.0949 12.3958C14.304 12.3958 12.9647 13.6565 12.9647 15.4274C12.9647 17.1233 14.0332 18.414 15.6885 18.414C16.3356 18.414 16.9526 18.2789 17.3439 17.8137H17.5245C17.0429 18.9543 15.9594 19.7497 14.8608 20.0198C14.3492 20.1399 14.1836 20.395 14.1836 20.7402C14.1836 21.1454 14.4997 21.4306 14.9361 21.4306ZM22.8519 21.4306C24.417 21.4306 27.3064 19.5696 27.3064 16.0277C27.3064 13.9867 25.9972 12.3958 24.0107 12.3958C22.2199 12.3958 20.8805 13.6565 20.8805 15.4274C20.8805 17.1233 21.949 18.414 23.6044 18.414C24.2665 18.414 24.8835 18.2789 25.2748 17.8137H25.4404C24.9588 18.9543 23.8753 19.7497 22.7767 20.0198C22.2801 20.1399 22.0995 20.395 22.0995 20.7402C22.0995 21.1454 22.4155 21.4306 22.8519 21.4306Z" fill="#7B8E98"/>
</svg>
