<svg width="16" height="16" viewBox="0 0 16 16" fill="none" xmlns="http://www.w3.org/2000/svg">
<path fill-rule="evenodd" clip-rule="evenodd" d="M12.2861 1.33203C13.056 1.33203 13.8163 1.88659 14.0785 2.62879L14.1125 2.73605L14.6615 5.35183L14.6667 5.42766V6.66881C14.6667 7.32755 14.3101 7.92041 13.7592 8.23192L13.6462 8.29008L13.6463 13.0821C13.6463 13.8834 13.0551 14.5481 12.2902 14.6514L12.1848 14.662L12.0821 14.6654H3.91813C3.08948 14.6654 2.41024 14.0105 2.35723 13.186L2.3539 13.0821L2.35386 8.29008L2.34648 8.28699C1.8078 8.02872 1.43098 7.51132 1.34977 6.91233L1.33751 6.7915L1.33337 6.66881V5.42766C1.33337 5.3938 1.33649 5.36005 1.34187 5.32999L1.89018 2.72535C2.10136 1.97633 2.83625 1.38773 3.60412 1.33576L3.71398 1.33203H12.2861ZM11.6736 7.95709L11.619 8.00998C11.3003 8.29559 10.8875 8.45906 10.4492 8.45906C10.0109 8.45906 9.59817 8.29559 9.27939 8.00998L9.22413 7.95709L9.1699 8.00998C8.88299 8.26703 8.51997 8.42515 8.13072 8.4542L8.00007 8.45906C7.56178 8.45906 7.14903 8.29559 6.83024 8.00998L6.77535 7.95709L6.72075 8.00998C6.43383 8.26702 6.07075 8.42514 5.68148 8.4542L5.55082 8.45906C5.11256 8.45906 4.69989 8.29562 4.38105 8.01001L4.32592 7.95709L4.26258 8.01789C4.06104 8.19596 3.82195 8.32612 3.56245 8.39712L3.44072 8.42538L3.44133 13.0821C3.44133 13.3278 3.62158 13.531 3.85367 13.5632L3.91816 13.5676H12.0821C12.3225 13.5676 12.5228 13.3849 12.5545 13.1479L12.5588 13.0821L12.5588 8.42538L12.4377 8.39713C12.1782 8.32613 11.9391 8.19598 11.7375 8.01791L11.6736 7.95709ZM6.23157 5.97594H4.86962L4.8699 6.66882C4.8699 7.0255 5.13655 7.31958 5.47681 7.35721L5.55078 7.36128C5.90064 7.36128 6.19063 7.09099 6.22774 6.74422L6.23175 6.66882L6.23157 5.97594ZM8.68037 5.97594H7.31907L7.31917 6.66882C7.31917 7.0255 7.58582 7.31958 7.92608 7.35721L8.00005 7.36128C8.34983 7.36128 8.6398 7.09097 8.67691 6.74422L8.68092 6.66882L8.68037 5.97594ZM11.1298 5.97594H9.76788L9.76835 6.66882C9.76835 7.0255 10.035 7.31958 10.3753 7.35721L10.4492 7.36128C10.7991 7.36128 11.089 7.09101 11.1261 6.74423L11.1301 6.66882L11.1298 5.97594ZM3.78219 5.97594H2.42024L2.42081 6.66882C2.42081 7.0255 2.68746 7.31958 3.02772 7.35721L3.10169 7.36128C3.45153 7.36128 3.74145 7.09101 3.77855 6.74423L3.78256 6.66882L3.78219 5.97594ZM13.5792 5.97594H12.2173L12.2175 6.66892C12.2175 7.02556 12.4841 7.31959 12.8244 7.35721L12.8984 7.36128C13.2482 7.36128 13.5382 7.09099 13.5753 6.74431L13.5793 6.66892L13.5792 5.97594ZM12.2861 2.42982H3.71394C3.42098 2.42982 3.08072 2.67279 2.96367 2.94422L2.93922 3.01255L2.57886 4.87872H13.4205L13.0639 3.02586C12.9831 2.73892 12.6591 2.47385 12.3601 2.43477L12.2861 2.42982Z" fill="#7B8E98"/>
</svg>
