<svg width="16" height="16" viewBox="0 0 16 16" fill="none" xmlns="http://www.w3.org/2000/svg">
<path fill-rule="evenodd" clip-rule="evenodd" d="M14.5816 7.67771L12.5471 4.55007C12.4508 4.40209 12.2871 4.31296 12.1115 4.31296H9.58061V3.1929C9.58061 2.90298 9.34743 2.66797 9.05977 2.66797H1.85433C1.56667 2.66797 1.3335 2.90298 1.3335 3.1929V11.7598C1.3335 12.0498 1.56667 12.2848 1.85433 12.2848H3.50641C3.72141 12.8957 4.30035 13.3346 4.97933 13.3346C5.65831 13.3346 6.23722 12.8957 6.45225 12.2848H10.13C10.345 12.8957 10.924 13.3346 11.6029 13.3346C12.2819 13.3346 12.8608 12.8957 13.0759 12.2848H14.146C14.4337 12.2848 14.6668 12.0498 14.6668 11.7598V7.96553C14.6668 7.86327 14.6372 7.76322 14.5816 7.67771ZM4.97933 12.2848C4.69214 12.2848 4.4585 12.0493 4.4585 11.7598C4.4585 11.4704 4.69214 11.2349 4.97933 11.2349C5.26652 11.2349 5.50016 11.4704 5.50016 11.7598C5.50016 12.0493 5.26652 12.2848 4.97933 12.2848ZM8.53894 11.2349H6.45222C6.23722 10.6239 5.65829 10.185 4.9793 10.185C4.30032 10.185 3.72141 10.6239 3.50639 11.2349H2.37516V3.71783H8.53894V11.2349ZM11.6029 12.2848C11.3157 12.2848 11.0821 12.0493 11.0821 11.7598C11.0821 11.4704 11.3157 11.2349 11.6029 11.2349C11.8901 11.2349 12.1237 11.4704 12.1237 11.7598C12.1237 12.0493 11.8901 12.2848 11.6029 12.2848ZM13.6252 11.2349H13.0758C12.8608 10.6239 12.2819 10.185 11.6029 10.185C10.9239 10.185 10.345 10.6239 10.13 11.2349H9.58059V5.36284H11.8302L13.6252 8.12229V11.2349Z" fill="#7B8E98"/>
</svg>
