<svg width="16" height="16" viewBox="0 0 16 16" fill="none" xmlns="http://www.w3.org/2000/svg">
<path fill-rule="evenodd" clip-rule="evenodd" d="M8.00016 14.6654C11.6472 14.6654 14.6668 11.6458 14.6668 7.9987C14.6668 4.35818 11.6407 1.33203 7.99363 1.33203C4.3531 1.33203 1.3335 4.35818 1.3335 7.9987C1.3335 11.6458 4.35964 14.6654 8.00016 14.6654ZM8.00015 13.5543C4.91518 13.5543 2.45113 11.0837 2.45113 7.99871C2.45113 4.92028 4.90864 2.44316 7.99361 2.44316C11.0786 2.44316 13.5492 4.92028 13.5557 7.99871C13.5622 11.0837 11.0851 13.5543 8.00015 13.5543ZM7.99363 8.70457C8.24853 8.70457 8.45114 8.50849 8.45114 8.24706V3.84183C8.45114 3.58693 8.24853 3.39085 7.99363 3.39085C7.73872 3.39085 7.54264 3.58693 7.54264 3.84183V7.79608H4.58186C4.32042 7.79608 4.12434 7.99216 4.12434 8.24706C4.12434 8.50849 4.32042 8.70457 4.58186 8.70457H7.99363Z" fill="#7B8E98"/>
</svg>
