<svg width="20" height="20" viewBox="0 0 20 20" fill="none" xmlns="http://www.w3.org/2000/svg">
<path fill-rule="evenodd" clip-rule="evenodd" d="M13.5563 18.3346C14.6643 18.3346 15.4081 17.6386 15.4623 16.5684L15.9969 5.68683H16.9267C17.2443 5.68683 17.5 5.42489 17.5 5.11805C17.5 4.81121 17.2443 4.55676 16.9267 4.55676H13.3858V3.43417C13.3858 2.35649 12.6343 1.66797 11.4411 1.66797H8.54339C7.35021 1.66797 6.6064 2.35649 6.6064 3.43417V4.55676H3.07335C2.76343 4.55676 2.5 4.81869 2.5 5.11805C2.5 5.42489 2.76343 5.68683 3.07335 5.68683H4.01085L4.54545 16.5759C4.59969 17.6461 5.328 18.3346 6.45145 18.3346H13.5563ZM12.1539 4.55676H7.84608V3.50901C7.84608 3.08243 8.16374 2.78307 8.63636 2.78307H11.3559C11.8285 2.78307 12.1539 3.08243 12.1539 3.50901V4.55676ZM13.4323 17.2046H6.55992C6.11829 17.2046 5.78512 16.8828 5.76188 16.4412L5.21953 5.68683H14.7572L14.2459 16.4412C14.2226 16.8902 13.8972 17.2046 13.4323 17.2046ZM12.3011 15.8949C12.5568 15.8949 12.7428 15.6928 12.7505 15.4084L12.9829 7.55781C12.9907 7.28091 12.797 7.07136 12.5336 7.07136C12.2934 7.07136 12.0919 7.28839 12.0842 7.55781L11.8517 15.401C11.844 15.6779 12.0377 15.8949 12.3011 15.8949ZM7.70661 15.8949C7.97004 15.8949 8.16374 15.6779 8.15599 15.401L7.91581 7.55781C7.90806 7.28839 7.70661 7.07136 7.46643 7.07136C7.203 7.07136 7.0093 7.28091 7.01705 7.55781L7.24949 15.4084C7.25723 15.6928 7.44318 15.8949 7.70661 15.8949ZM9.99999 15.8949C10.2557 15.8949 10.4726 15.6779 10.4726 15.4084V7.55781C10.4726 7.28839 10.2557 7.07136 9.99999 7.07136C9.75206 7.07136 9.53511 7.28839 9.53511 7.55781V15.4084C9.53511 15.6779 9.75206 15.8949 9.99999 15.8949Z" fill="#7B8E98"/>
</svg>
