<svg width="16" height="16" viewBox="0 0 16 16" fill="none" xmlns="http://www.w3.org/2000/svg">
<path fill-rule="evenodd" clip-rule="evenodd" d="M8.00004 14.6654C11.6471 14.6654 14.6667 11.6458 14.6667 7.9987C14.6667 4.35818 11.6406 1.33203 7.99351 1.33203C4.35298 1.33203 1.33337 4.35818 1.33337 7.9987C1.33337 11.6458 4.35952 14.6654 8.00004 14.6654ZM8.00004 13.5543C4.91507 13.5543 2.45102 11.0837 2.45102 7.9987C2.45102 4.92027 4.90854 2.44314 7.99351 2.44314C11.0785 2.44314 13.5491 4.92027 13.5556 7.9987C13.5621 11.0837 11.085 13.5543 8.00004 13.5543ZM7.99351 8.70458C8.24841 8.70458 8.45102 8.5085 8.45102 8.24706V3.84184C8.45102 3.58693 8.24841 3.39085 7.99351 3.39085C7.7386 3.39085 7.54252 3.58693 7.54252 3.84184V7.79608H4.58174C4.3203 7.79608 4.12422 7.99216 4.12422 8.24706C4.12422 8.5085 4.3203 8.70458 4.58174 8.70458H7.99351Z" fill="#7B8E98"/>
</svg>
