<svg width="16" height="16" viewBox="0 0 16 16" fill="none" xmlns="http://www.w3.org/2000/svg">
<path fill-rule="evenodd" clip-rule="evenodd" d="M14.5814 7.67771L12.547 4.55007C12.4507 4.40209 12.287 4.31296 12.1114 4.31296H9.58048V3.1929C9.58048 2.90298 9.34731 2.66797 9.05965 2.66797H1.85421C1.56655 2.66797 1.33337 2.90298 1.33337 3.1929V11.7598C1.33337 12.0498 1.56655 12.2848 1.85421 12.2848H3.50629C3.72129 12.8957 4.30022 13.3346 4.97921 13.3346C5.65819 13.3346 6.2371 12.8957 6.45212 12.2848H10.1299C10.3449 12.8957 10.9238 13.3346 11.6028 13.3346C12.2818 13.3346 12.8607 12.8957 13.0757 12.2848H14.1459C14.4335 12.2848 14.6667 12.0498 14.6667 11.7598V7.96553C14.6667 7.86327 14.6371 7.76322 14.5814 7.67771ZM4.97921 12.2848C4.69202 12.2848 4.45837 12.0493 4.45837 11.7598C4.45837 11.4704 4.69202 11.2349 4.97921 11.2349C5.26639 11.2349 5.50004 11.4704 5.50004 11.7598C5.50004 12.0493 5.26639 12.2848 4.97921 12.2848ZM8.53882 11.2349H6.4521C6.2371 10.6239 5.65817 10.185 4.97918 10.185C4.3002 10.185 3.72129 10.6239 3.50626 11.2349H2.37504V3.71784H8.53882V11.2349ZM11.6028 12.2848C11.3156 12.2848 11.082 12.0493 11.082 11.7598C11.082 11.4704 11.3156 11.2349 11.6028 11.2349C11.89 11.2349 12.1237 11.4704 12.1237 11.7598C12.1237 12.0493 11.89 12.2848 11.6028 12.2848ZM13.625 11.2349H13.0757C12.8607 10.6239 12.2818 10.185 11.6028 10.185C10.9238 10.185 10.3449 10.6239 10.1299 11.2349H9.58046V5.36282H11.83L13.625 8.12227V11.2349Z" fill="#7B8E98"/>
</svg>
