<svg width="32" height="32" viewBox="0 0 32 32" fill="none" xmlns="http://www.w3.org/2000/svg">
<path fill-rule="evenodd" clip-rule="evenodd" d="M29.1628 15.3525L25.0938 9.09721C24.9013 8.80125 24.5738 8.62298 24.2227 8.62298H19.1608V6.38288C19.1608 5.80303 18.6945 5.33301 18.1192 5.33301H3.70829C3.13298 5.33301 2.66663 5.80303 2.66663 6.38288V23.5167C2.66663 24.0966 3.13298 24.5666 3.70829 24.5666H7.01246C7.44246 25.7885 8.60032 26.6663 9.95829 26.6663C11.3163 26.6663 12.4741 25.7885 12.9041 24.5666H20.2597C20.6897 25.7885 21.8476 26.6663 23.2055 26.6663C24.5635 26.6663 25.7213 25.7885 26.1514 24.5666H28.2916C28.8669 24.5666 29.3333 24.0966 29.3333 23.5167V15.9281C29.3333 15.7236 29.274 15.5235 29.1628 15.3525ZM9.95833 24.5672C9.38396 24.5672 8.91667 24.0962 8.91667 23.5173C8.91667 22.9384 9.38396 22.4674 9.95833 22.4674C10.5327 22.4674 11 22.9384 11 23.5173C11 24.0962 10.5327 24.5672 9.95833 24.5672ZM17.0776 22.4677H12.9041C12.4741 21.2458 11.3163 20.368 9.95828 20.368C8.60031 20.368 7.4425 21.2458 7.01245 22.4677H4.75V7.43359H17.0776V22.4677ZM23.2056 24.5672C22.6312 24.5672 22.1639 24.0962 22.1639 23.5173C22.1639 22.9384 22.6312 22.4674 23.2056 22.4674C23.7799 22.4674 24.2472 22.9384 24.2472 23.5173C24.2472 24.0962 23.7799 24.5672 23.2056 24.5672ZM27.25 22.4668H26.1513C25.7213 21.2449 24.5635 20.3671 23.2055 20.3671C21.8475 20.3671 20.6897 21.2449 20.2597 22.4668H19.1608V10.7227H23.66L27.25 16.2416V22.4668Z" fill="#7B8E98"/>
</svg>
