<svg width="16" height="16" viewBox="0 0 16 16" fill="none" xmlns="http://www.w3.org/2000/svg">
<path fill-rule="evenodd" clip-rule="evenodd" d="M8.00399 8.0059C9.82044 8.0059 11.3011 6.47962 11.3011 4.62217C11.3011 2.77912 9.82807 1.33203 8.00399 1.33203C6.19518 1.33203 4.70691 2.80791 4.70691 4.63657C4.71454 6.48682 6.18755 8.0059 8.00399 8.0059ZM8.00396 6.9188C6.88967 6.9188 5.93565 5.91088 5.93565 4.63658C5.93565 3.38389 6.8744 2.41916 8.00396 2.41916C9.14115 2.41916 10.0723 3.36949 10.0723 4.62219C10.0723 5.89648 9.12588 6.9188 8.00396 6.9188ZM12.797 14.6654C14.0639 14.6654 14.6668 14.3054 14.6668 13.5135C14.6668 11.6272 12.1406 8.89864 8.00398 8.89864C3.85973 8.89864 1.3335 11.6272 1.3335 13.5135C1.3335 14.3054 1.93643 14.6654 3.20337 14.6654H12.797ZM13.1633 13.5782H2.84462C2.64619 13.5782 2.56224 13.5278 2.56224 13.3767C2.56224 12.196 4.5008 9.98573 8.00394 9.98573C11.4995 9.98573 13.438 12.196 13.438 13.3767C13.438 13.5278 13.3617 13.5782 13.1633 13.5782Z" fill="#7B8E98"/>
</svg>
