<svg width="36" height="24" viewBox="0 0 36 24" fill="none" xmlns="http://www.w3.org/2000/svg">
<path d="M22.1114 12.082C22.1114 18.1585 17.1626 23.082 11.0557 23.082C4.94887 23.082 0 18.1574 0 12.082C0 6.00667 4.95008 1.08203 11.0557 1.08203C17.1614 1.08203 22.1114 6.00667 22.1114 12.082Z" fill="#E2574C"/>
<path d="M24.1223 1.08203C21.6437 1.08203 19.3619 1.90375 17.5179 3.27548L17.5267 3.27657C17.8894 3.62523 18.2895 3.87062 18.598 4.27201L16.2985 4.30832C15.9381 4.67026 15.6098 5.06404 15.3002 5.47327H19.3552C19.6637 5.84172 19.9488 6.16191 20.2076 6.56885H14.5651C14.3583 6.92306 14.1671 7.28717 14.0002 7.66551H20.85C21.0291 8.04277 21.1894 8.32774 21.3254 8.72707H13.5945C13.4717 9.10662 13.3667 9.49486 13.2871 9.89081H21.6493C21.7311 10.2714 21.794 10.6234 21.8372 10.982H13.1212C13.0847 11.344 13.0659 11.7113 13.0659 12.0821H21.9001C21.9001 12.4715 21.8725 12.8323 21.8327 13.1821H13.1212C13.1588 13.555 13.2141 13.9213 13.2871 14.2822H21.6359C21.5497 14.6386 21.4502 14.9971 21.3253 15.3689H13.569C13.6861 15.7451 13.8288 16.1103 13.9846 16.4667H20.85C20.6599 16.8671 20.4443 17.1872 20.2066 17.5623H14.5453C14.7686 17.9473 15.0151 18.3146 15.2826 18.6667L19.3553 18.7271C19.0082 19.1418 18.5627 19.3915 18.1569 19.7545C18.1789 19.7721 17.5079 19.7523 16.1868 19.7315C18.1967 21.7951 21.0058 23.082 24.1222 23.082C30.228 23.082 35.1774 18.1573 35.1774 12.0821C35.1774 6.00689 30.2291 1.08203 24.1223 1.08203Z" fill="#F4B459"/>
</svg>
