<svg width="14" height="11" viewBox="0 0 14 11" fill="none" xmlns="http://www.w3.org/2000/svg">
<path fill-rule="evenodd" clip-rule="evenodd" d="M11.9519 10.332C13.0388 10.332 13.6668 9.72843 13.6668 8.53284V2.12541C13.6668 0.93563 13.0328 0.332031 11.7707 0.332031H2.04847C0.961515 0.332031 0.333496 0.929826 0.333496 2.12541V8.53284C0.333496 9.73424 0.967554 10.332 2.22963 10.332H11.9519ZM7.01227 5.98494C6.77072 5.98494 6.53521 5.87467 6.28159 5.62511L1.72241 1.30125C1.85526 1.24902 2.01227 1.22 2.19343 1.22H11.807C11.9942 1.22 12.1572 1.24902 12.29 1.31286L7.74294 5.62511C7.48328 5.87467 7.24778 5.98494 7.01227 5.98494ZM1.26341 8.63151C1.25737 8.60249 1.25737 8.56766 1.25737 8.53284V2.06737L4.72959 5.34073L1.26341 8.63151ZM12.7429 8.61409L9.29481 5.34073L12.7429 2.08478V8.61409ZM11.8069 9.44403H2.19339C2.0243 9.44403 1.87334 9.42082 1.75257 9.36858L5.36368 5.93852L5.75619 6.30996C6.17889 6.71043 6.58348 6.87874 7.01223 6.87874C7.43493 6.87874 7.84556 6.71043 8.26827 6.30996L8.66078 5.93852L12.2659 9.36278C12.133 9.42082 11.982 9.44403 11.8069 9.44403Z" fill="#7B8E98"/>
</svg>
