<svg width="20" height="20" viewBox="0 0 20 20" fill="none" xmlns="http://www.w3.org/2000/svg">
<path fill-rule="evenodd" clip-rule="evenodd" d="M9.99996 15.8337C10.439 15.8337 10.7945 15.4772 10.7945 15.0728V10.7818H15.0458C15.4709 10.7818 15.8333 10.4322 15.8333 10.0003C15.8333 9.57534 15.4709 9.21889 15.0458 9.21889H10.7945V4.92786C10.7945 4.51658 10.439 4.16699 9.99996 4.16699C9.56786 4.16699 9.20546 4.51658 9.20546 4.92786V9.21889H4.95416C4.54297 9.21889 4.16663 9.57534 4.16663 10.0003C4.16663 10.4322 4.54297 10.7818 4.95416 10.7818H9.20546V15.0728C9.20546 15.4772 9.56786 15.8337 9.99996 15.8337Z" fill="#1A1A1A"/>
</svg>
