<svg width="116" height="20" viewBox="0 0 116 20" fill="none" xmlns="http://www.w3.org/2000/svg">
<path fill-rule="evenodd" clip-rule="evenodd" d="M15.1385 17.7804C15.4462 17.5491 15.5137 17.1687 15.3261 16.6315L13.7576 11.9838L17.7651 9.12648C18.2304 8.79823 18.4181 8.4476 18.298 8.08204C18.1779 7.71649 17.8252 7.53744 17.2473 7.5449L12.3317 7.5822L10.8382 2.91207C10.6581 2.36747 10.388 2.08398 9.99771 2.08398C9.61496 2.08398 9.34479 2.36747 9.16468 2.91207L7.67123 7.5822L2.7556 7.5449C2.17773 7.53744 1.82501 7.71649 1.70493 8.08204C1.57735 8.4476 1.77248 8.79823 2.23777 9.12648L6.24532 11.9838L4.67682 16.6315C4.4892 17.1687 4.55675 17.5491 4.86444 17.7804C5.17214 18.0191 5.56238 17.9371 6.02768 17.6013L9.99771 14.6993L13.9752 17.6013C14.4405 17.9371 14.8233 18.0191 15.1385 17.7804ZM13.9897 16.2958L10.3799 13.5579C10.1398 13.3714 9.86209 13.3714 9.62193 13.5579L6.01214 16.2958C5.98212 16.3182 5.95961 16.3257 5.9446 16.3107C5.92959 16.2883 5.93709 16.2809 5.9446 16.2361L7.43805 11.9763C7.54311 11.6854 7.48307 11.4466 7.22041 11.2676L3.48303 8.70125C3.44551 8.67887 3.438 8.66395 3.44551 8.64903C3.45301 8.62665 3.46802 8.62665 3.51305 8.62665L8.05344 8.70125C8.36113 8.70871 8.55626 8.58935 8.65382 8.28348L9.95965 3.96398C9.96715 3.91922 9.98216 3.9043 9.99717 3.9043C10.0197 3.9043 10.0347 3.91922 10.0422 3.96398L11.348 8.28348C11.4456 8.58935 11.6407 8.70871 11.9484 8.70125L16.4888 8.62665C16.5338 8.62665 16.5488 8.62665 16.5563 8.64903C16.5638 8.66395 16.5488 8.67887 16.5188 8.70125L12.7814 11.2676C12.5188 11.4466 12.4587 11.6854 12.5638 11.9763L14.0573 16.2361C14.0648 16.2809 14.0723 16.2883 14.0573 16.3107C14.0422 16.3257 14.0197 16.3182 13.9897 16.2958Z" fill="#CFD8DC"/>
<path fill-rule="evenodd" clip-rule="evenodd" d="M39.1385 17.7804C39.4462 17.5491 39.5137 17.1687 39.3261 16.6315L37.7576 11.9838L41.7651 9.12648C42.2304 8.79823 42.4181 8.4476 42.298 8.08204C42.1779 7.71649 41.8252 7.53744 41.2473 7.5449L36.3317 7.5822L34.8382 2.91207C34.6581 2.36747 34.388 2.08398 33.9977 2.08398C33.615 2.08398 33.3448 2.36747 33.1647 2.91207L31.6712 7.5822L26.7556 7.5449C26.1777 7.53744 25.825 7.71649 25.7049 8.08204C25.5774 8.4476 25.7725 8.79823 26.2378 9.12648L30.2453 11.9838L28.6768 16.6315C28.4892 17.1687 28.5567 17.5491 28.8644 17.7804C29.1721 18.0191 29.5624 17.9371 30.0277 17.6013L33.9977 14.6993L37.9752 17.6013C38.4405 17.9371 38.8233 18.0191 39.1385 17.7804ZM37.9897 16.2958L34.3799 13.5579C34.1398 13.3714 33.8621 13.3714 33.6219 13.5579L30.0121 16.2958C29.9821 16.3182 29.9596 16.3257 29.9446 16.3107C29.9296 16.2883 29.9371 16.2809 29.9446 16.2361L31.438 11.9763C31.5431 11.6854 31.4831 11.4466 31.2204 11.2676L27.483 8.70125C27.4455 8.67887 27.438 8.66395 27.4455 8.64903C27.453 8.62665 27.468 8.62665 27.513 8.62665L32.0534 8.70125C32.3611 8.70871 32.5563 8.58935 32.6538 8.28348L33.9596 3.96398C33.9672 3.91922 33.9822 3.9043 33.9972 3.9043C34.0197 3.9043 34.0347 3.91922 34.0422 3.96398L35.348 8.28348C35.4456 8.58935 35.6407 8.70871 35.9484 8.70125L40.4888 8.62665C40.5338 8.62665 40.5488 8.62665 40.5563 8.64903C40.5638 8.66395 40.5488 8.67887 40.5188 8.70125L36.7814 11.2676C36.5188 11.4466 36.4587 11.6854 36.5638 11.9763L38.0573 16.2361C38.0648 16.2809 38.0723 16.2883 38.0573 16.3107C38.0422 16.3257 38.0197 16.3182 37.9897 16.2958Z" fill="#CFD8DC"/>
<path fill-rule="evenodd" clip-rule="evenodd" d="M63.1385 17.7804C63.4462 17.5491 63.5137 17.1687 63.3261 16.6315L61.7576 11.9838L65.7651 9.12648C66.2304 8.79823 66.4181 8.4476 66.298 8.08204C66.1779 7.71649 65.8252 7.53744 65.2473 7.5449L60.3317 7.5822L58.8382 2.91207C58.6581 2.36747 58.388 2.08398 57.9977 2.08398C57.615 2.08398 57.3448 2.36747 57.1647 2.91207L55.6712 7.5822L50.7556 7.5449C50.1777 7.53744 49.825 7.71649 49.7049 8.08204C49.5774 8.4476 49.7725 8.79823 50.2378 9.12648L54.2453 11.9838L52.6768 16.6315C52.4892 17.1687 52.5567 17.5491 52.8644 17.7804C53.1721 18.0191 53.5624 17.9371 54.0277 17.6013L57.9977 14.6993L61.9752 17.6013C62.4405 17.9371 62.8233 18.0191 63.1385 17.7804ZM61.9897 16.2958L58.3799 13.5579C58.1398 13.3714 57.8621 13.3714 57.6219 13.5579L54.0121 16.2958C53.9821 16.3182 53.9596 16.3257 53.9446 16.3107C53.9296 16.2883 53.9371 16.2809 53.9446 16.2361L55.438 11.9763C55.5431 11.6854 55.4831 11.4466 55.2204 11.2676L51.483 8.70125C51.4455 8.67887 51.438 8.66395 51.4455 8.64903C51.453 8.62665 51.468 8.62665 51.513 8.62665L56.0534 8.70125C56.3611 8.70871 56.5563 8.58935 56.6538 8.28348L57.9596 3.96398C57.9672 3.91922 57.9822 3.9043 57.9972 3.9043C58.0197 3.9043 58.0347 3.91922 58.0422 3.96398L59.348 8.28348C59.4456 8.58935 59.6407 8.70871 59.9484 8.70125L64.4888 8.62665C64.5338 8.62665 64.5488 8.62665 64.5563 8.64903C64.5638 8.66395 64.5488 8.67887 64.5188 8.70125L60.7814 11.2676C60.5188 11.4466 60.4587 11.6854 60.5638 11.9763L62.0573 16.2361C62.0648 16.2809 62.0723 16.2883 62.0573 16.3107C62.0422 16.3257 62.0197 16.3182 61.9897 16.2958Z" fill="#CFD8DC"/>
<path fill-rule="evenodd" clip-rule="evenodd" d="M87.1385 17.7804C87.4462 17.5491 87.5137 17.1687 87.3261 16.6315L85.7576 11.9838L89.7651 9.12648C90.2304 8.79823 90.4181 8.4476 90.298 8.08204C90.1779 7.71649 89.8252 7.53744 89.2473 7.5449L84.3317 7.5822L82.8382 2.91207C82.6581 2.36747 82.388 2.08398 81.9977 2.08398C81.615 2.08398 81.3448 2.36747 81.1647 2.91207L79.6712 7.5822L74.7556 7.5449C74.1777 7.53744 73.825 7.71649 73.7049 8.08204C73.5774 8.4476 73.7725 8.79823 74.2378 9.12648L78.2453 11.9838L76.6768 16.6315C76.4892 17.1687 76.5567 17.5491 76.8644 17.7804C77.1721 18.0191 77.5624 17.9371 78.0277 17.6013L81.9977 14.6993L85.9752 17.6013C86.4405 17.9371 86.8233 18.0191 87.1385 17.7804ZM85.9897 16.2958L82.3799 13.5579C82.1398 13.3714 81.8621 13.3714 81.6219 13.5579L78.0121 16.2958C77.9821 16.3182 77.9596 16.3257 77.9446 16.3107C77.9296 16.2883 77.9371 16.2809 77.9446 16.2361L79.438 11.9763C79.5431 11.6854 79.4831 11.4466 79.2204 11.2676L75.483 8.70125C75.4455 8.67887 75.438 8.66395 75.4455 8.64903C75.453 8.62665 75.468 8.62665 75.513 8.62665L80.0534 8.70125C80.3611 8.70871 80.5563 8.58935 80.6538 8.28348L81.9596 3.96398C81.9672 3.91922 81.9822 3.9043 81.9972 3.9043C82.0197 3.9043 82.0347 3.91922 82.0422 3.96398L83.348 8.28348C83.4456 8.58935 83.6407 8.70871 83.9484 8.70125L88.4888 8.62665C88.5338 8.62665 88.5488 8.62665 88.5563 8.64903C88.5638 8.66395 88.5488 8.67887 88.5188 8.70125L84.7814 11.2676C84.5188 11.4466 84.4587 11.6854 84.5638 11.9763L86.0573 16.2361C86.0648 16.2809 86.0723 16.2883 86.0573 16.3107C86.0422 16.3257 86.0197 16.3182 85.9897 16.2958Z" fill="#CFD8DC"/>
<path fill-rule="evenodd" clip-rule="evenodd" d="M111.138 17.7804C111.446 17.5491 111.514 17.1687 111.326 16.6315L109.758 11.9838L113.765 9.12648C114.23 8.79823 114.418 8.4476 114.298 8.08204C114.178 7.71649 113.825 7.53744 113.247 7.5449L108.332 7.5822L106.838 2.91207C106.658 2.36747 106.388 2.08398 105.998 2.08398C105.615 2.08398 105.345 2.36747 105.165 2.91207L103.671 7.5822L98.7556 7.5449C98.1777 7.53744 97.825 7.71649 97.7049 8.08204C97.5774 8.4476 97.7725 8.79823 98.2378 9.12648L102.245 11.9838L100.677 16.6315C100.489 17.1687 100.557 17.5491 100.864 17.7804C101.172 18.0191 101.562 17.9371 102.028 17.6013L105.998 14.6993L109.975 17.6013C110.441 17.9371 110.823 18.0191 111.138 17.7804ZM109.99 16.2958L106.38 13.5579C106.14 13.3714 105.862 13.3714 105.622 13.5579L102.012 16.2958C101.982 16.3182 101.96 16.3257 101.945 16.3107C101.93 16.2883 101.937 16.2809 101.945 16.2361L103.438 11.9763C103.543 11.6854 103.483 11.4466 103.22 11.2676L99.483 8.70125C99.4455 8.67887 99.438 8.66395 99.4455 8.64903C99.453 8.62665 99.468 8.62665 99.513 8.62665L104.053 8.70125C104.361 8.70871 104.556 8.58935 104.654 8.28348L105.96 3.96398C105.967 3.91922 105.982 3.9043 105.997 3.9043C106.02 3.9043 106.035 3.91922 106.042 3.96398L107.348 8.28348C107.446 8.58935 107.641 8.70871 107.948 8.70125L112.489 8.62665C112.534 8.62665 112.549 8.62665 112.556 8.64903C112.564 8.66395 112.549 8.67887 112.519 8.70125L108.781 11.2676C108.519 11.4466 108.459 11.6854 108.564 11.9763L110.057 16.2361C110.065 16.2809 110.072 16.2883 110.057 16.3107C110.042 16.3257 110.02 16.3182 109.99 16.2958Z" fill="#CFD8DC"/>
</svg>
