<svg width="116" height="20" viewBox="0 0 116 20" fill="none" xmlns="http://www.w3.org/2000/svg">
<path fill-rule="evenodd" clip-rule="evenodd" d="M15.1384 17.7794C15.4461 17.5482 15.5137 17.1677 15.326 16.6305L13.7575 11.9828L17.7651 9.1255C18.2304 8.79725 18.418 8.44662 18.2979 8.08107C18.1778 7.71551 17.8251 7.53647 17.2473 7.54393L12.3316 7.58123L10.8382 2.9111C10.6581 2.3665 10.3879 2.08301 9.99764 2.08301C9.6149 2.08301 9.34473 2.3665 9.16461 2.9111L7.67116 7.58123L2.75554 7.54393C2.17767 7.53647 1.82495 7.71551 1.70487 8.08107C1.57729 8.44662 1.77241 8.79725 2.23771 9.1255L6.24526 11.9828L4.67676 16.6305C4.48914 17.1677 4.55668 17.5482 4.86438 17.7794C5.17208 18.0181 5.56232 17.9361 6.02762 17.6004L9.99764 14.6983L13.9752 17.6004C14.4405 17.9361 14.8232 18.0181 15.1384 17.7794Z" fill="#FEBA0C"/>
<path fill-rule="evenodd" clip-rule="evenodd" d="M39.1384 17.7794C39.4461 17.5482 39.5137 17.1677 39.326 16.6305L37.7575 11.9828L41.7651 9.1255C42.2304 8.79725 42.418 8.44662 42.2979 8.08107C42.1778 7.71551 41.8251 7.53647 41.2473 7.54393L36.3316 7.58123L34.8382 2.9111C34.6581 2.3665 34.3879 2.08301 33.9976 2.08301C33.6149 2.08301 33.3447 2.3665 33.1646 2.9111L31.6712 7.58123L26.7555 7.54393C26.1777 7.53647 25.8249 7.71551 25.7049 8.08107C25.5773 8.44662 25.7724 8.79725 26.2377 9.1255L30.2453 11.9828L28.6768 16.6305C28.4891 17.1677 28.5567 17.5482 28.8644 17.7794C29.1721 18.0181 29.5623 17.9361 30.0276 17.6004L33.9976 14.6983L37.9752 17.6004C38.4405 17.9361 38.8232 18.0181 39.1384 17.7794Z" fill="#FEBA0C"/>
<path fill-rule="evenodd" clip-rule="evenodd" d="M63.1384 17.7794C63.4461 17.5482 63.5137 17.1677 63.326 16.6305L61.7575 11.9828L65.7651 9.1255C66.2304 8.79725 66.418 8.44662 66.2979 8.08107C66.1778 7.71551 65.8251 7.53647 65.2473 7.54393L60.3316 7.58123L58.8382 2.9111C58.6581 2.3665 58.3879 2.08301 57.9976 2.08301C57.6149 2.08301 57.3447 2.3665 57.1646 2.9111L55.6712 7.58123L50.7555 7.54393C50.1777 7.53647 49.8249 7.71551 49.7049 8.08107C49.5773 8.44662 49.7724 8.79725 50.2377 9.1255L54.2453 11.9828L52.6768 16.6305C52.4891 17.1677 52.5567 17.5482 52.8644 17.7794C53.1721 18.0181 53.5623 17.9361 54.0276 17.6004L57.9976 14.6983L61.9752 17.6004C62.4405 17.9361 62.8232 18.0181 63.1384 17.7794Z" fill="#FEBA0C"/>
<path fill-rule="evenodd" clip-rule="evenodd" d="M87.1384 17.7794C87.4461 17.5482 87.5137 17.1677 87.326 16.6305L85.7575 11.9828L89.7651 9.1255C90.2304 8.79725 90.418 8.44662 90.2979 8.08107C90.1778 7.71551 89.8251 7.53647 89.2473 7.54393L84.3316 7.58123L82.8382 2.9111C82.6581 2.3665 82.3879 2.08301 81.9976 2.08301C81.6149 2.08301 81.3447 2.3665 81.1646 2.9111L79.6712 7.58123L74.7555 7.54393C74.1777 7.53647 73.8249 7.71551 73.7049 8.08107C73.5773 8.44662 73.7724 8.79725 74.2377 9.1255L78.2453 11.9828L76.6768 16.6305C76.4891 17.1677 76.5567 17.5482 76.8644 17.7794C77.1721 18.0181 77.5623 17.9361 78.0276 17.6004L81.9976 14.6983L85.9752 17.6004C86.4405 17.9361 86.8232 18.0181 87.1384 17.7794ZM85.9902 16.2949L82.3804 13.557C82.2603 13.46 82.1327 13.4077 81.9976 13.4152V3.90336C82.0202 3.90336 82.0352 3.91828 82.0427 3.96304L83.3485 8.28254C83.4461 8.58841 83.6412 8.70778 83.9489 8.70032L88.4893 8.62571C88.5343 8.62571 88.5493 8.62571 88.5568 8.64809C88.5643 8.66301 88.5493 8.67793 88.5193 8.70032L84.7819 11.2666C84.5192 11.4457 84.4592 11.6844 84.5643 11.9754L86.0577 16.2352C86.0652 16.28 86.0727 16.2874 86.0577 16.3098C86.0427 16.3247 86.0202 16.3173 85.9902 16.2949Z" fill="#FEBA0C"/>
<path fill-rule="evenodd" clip-rule="evenodd" d="M111.138 17.7794C111.446 17.5482 111.514 17.1677 111.326 16.6305L109.758 11.9828L113.765 9.1255C114.23 8.79725 114.418 8.44662 114.298 8.08107C114.178 7.71551 113.825 7.53647 113.247 7.54393L108.332 7.58123L106.838 2.9111C106.658 2.3665 106.388 2.08301 105.998 2.08301C105.615 2.08301 105.345 2.3665 105.165 2.9111L103.671 7.58123L98.7555 7.54393C98.1777 7.53647 97.8249 7.71551 97.7049 8.08107C97.5773 8.44662 97.7724 8.79725 98.2377 9.1255L102.245 11.9828L100.677 16.6305C100.489 17.1677 100.557 17.5482 100.864 17.7794C101.172 18.0181 101.562 17.9361 102.028 17.6004L105.998 14.6983L109.975 17.6004C110.44 17.9361 110.823 18.0181 111.138 17.7794ZM109.99 16.2949L106.38 13.557C106.14 13.3704 105.862 13.3704 105.622 13.557L102.013 16.2949C101.983 16.3173 101.96 16.3247 101.945 16.3098C101.93 16.2874 101.937 16.28 101.945 16.2352L103.438 11.9754C103.543 11.6844 103.483 11.4457 103.221 11.2666L99.4834 8.70032C99.4459 8.67793 99.4384 8.66301 99.4459 8.64809C99.4534 8.62571 99.4684 8.62571 99.5134 8.62571L104.054 8.70032C104.362 8.70778 104.557 8.58841 104.654 8.28254L105.96 3.96304C105.968 3.91828 105.983 3.90336 105.998 3.90336C106.02 3.90336 106.035 3.91828 106.043 3.96304L107.348 8.28254C107.446 8.58841 107.641 8.70778 107.949 8.70032L112.489 8.62571C112.534 8.62571 112.549 8.62571 112.557 8.64809C112.564 8.66301 112.549 8.67793 112.519 8.70032L108.782 11.2666C108.519 11.4457 108.459 11.6844 108.564 11.9754L110.058 16.2352C110.065 16.28 110.073 16.2874 110.058 16.3098C110.043 16.3247 110.02 16.3173 109.99 16.2949Z" fill="#CFD8DC"/>
</svg>
