<svg width="32" height="32" viewBox="0 0 32 32" fill="none" xmlns="http://www.w3.org/2000/svg">
<path d="M24.2875 6.775V6.625C24.2875 4.64009 22.6724 3.025 20.6875 3.025C20.4065 3.025 20.1282 3.05936 19.8542 3.12761L19.7548 3.15238L19.6956 3.0688C18.8542 1.88171 17.4787 1.15 16 1.15C14.5213 1.15 13.1458 1.88177 12.3044 3.0688L12.2452 3.1524L12.1458 3.1276C11.8719 3.0593 11.5935 3.025 11.3125 3.025C9.32759 3.025 7.7125 4.64009 7.7125 6.625V6.775H7.5625H6.625C3.05344 6.775 0.15 9.65312 0.15 13.1875C0.15 13.6224 0.502593 13.975 0.9375 13.975H7.5625H7.7125V14.125V22.5625C7.7125 27.1318 11.43 30.8496 15.9992 30.85C15.9997 30.85 16.0003 30.85 16.0008 30.85M24.2875 6.775L16.0008 30.8501C16.0063 30.8501 16.0106 30.8504 16.0127 30.8506L16.0123 30.8506C16.0102 30.8504 16.006 30.8501 16.0008 30.85M24.2875 6.775H24.4375M24.2875 6.775H24.4375M16.0008 30.85C20.57 30.8495 24.2875 27.1318 24.2875 22.5625V14.125M16.0008 30.85L24.2875 14.125M24.4375 6.775H25.375C28.9466 6.775 31.85 9.65312 31.85 13.1875C31.85 13.6224 31.4974 13.975 31.0625 13.975H24.4375H24.2875M24.4375 6.775L24.2875 13.975M24.2875 13.975V14.125M24.2875 13.975V14.125M16.016 30.8509C16.0163 30.851 16.0164 30.851 16.0163 30.851L16.0162 30.851L16.016 30.8509ZM16.016 30.8509L16.016 30.8509L16.0153 30.8509M16.016 30.8509C16.0159 30.8509 16.0156 30.8509 16.0153 30.8509M16.0153 30.8509L16.0152 30.8508L16.0148 30.8508C16.015 30.8508 16.0152 30.8508 16.0153 30.8509ZM12.8522 4.8796L12.8522 4.8796C12.6485 4.95001 12.4249 4.93384 12.2335 4.83498C11.9342 4.68037 11.6241 4.6 11.3125 4.6C10.1958 4.6 9.2875 5.50828 9.2875 6.625C9.2875 7.40154 9.74007 8.11878 10.4412 8.45372L10.4413 8.45374C10.6037 8.53131 10.7347 8.66234 10.8124 8.82491L10.9478 8.76025L10.8124 8.82491C11.0448 9.31128 11.1625 9.83248 11.1625 10.375C11.1625 11.4917 12.0708 12.4 13.1875 12.4C14.3042 12.4 15.2125 11.4917 15.2125 10.375C15.2125 9.94009 15.5651 9.5875 16 9.5875C16.4349 9.5875 16.7875 9.94009 16.7875 10.375C16.7875 11.4917 17.6958 12.4 18.8125 12.4C19.9292 12.4 20.8375 11.4917 20.8375 10.375C20.8375 9.83248 20.9552 9.31128 21.1876 8.82491L21.1876 8.82487C21.2652 8.66238 21.3962 8.53138 21.5588 8.45373C22.2599 8.11884 22.7125 7.40153 22.7125 6.625C22.7125 5.50828 21.8042 4.6 20.6875 4.6C20.3759 4.6 20.0659 4.68037 19.7666 4.83498C19.5751 4.9339 19.3515 4.95001 19.1479 4.87967L19.1479 4.87966C18.9443 4.80931 18.7783 4.65858 18.6888 4.46262L18.5524 4.52494L18.6888 4.46261C18.2068 3.40748 17.152 2.725 16 2.725C14.848 2.725 13.7933 3.40748 13.3113 4.46254L13.3112 4.46256C13.2217 4.65853 13.0558 4.80925 12.8522 4.8796ZM1.82354 12.2197L1.78628 12.4H1.97044H7.5625C8.67922 12.4 9.5875 11.4917 9.5875 10.375C9.5875 10.1709 9.55792 9.97164 9.49907 9.78012L9.48244 9.72601L9.4342 9.69638C8.94565 9.39627 8.54051 8.98481 8.24618 8.50489L8.21667 8.45678L8.16277 8.44005C7.96963 8.38011 7.76856 8.35 7.5625 8.35H6.625C4.25978 8.35 2.27933 10.0132 1.82354 12.2197ZM16.7875 29.0578V29.2308L16.9588 29.2062C20.2075 28.7395 22.7125 25.9386 22.7125 22.5625V13.6205V13.5341L22.6377 13.4907C22.2989 13.2943 21.9951 13.0444 21.7375 12.7522L21.625 12.6246L21.5125 12.7522C20.8519 13.5016 19.8867 13.975 18.8125 13.975C17.7383 13.975 16.7731 13.5016 16.1125 12.7522L16 12.6246L15.8875 12.7522C15.2269 13.5016 14.2617 13.975 13.1875 13.975C12.1133 13.975 11.1481 13.5016 10.4875 12.7522L10.375 12.6246L10.2625 12.7522C10.0049 13.0444 9.70106 13.2943 9.36225 13.4907L9.2875 13.5341V13.6205V22.5625C9.2875 25.9386 11.7925 28.7395 15.0412 29.2062L15.2125 29.2308V29.0578V26.7008V26.6387L15.1686 26.5947L13.5681 24.9943C13.2606 24.6868 13.2606 24.1882 13.5681 23.8806C13.8757 23.5731 14.3743 23.5731 14.6818 23.8806L14.7879 23.7746L14.6818 23.8806L15.8939 25.0928L16 25.1988L16.1061 25.0928L17.3181 23.8807C17.6257 23.5731 18.1243 23.5732 18.4318 23.8807L18.5379 23.7746L18.4318 23.8807C18.7394 24.1882 18.7394 24.6868 18.4318 24.9944L16.8314 26.5947L16.7875 26.6387V26.7008V29.0578ZM22.5658 9.69637L22.5176 9.726L22.5009 9.78012C22.4421 9.97164 22.4125 10.1709 22.4125 10.375C22.4125 11.4917 23.3208 12.4 24.4375 12.4H30.0296H30.2137L30.1765 12.2197C29.7207 10.0132 27.7402 8.35 25.375 8.35H24.4375C24.2314 8.35 24.0304 8.38011 23.8372 8.44005L23.7833 8.45678L23.7538 8.5049C23.4595 8.98488 23.0543 9.39633 22.5658 9.69637Z" fill="#7B8E98" stroke="white" stroke-width="0.3"/>
<path d="M12.25 17.875C12.7678 17.875 13.1875 17.4553 13.1875 16.9375C13.1875 16.4197 12.7678 16 12.25 16C11.7322 16 11.3125 16.4197 11.3125 16.9375C11.3125 17.4553 11.7322 17.875 12.25 17.875Z" fill="#7B8E98"/>
<path d="M19.75 17.875C20.2678 17.875 20.6875 17.4553 20.6875 16.9375C20.6875 16.4197 20.2678 16 19.75 16C19.2322 16 18.8125 16.4197 18.8125 16.9375C18.8125 17.4553 19.2322 17.875 19.75 17.875Z" fill="#7B8E98"/>
</svg>
