<svg width="32" height="32" viewBox="0 0 32 32" fill="none" xmlns="http://www.w3.org/2000/svg">
<path d="M30.5802 21.6935C30.5331 21.5141 30.4399 21.3501 30.3097 21.218C30.1795 21.0859 30.0169 20.9903 29.8383 20.9407L24.0726 19.3396C24.0892 18.6445 23.9998 17.9509 23.8077 17.2826C23.5243 16.3314 23.17 15.4028 22.7478 14.5046C23.4364 13.551 23.8072 12.4046 23.8077 11.2282C23.8183 10.293 23.5973 9.36961 23.1642 8.54068C22.7311 7.71175 22.0995 7.00307 21.3258 6.47796C20.5521 5.95284 19.6605 5.62766 18.7305 5.53146C17.8005 5.43525 16.8612 5.57103 15.9965 5.92666C11.8524 2.65029 6.83929 0.964386 2.40907 1.48394C2.17459 1.51289 1.9565 1.61939 1.78944 1.78652C1.62238 1.95365 1.51593 2.17183 1.48699 2.40641C0.95706 6.81732 2.65284 11.8432 5.9596 16.0209C5.49171 17.1574 5.40696 18.4156 5.7182 19.6047C6.02945 20.7938 6.71972 21.8489 7.68438 22.6102C8.64904 23.3715 9.83548 23.7974 11.0639 23.8233C12.2923 23.8492 13.4956 23.4738 14.4915 22.7539C15.3893 23.1763 16.3175 23.5307 17.2683 23.8142C17.8851 23.9927 18.5234 24.0855 19.1655 24.0899H19.3244L20.9248 29.858C20.9744 30.0367 21.07 30.1994 21.202 30.3296C21.3341 30.4598 21.498 30.5531 21.6773 30.6002C21.7653 30.6113 21.8543 30.6113 21.9423 30.6002C22.0818 30.601 22.2201 30.5742 22.3492 30.5215C22.4783 30.4687 22.5958 30.391 22.6948 30.2927L30.2622 22.722C30.4022 22.5946 30.5055 22.432 30.5614 22.2512C30.6173 22.0703 30.6238 21.8778 30.5802 21.6935ZM18.148 7.65497C19.0925 7.65497 19.9983 8.03032 20.6661 8.69845C21.3339 9.36658 21.7091 10.2728 21.7091 11.2176C21.7031 11.5522 21.6496 11.8842 21.5502 12.2037C20.5662 10.5881 19.392 9.09653 18.0526 7.761L17.9572 7.67618L18.148 7.65497ZM11.7252 5.64037C10.3128 8.2033 8.20347 10.3135 5.64164 11.7266C4.20601 9.23317 3.47341 6.39682 3.52192 3.51974C6.39683 3.4791 9.2299 4.21148 11.7252 5.64037ZM11.2165 21.7147C10.272 21.7147 9.36625 21.3394 8.69841 20.6713C8.03057 20.0031 7.65538 19.097 7.65538 18.1521C7.65538 18.0885 7.65538 18.0249 7.65538 17.9612L7.74017 18.0567C9.07519 19.3965 10.5661 20.5713 12.181 21.5557C11.8685 21.6534 11.5438 21.7069 11.2165 21.7147ZM17.8512 21.7147C16.7997 21.4129 15.7779 21.0154 14.7988 20.5272C12.7527 19.5048 10.8874 18.1546 9.27697 16.5298C8.34629 15.6011 7.50198 14.5897 6.7545 13.5079C9.60341 11.9188 11.9553 9.56955 13.5482 6.7219C14.6294 7.46592 15.6404 8.30705 16.5688 9.23484C18.1927 10.8461 19.5424 12.7121 20.5645 14.7591C21.0518 15.7561 21.4456 16.7961 21.7409 17.8658C21.9545 18.4219 22.0151 19.0251 21.9163 19.6126C21.8175 20.2001 21.563 20.7503 21.1792 21.2058C20.7245 21.5833 20.1773 21.8325 19.594 21.9276C19.0108 22.0227 18.4128 21.9602 17.8618 21.7466L17.8512 21.7147ZM22.4934 27.4617L21.4336 23.5279C22.3946 23.1135 23.1685 22.3582 23.6063 21.4073L27.5278 22.4676L22.4934 27.4617ZM7.26323 6.20234C7.25925 6.06322 7.28831 5.92513 7.34802 5.79942C7.40169 5.67093 7.47697 5.55258 7.57059 5.44952C7.66912 5.35014 7.78634 5.27126 7.91549 5.21742C8.04465 5.16359 8.18318 5.13588 8.32309 5.13588C8.46301 5.13588 8.60154 5.16359 8.73069 5.21742C8.85984 5.27126 8.97707 5.35014 9.07559 5.44952C9.16921 5.55258 9.24449 5.67093 9.29816 5.79942C9.35424 5.92634 9.3832 6.06358 9.3832 6.20234C9.3832 6.34111 9.35424 6.47834 9.29816 6.60526C9.24449 6.73376 9.16921 6.8521 9.07559 6.95517C8.97707 7.05455 8.85984 7.13343 8.73069 7.18726C8.60154 7.24109 8.46301 7.26881 8.32309 7.26881C8.18318 7.26881 8.04465 7.24109 7.91549 7.18726C7.78634 7.13343 7.66912 7.05455 7.57059 6.95517C7.47697 6.8521 7.40169 6.73376 7.34802 6.60526C7.28831 6.47955 7.25925 6.34147 7.26323 6.20234Z" fill="#7B8E98"/>
<path fill-rule="evenodd" clip-rule="evenodd" d="M29.7452 21.2759L23.7184 19.6023L23.7249 19.3314C23.7406 18.672 23.6559 18.0141 23.4738 17.3803C23.1955 16.4463 22.8475 15.5345 22.433 14.6526L22.3458 14.4671L22.4658 14.301C23.1116 13.4066 23.4594 12.3315 23.4598 11.2281L23.4598 11.2243C23.4699 10.3464 23.2624 9.47977 22.8559 8.70175C22.4494 7.92373 21.8566 7.2586 21.1305 6.76575C20.4043 6.27292 19.5675 5.96772 18.6947 5.87744C17.8219 5.78715 16.9403 5.91458 16.1288 6.24834L15.9405 6.32579L15.7808 6.19951C11.692 2.96687 6.76907 1.32323 2.45073 1.82926C2.2936 1.84888 2.14746 1.92035 2.03544 2.03241C1.92331 2.14459 1.8518 2.29102 1.83226 2.4485C1.31614 6.7462 2.96861 11.6817 6.23233 15.805L6.35883 15.9648L6.28124 16.1533C5.84213 17.2199 5.7626 18.4007 6.05469 19.5166C6.34679 20.6326 6.99459 21.6228 7.89986 22.3372C8.80512 23.0516 9.91849 23.4512 11.0712 23.4755C12.2239 23.4999 13.3531 23.1475 14.2877 22.472L14.4539 22.3518L14.6396 22.4391C15.5212 22.8539 16.4327 23.202 17.3663 23.4804C17.9516 23.6498 18.5574 23.7378 19.1667 23.742H19.5889L21.26 29.765C21.2933 29.8851 21.3576 29.9944 21.4463 30.082C21.5296 30.1641 21.6317 30.2244 21.7435 30.2576C21.7952 30.2624 21.8473 30.2616 21.8988 30.2551L21.9215 30.2522L21.9443 30.2524C22.038 30.2529 22.1309 30.2349 22.2176 30.1995C22.3041 30.1641 22.3829 30.1121 22.4493 30.0463C22.4495 30.0461 22.4492 30.0464 22.4493 30.0463L30.022 22.4704L30.028 22.4649C30.1221 22.3792 30.1915 22.27 30.2291 22.1484C30.2662 22.0282 30.2709 21.9003 30.2426 21.7777C30.2107 21.6587 30.1484 21.55 30.0619 21.4622C29.9745 21.3734 29.8652 21.3092 29.7452 21.2759ZM30.5802 21.6935C30.5331 21.5141 30.4399 21.3501 30.3097 21.218C30.1795 21.0859 30.0169 20.9903 29.8383 20.9407L24.0726 19.3396C24.0892 18.6445 23.9998 17.9509 23.8077 17.2826C23.5243 16.3314 23.17 15.4028 22.7478 14.5046C23.4364 13.551 23.8072 12.4046 23.8077 11.2282C23.8183 10.293 23.5973 9.36961 23.1642 8.54068C22.7311 7.71175 22.0995 7.00307 21.3258 6.47796C20.5521 5.95284 19.6605 5.62766 18.7305 5.53146C17.8005 5.43525 16.8612 5.57103 15.9965 5.92666C11.8524 2.65029 6.83929 0.964386 2.40907 1.48394C2.17459 1.51289 1.9565 1.61939 1.78944 1.78652C1.62238 1.95365 1.51593 2.17183 1.48699 2.40641C0.95706 6.81732 2.65284 11.8432 5.9596 16.0209C5.49171 17.1574 5.40696 18.4156 5.7182 19.6047C6.02945 20.7938 6.71972 21.8489 7.68438 22.6102C8.64904 23.3715 9.83548 23.7974 11.0639 23.8233C12.2923 23.8492 13.4956 23.4738 14.4915 22.7539C15.3893 23.1763 16.3175 23.5307 17.2683 23.8142C17.8851 23.9927 18.5234 24.0855 19.1655 24.0899H19.3244L20.9248 29.858C20.9744 30.0367 21.07 30.1993 21.202 30.3296C21.3341 30.4598 21.498 30.5531 21.6773 30.6002C21.7653 30.6113 21.8543 30.6113 21.9423 30.6002C22.0818 30.601 22.2201 30.5742 22.3492 30.5215C22.4783 30.4687 22.5958 30.391 22.6948 30.2927L30.2622 22.722C30.4022 22.5946 30.5055 22.432 30.5614 22.2512C30.6173 22.0703 30.6238 21.8778 30.5802 21.6935ZM18.1287 7.30715H18.148C19.1848 7.30715 20.179 7.71918 20.9121 8.45255C21.6452 9.18592 22.057 10.1806 22.057 11.2176V11.2239C22.0503 11.5914 21.9915 11.9561 21.8823 12.3071L21.6535 13.0422L21.2531 12.3846C20.2854 10.7956 19.1308 9.32838 17.814 8.01429L17.1421 7.41682L18.1287 7.30715ZM18.2949 8.00616C19.4224 9.16368 20.4281 10.4338 21.2964 11.7965C21.3823 11.9313 21.4669 12.0671 21.5502 12.2037C21.5989 12.0469 21.6367 11.8871 21.6632 11.7255C21.6907 11.5577 21.7061 11.388 21.7091 11.2176C21.7091 10.2728 21.3339 9.36658 20.6661 8.69845C20.0699 8.102 19.2841 7.73888 18.4504 7.66783C18.3536 7.65958 18.2562 7.65527 18.1583 7.65499C18.1549 7.65498 18.1514 7.65497 18.148 7.65497L17.9572 7.67618L18.0526 7.761C18.0845 7.7928 18.1163 7.82469 18.148 7.85666C18.1564 7.86516 18.1648 7.87366 18.1733 7.88217C18.214 7.92336 18.2545 7.96468 18.2949 8.00616ZM12.195 5.50857L12.0299 5.80826C10.5857 8.42872 8.42902 10.5863 5.80964 12.0311L5.51061 12.1961L5.34021 11.9001C3.87318 9.3522 3.12458 6.45385 3.17415 3.51388L3.17983 3.17672L3.51701 3.17195C6.45422 3.13043 9.34868 3.87868 11.8981 5.33853L12.195 5.50857ZM7.30755 17.0461L7.99356 17.8182C9.30715 19.1354 10.7738 20.2905 12.362 21.2587L13.018 21.6586L12.2847 21.8877C11.9413 21.995 11.5846 22.0538 11.2249 22.0625L11.2165 21.7147C11.3799 21.7108 11.5426 21.6955 11.7035 21.669C11.8649 21.6424 12.0245 21.6046 12.181 21.5557C12.0446 21.4725 11.909 21.388 11.7744 21.3022C10.4209 20.439 9.15883 19.4401 8.00763 18.3209C7.95008 18.2649 7.8928 18.2086 7.8358 18.1521C7.80383 18.1204 7.77196 18.0886 7.74017 18.0567L7.65538 17.9612V18.1521C7.65538 18.2612 7.66038 18.3697 7.67025 18.4775C7.7459 19.303 8.10766 20.0803 8.69841 20.6713C9.36625 21.3394 10.272 21.7147 11.2165 21.7147V22.0626C10.1797 22.0626 9.18547 21.6505 8.45241 20.9172C7.71935 20.1838 7.30755 19.1892 7.30755 18.1521V17.0461ZM20.5645 14.7591C21.0518 15.756 21.4456 16.7961 21.7409 17.8658C21.9545 18.4219 22.0151 19.0251 21.9163 19.6126C21.8175 20.2001 21.563 20.7503 21.1792 21.2058C20.7245 21.5833 20.1773 21.8325 19.594 21.9276C19.0108 22.0227 18.4128 21.9602 17.8618 21.7466L17.8512 21.7147C16.7997 21.4129 15.7779 21.0154 14.7988 20.5272C12.7527 19.5048 10.8874 18.1546 9.27697 16.5298C8.4288 15.6835 7.65238 14.7684 6.9556 13.794C6.88781 13.6992 6.82077 13.6038 6.7545 13.5079C6.85621 13.4512 6.95728 13.3935 7.05771 13.3348C9.67 11.8091 11.8456 9.63586 13.3748 7.02482C13.4336 6.92449 13.4914 6.82351 13.5482 6.7219C13.6442 6.78797 13.7397 6.8548 13.8346 6.9224C14.8083 7.61599 15.7229 8.38944 16.5688 9.23484C18.1927 10.8461 19.5424 12.7121 20.5645 14.7591ZM16.8142 8.98831C18.4648 10.6262 19.8367 12.523 20.8757 14.6037L20.5645 14.7591L20.877 14.6063C21.3713 15.6176 21.7712 16.6724 22.0718 17.7572C22.3027 18.3669 22.3675 19.0272 22.2593 19.6703C22.1502 20.3191 21.8691 20.9268 21.4452 21.4299L21.4252 21.4536L21.4014 21.4734C20.899 21.8905 20.2944 22.1659 19.65 22.2709C19.0056 22.3759 18.3449 22.3069 17.7361 22.0709L17.5836 22.0117L17.5788 21.9975C16.5689 21.6966 15.5869 21.3088 14.6436 20.8385C12.5638 19.7993 10.6676 18.4267 9.03055 16.7753C8.08523 15.8319 7.22763 14.8045 6.46834 13.7056L6.25069 13.3907L6.58506 13.2041C9.37771 11.6464 11.6832 9.34355 13.2446 6.55209L13.431 6.21899L13.7454 6.43536C14.8438 7.19125 15.871 8.04577 16.8142 8.98831ZM22.3133 28.1302L21.0194 23.3277L21.2959 23.2085C22.178 22.8281 22.8884 22.1348 23.2903 21.2618L23.4133 20.9948L28.2013 22.2894L22.3133 28.1302ZM7.66577 5.94115L7.6622 5.94866C7.62609 6.0247 7.60851 6.10823 7.61091 6.19239L7.26323 6.20234C7.25925 6.06322 7.28831 5.92513 7.34802 5.79942C7.40169 5.67093 7.47697 5.55258 7.57059 5.44952C7.66912 5.35014 7.78634 5.27126 7.91549 5.21742C8.04465 5.16359 8.18318 5.13588 8.32309 5.13588C8.46301 5.13588 8.60154 5.16359 8.73069 5.21742C8.85984 5.27126 8.97707 5.35014 9.07559 5.44952C9.16921 5.55258 9.24449 5.67093 9.29816 5.79942C9.35424 5.92634 9.3832 6.06358 9.3832 6.20234C9.3832 6.34111 9.35424 6.47834 9.29816 6.60526C9.24449 6.73376 9.16921 6.8521 9.07559 6.95517C8.97707 7.05455 8.85984 7.13343 8.73069 7.18726C8.60154 7.24109 8.46301 7.26881 8.32309 7.26881C8.18318 7.26881 8.04465 7.24109 7.91549 7.18726C7.78634 7.13343 7.66912 7.05455 7.57059 6.95517C7.47697 6.8521 7.40169 6.73376 7.34802 6.60526C7.28831 6.47955 7.25925 6.34147 7.26323 6.20234L7.61091 6.21229C7.60851 6.29646 7.62609 6.37999 7.6622 6.45602L7.66577 6.46353L7.66897 6.4712C7.70635 6.56067 7.75837 6.64326 7.82289 6.71556C7.88798 6.77985 7.96485 6.831 8.04931 6.8662C8.13607 6.90236 8.22912 6.92098 8.32309 6.92098C8.41707 6.92098 8.51012 6.90236 8.59687 6.8662C8.68133 6.831 8.7582 6.77985 8.82329 6.71556C8.88781 6.64326 8.93984 6.56067 8.97721 6.4712L8.97994 6.46467C9.01645 6.38203 9.03537 6.2927 9.03537 6.20234C9.03537 6.11198 9.01651 6.02262 8.98 5.93998L8.97715 5.93351C8.93977 5.84404 8.88781 5.76143 8.82329 5.68912C8.7582 5.62483 8.68133 5.57368 8.59687 5.53848C8.51012 5.50232 8.41707 5.48371 8.32309 5.48371C8.22912 5.48371 8.13607 5.50232 8.04931 5.53848C7.96485 5.57368 7.88798 5.62483 7.82289 5.68912C7.75838 5.76143 7.70635 5.84401 7.66897 5.93349L7.66577 5.94115ZM22.4934 27.4617L27.5278 22.4676L23.6063 21.4073C23.1685 22.3582 22.3946 23.1135 21.4336 23.5279L22.4934 27.4617ZM5.64164 11.7266C8.20347 10.3135 10.3128 8.2033 11.7252 5.64037C9.2299 4.21148 6.39683 3.4791 3.52192 3.51974C3.47341 6.39682 4.20601 9.23317 5.64164 11.7266Z" fill="white"/>
</svg>
