<svg width="32" height="32" viewBox="0 0 32 32" fill="none" xmlns="http://www.w3.org/2000/svg">
<path d="M30.125 5.42383H12.5184C12.2604 4.69633 11.5653 4.17383 10.7505 4.17383H7.0005C6.18569 4.17383 5.49056 4.69633 5.23263 5.42383H1.875C0.841125 5.42383 0 6.26495 0 7.29883V13.5488C0 14.5827 0.841125 15.4238 1.875 15.4238H5.23263C5.49056 16.1513 6.18569 16.6738 7.0005 16.6738H10.7505C11.5653 16.6738 12.2604 16.1513 12.5184 15.4238H15.375V22.293L13.0291 22.9216C12.3392 22.0032 11.1391 21.5688 9.9975 21.8746C8.47269 22.2831 7.5645 23.8561 7.97306 25.381C8.09625 25.8407 8.33369 26.2653 8.65975 26.6091C8.67844 26.6288 8.69681 26.6478 8.71463 26.6663C8.74444 26.6971 8.78275 26.7369 8.80406 26.7622C8.79831 26.7949 8.785 26.8483 8.77462 26.8898C8.76838 26.9148 8.762 26.9406 8.75562 26.9671C8.64512 27.4276 8.65188 27.9141 8.77506 28.374C9.11744 29.6516 10.2771 30.4963 11.5411 30.4963C11.7857 30.4963 12.0343 30.4646 12.2814 30.3984C13.4233 30.0924 14.2451 29.1161 14.3833 27.9759L18.9707 26.7468C19.6588 27.6656 20.8593 28.1003 22.0037 27.7933C23.5285 27.3847 24.4367 25.8118 24.0281 24.2869C23.9048 23.8271 23.6674 23.4025 23.3416 23.0589C23.3228 23.0391 23.3043 23.02 23.2863 23.0014C23.2566 22.9706 23.2184 22.9311 23.1971 22.9057C23.2028 22.8731 23.2161 22.8197 23.2264 22.7783C23.2327 22.7532 23.2391 22.7274 23.2456 22.7008C23.7626 20.6208 21.7871 18.6965 19.7197 19.2695C18.5751 19.5762 17.7528 20.5526 17.6164 21.6924L16.625 21.9581V15.4238H30.125C31.1589 15.4238 32 14.5827 32 13.5488V7.29883C32 6.26495 31.1589 5.42383 30.125 5.42383ZM18.3882 22.7798C18.6765 22.7025 18.8699 22.4321 18.8501 22.1344C18.7983 21.3606 19.289 20.6791 20.0433 20.4769C20.8876 20.2508 21.7924 20.7729 22.0187 21.6174C22.0892 21.8804 22.093 22.1468 22.0301 22.4093L22.0138 22.4758C21.9639 22.6754 21.9019 22.9238 21.9841 23.2306C22.0663 23.5374 22.2443 23.7216 22.3872 23.8698L22.4347 23.9193C22.6178 24.1122 22.7513 24.3512 22.8208 24.6105C23.0471 25.4551 22.5247 26.3596 21.6802 26.5859C20.9258 26.7881 20.1601 26.4433 19.8181 25.7473C19.6864 25.4794 19.3837 25.3418 19.0954 25.4193L13.6126 26.8883C13.3249 26.9654 13.1316 27.2348 13.1507 27.5321C13.1997 28.295 12.6981 28.9927 11.958 29.1911C11.0992 29.4211 10.2128 28.9096 9.98263 28.0506C9.91313 27.7913 9.90925 27.5175 9.97125 27.2588L9.98763 27.1924C10.0374 26.9927 10.0995 26.7441 10.0172 26.4372C9.93494 26.1303 9.75688 25.946 9.61381 25.7979L9.56675 25.7488C9.381 25.553 9.25113 25.3204 9.18062 25.0574C8.95044 24.1983 9.46206 23.3121 10.3212 23.082C11.0613 22.8834 11.8445 23.2371 12.1836 23.9223C12.3157 24.1893 12.6176 24.3261 12.9055 24.2489L18.3882 22.7798ZM12.5184 14.1738C12.2604 13.4463 11.5653 12.9238 10.7505 12.9238H9.5005V11.0488H12.0005C12.8298 11.0158 12.8291 9.83158 12.0005 9.79883H9.5005V7.92383H10.7505C11.5653 7.92383 12.2604 7.40133 12.5184 6.67383H24.7586L28.0667 9.98195C28.3071 10.2121 28.3071 10.6356 28.0667 10.8658L24.7586 14.1739L12.5184 14.1738ZM1.25 13.5488V7.29883C1.25 6.9542 1.53038 6.67383 1.875 6.67383H5.1255V14.1738H1.875C1.53038 14.1738 1.25 13.8935 1.25 13.5488ZM10.7505 15.4238H7.0005C6.65588 15.4238 6.3755 15.1435 6.3755 14.7988V6.04883C6.3755 5.7042 6.65588 5.42383 7.0005 5.42383H10.7505C11.5799 5.45827 11.5792 6.6397 10.7505 6.67383H8.8755C8.53031 6.67383 8.2505 6.9537 8.2505 7.29883V9.79883C7.42125 9.83183 7.42187 11.0161 8.2505 11.0488V13.5488C8.2505 13.894 8.53031 14.1738 8.8755 14.1738H10.7505C11.5798 14.2083 11.5792 15.3897 10.7505 15.4238ZM30.75 13.5488C30.75 13.8935 30.4696 14.1738 30.125 14.1738H26.5264L28.9506 11.7496C29.6759 11.0541 29.6759 9.79352 28.9506 9.09802L26.5264 6.67383H30.125C30.4696 6.67383 30.75 6.9542 30.75 7.29883V13.5488Z" fill="#7B8E98"/>
</svg>
