<svg width="32" height="32" viewBox="0 0 32 32" fill="none" xmlns="http://www.w3.org/2000/svg">
<path fill-rule="evenodd" clip-rule="evenodd" d="M1.486 21.5306C1.43643 21.5433 1.38686 21.5495 1.33729 21.5495C1.07391 21.5495 0.832033 21.3723 0.752602 21.0999C0.727518 21.0142 0.523864 20.239 1.07928 19.3704C1.78342 18.2693 3.35651 17.5557 5.75677 17.2477L6.57198 15.8773C6.63529 15.7715 6.72666 15.6871 6.83536 15.6348C12.8644 12.7378 19.4016 9.20881 19.9057 8.31766C19.9648 8.19027 20.0323 8.03195 20.1069 7.85601C20.7687 6.30717 22.0013 3.45345 24.9355 3.47819C26.2876 3.50292 27.6051 4.24658 28.4604 5.46673L29.1042 6.38478C31.3043 6.9695 31.3043 7.48805 31.3043 7.80159C31.2735 7.81231 31.2398 7.82505 31.2032 7.8389C31.054 7.89533 30.8566 7.96997 30.6087 7.99977C29.3396 8.15221 28.4633 9.06781 28.4633 9.30312C28.4633 9.63429 28.5344 10.1847 28.6168 10.8217C28.8085 12.3003 29.0468 14.8608 28.7088 16.1632C28.4665 17.0968 27.2719 20.7256 24.4392 22.1816V24.1077L26.3044 25.4356C26.5827 25.6338 26.6531 26.028 26.462 26.3162C26.3432 26.4949 26.1521 26.5908 25.9574 26.5908C25.8379 26.5908 25.7173 26.5546 25.6116 26.4795L24.4392 25.6448V25.9575C24.4392 26.3072 24.1657 26.5908 23.8277 26.5908C23.4896 26.5908 23.2161 26.3072 23.2161 25.9575V25.6446L22.0431 26.4795C21.9374 26.5546 21.8168 26.5908 21.6974 26.5908C21.5027 26.5908 21.3115 26.4949 21.1927 26.3162C21.0016 26.028 21.0721 25.6338 21.3504 25.4356L23.2161 24.1076V22.7165C22.5977 22.9474 21.925 23.1469 21.179 23.2937C20.7926 23.3695 20.3997 23.4233 20.003 23.464V25.6343L22.3262 27.3753C22.5998 27.5803 22.6613 27.9761 22.4636 28.2596C22.3436 28.4306 22.1566 28.5215 21.9673 28.5215C21.8431 28.5215 21.6974 28.4921 21.6096 28.4012L20.003 27.1973V27.8882C20.003 28.238 19.7295 28.5215 19.3915 28.5215C19.0534 28.5215 18.7799 28.238 18.7799 27.8882V27.1972L17.1728 28.4012C17.0647 28.4825 16.9392 28.5215 16.815 28.5215C16.6251 28.5215 16.4388 28.4306 16.3187 28.2596C16.121 27.9761 16.1826 27.5803 16.4561 27.3753L18.7799 25.6342V23.5343C17.6253 23.549 16.4361 23.4264 15.221 23.1582C11.9963 22.4459 9.82594 21.2454 8.51453 20.52C7.76172 20.1036 7.29196 19.8438 7.06828 19.9227C5.3184 20.5368 1.64187 21.4904 1.486 21.5306ZM6.18677 18.4709C3.36726 18.7851 2.43141 19.5835 2.12443 20.0318C2.11788 20.0411 2.11191 20.0504 2.10595 20.0596L2.10592 20.0597C3.33382 19.731 5.49578 19.1373 6.6753 18.7229C6.78687 18.6839 6.92517 18.6549 7.07914 18.6318C9.01439 17.7856 10.3729 17.9888 11.6659 18.1823C12.6148 18.3242 13.5284 18.4609 14.6087 18.1735L14.6197 18.1705C15.7003 17.883 16.8179 17.5855 17.8887 17.2656C21.0256 16.3291 21.5049 12.5752 21.5567 12.1689C21.5596 12.1468 21.5611 12.1346 21.5618 12.1333C21.7278 11.8291 22.0993 11.7202 22.3931 11.8894C22.6876 12.0591 22.7945 12.4422 22.6314 12.7477C22.6256 12.7587 22.6156 12.8084 22.5992 12.8903C22.4413 13.6782 21.6852 17.4503 18.2279 18.4827C17.1439 18.8061 16.0229 19.1045 14.9378 19.3934L14.9127 19.4001C14.2293 19.5819 13.0453 19.4681 11.889 19.3569C10.7409 19.2464 9.61995 19.1386 9.04347 19.3256C10.7826 20.4061 13.3047 21.4397 15.4766 21.9195C17.3925 22.3428 19.2338 22.3864 20.9508 22.0494C26.2744 21.0026 27.4914 15.9832 27.5267 15.8372C27.5271 15.8356 27.5274 15.8346 27.5275 15.8342C27.8022 14.7773 27.5723 12.2842 27.4051 10.9902L27.4047 10.9873C27.3165 10.3064 27.2402 9.71813 27.2402 9.30312C27.2402 8.4466 27.9778 7.92403 28.787 7.60895C28.7231 7.59163 28.6592 7.57493 28.5953 7.55886C28.4544 7.5233 28.3302 7.43703 28.2448 7.31551L27.4701 6.21069C26.8395 5.31058 25.8839 4.76234 24.914 4.74472L24.9123 4.74469C24.895 4.74439 24.8782 4.7441 24.8615 4.7441C22.7744 4.7441 21.8063 7.00948 21.2257 8.3679L21.2255 8.36837C21.1449 8.55761 21.0721 8.72799 21.0052 8.87208C20.2718 10.4552 10.7132 15.1639 7.51679 16.7035L6.64245 18.1735C6.54331 18.3401 6.3749 18.4502 6.18677 18.4709ZM26.0048 6.9433C26.0048 7.28103 25.7312 7.55486 25.3932 7.55486C25.0558 7.55486 24.7787 7.28103 24.7787 6.9433C24.7787 6.60557 25.0498 6.33174 25.3872 6.33174H25.3932C25.7312 6.33174 26.0048 6.60557 26.0048 6.9433Z" fill="#7B8E98"/>
</svg>
