<svg width="32" height="32" viewBox="0 0 32 32" fill="none" xmlns="http://www.w3.org/2000/svg">
<path d="M21.9134 25.3333C20.5827 25.3333 19.5294 24.5093 19.2387 23.3333H12.7614C12.4721 24.5093 11.4174 25.3333 10.0867 25.3333C8.5694 25.3333 7.3334 24.056 7.3334 22.4853C7.3334 21.812 7.56274 21.172 7.96674 20.6667C7.56274 20.1613 7.3334 19.5213 7.3334 18.848C7.3334 17.2773 8.5694 16 10.0867 16C11.4174 16 12.4707 16.824 12.7614 18H19.2374C19.5281 16.824 20.5814 16 21.9121 16C23.4307 16 24.6654 17.2773 24.6654 18.848C24.6654 19.5213 24.4361 20.1613 24.0321 20.6667C24.4361 21.172 24.6654 21.812 24.6654 22.4853C24.6667 24.056 23.4307 25.3333 21.9134 25.3333ZM12.1747 22H19.8254C20.1934 22 20.4921 22.2987 20.4921 22.6667C20.4921 23.5827 21.2294 24 21.9121 24C22.6961 24 23.3321 23.32 23.3321 22.4853C23.3321 21.9707 23.0894 21.496 22.6854 21.2133C22.5067 21.0893 22.4001 20.884 22.4001 20.6667C22.4001 20.4493 22.5067 20.244 22.6854 20.12C23.0907 19.8387 23.3321 19.3627 23.3321 18.848C23.3334 18.0133 22.6961 17.3333 21.9134 17.3333C21.2294 17.3333 20.4934 17.7507 20.4934 18.6667C20.4934 19.0347 20.1947 19.3333 19.8267 19.3333H12.1747C11.8067 19.3333 11.5081 19.0347 11.5081 18.6667C11.5081 17.7507 10.7707 17.3333 10.0881 17.3333C9.30407 17.3333 8.66674 18.0133 8.66674 18.848C8.66674 19.3627 8.9094 19.8373 9.3134 20.12C9.49207 20.244 9.59874 20.4493 9.59874 20.6667C9.59874 20.884 9.49207 21.0893 9.3134 21.2133C8.9094 21.496 8.66674 21.9707 8.66674 22.4853C8.66674 23.32 9.30407 24 10.0867 24C10.7707 24 11.5067 23.5827 11.5067 22.6667C11.5081 22.2987 11.8054 22 12.1747 22Z" fill="#7B8E98"/>
<path d="M27.3333 32H4.6666C3.56393 32 2.6666 31.1027 2.6666 30V15.3333C2.6666 15.2747 2.6746 15.2147 2.6906 15.1587L6.42126 1.47333C6.65993 0.605333 7.45326 0 8.35193 0H23.6493C24.5479 0 25.3413 0.605333 25.5786 1.47333L29.3106 15.1587C29.3253 15.2147 29.3333 15.2747 29.3333 15.3333V30C29.3333 31.1027 28.4359 32 27.3333 32ZM3.99993 15.4227V30C3.99993 30.368 4.29993 30.6667 4.6666 30.6667H27.3333C27.6999 30.6667 27.9999 30.368 27.9999 30V15.4227L24.2919 1.824C24.2119 1.536 23.9479 1.33333 23.6479 1.33333H8.35193C8.05193 1.33333 7.78793 1.536 7.70793 1.82533L3.99993 15.4227Z" fill="#7B8E98"/>
<path d="M20.0001 7.99984H12.0001C10.5294 7.99984 9.3334 6.80384 9.3334 5.33317C9.3334 3.8625 10.5294 2.6665 12.0001 2.6665H20.0001C21.4707 2.6665 22.6667 3.8625 22.6667 5.33317C22.6667 6.80384 21.4707 7.99984 20.0001 7.99984ZM12.0001 3.99984C11.2641 3.99984 10.6667 4.5985 10.6667 5.33317C10.6667 6.06784 11.2641 6.6665 12.0001 6.6665H20.0001C20.7361 6.6665 21.3334 6.06784 21.3334 5.33317C21.3334 4.5985 20.7361 3.99984 20.0001 3.99984H12.0001Z" fill="#7B8E98"/>
</svg>
