<svg width="32" height="32" viewBox="0 0 32 32" fill="none" xmlns="http://www.w3.org/2000/svg">
<g clip-path="url(#clip0_7939_16900)">
<path d="M9.91419 12.311C8.3626 12.311 7.10028 13.5734 7.10028 15.1249C7.25486 18.858 12.5741 18.8569 12.7281 15.1249C12.7281 13.5734 11.4658 12.311 9.91419 12.311ZM9.91419 16.6882C9.0522 16.6882 8.35091 15.9869 8.35091 15.1249C8.43676 13.051 11.3919 13.0517 11.4775 15.1249C11.4775 15.9869 10.7763 16.6882 9.91419 16.6882Z" fill="#7B8E98"/>
<path d="M28.8896 24.5048H26.5643C31.2652 18.7536 27.9931 9.87005 20.7721 8.45003V7.49617C22.4961 7.49617 23.8987 6.0936 23.8987 4.36961C23.9099 1.81145 20.9284 0.326201 18.8962 1.86866C16.8632 0.326075 13.8825 1.8117 13.8937 4.36961C13.8937 6.0936 15.2962 7.49611 17.0202 7.49611V8.39869C15.3608 8.69134 13.7956 9.39988 12.4742 10.468C10.899 9.55077 8.64753 9.61011 7.1267 10.601C2.5052 9.40513 -1.01013 14.7402 1.90333 18.5121C0.68797 20.1672 0 22.1864 0 24.2964C0 26.4801 1.77658 28.2567 3.9603 28.2567H18.7594C21.2911 28.2567 23.6061 27.3114 25.3702 25.7554H28.8896C31.3789 25.8587 31.377 29.4049 28.8896 29.5073H18.7594C17.9298 29.5403 17.9304 30.7252 18.7594 30.7579H28.8896C33.0384 30.5857 33.0352 24.6755 28.8896 24.5048ZM18.0286 6.29776C17.8758 6.17926 17.6767 6.13824 17.4897 6.18639C16.327 6.50124 15.1275 5.57696 15.1443 4.36961C15.144 2.65168 17.2935 1.84059 18.4273 3.12917C18.6627 3.40856 19.1295 3.40856 19.365 3.12917C20.4992 1.84065 22.6482 2.65168 22.648 4.36967C22.6648 5.57684 21.4652 6.50155 20.3026 6.18645C20.1155 6.13837 19.9164 6.17939 19.7637 6.29782C19.6108 6.41626 19.5214 6.59872 19.5214 6.79201V8.27538C19.1093 8.24405 18.6858 8.23817 18.2708 8.25856V6.79195C18.2709 6.59866 18.1814 6.41619 18.0286 6.29776ZM2.09774 15.4378C2.09724 13.3638 3.79072 11.6771 5.86469 11.686C4.89765 12.7975 4.40696 14.4317 4.66534 15.961C3.9493 16.404 3.30147 16.9313 2.73212 17.5256C2.32029 16.911 2.09774 16.1859 2.09774 15.4378ZM3.9603 27.006C2.46618 27.006 1.25063 25.7905 1.25063 24.2964C1.25063 21.456 2.68153 18.8034 5.02765 17.2159C5.11057 17.4098 5.20511 17.5992 5.3111 17.7826C5.48375 18.0817 5.86613 18.1842 6.16528 18.0115C6.46437 17.8389 6.56686 17.4564 6.39415 17.1573C4.82398 14.4938 6.82011 11.0342 9.91423 11.0605C13.5083 11.0523 15.339 15.4696 12.7882 17.9991C12.2246 18.6083 13.0641 19.4469 13.6726 18.8835C15.8131 16.8257 15.6965 13.1613 13.5292 11.2319C19.2276 6.93671 27.5456 11.1058 27.5138 18.2517C27.5138 23.0788 23.5866 27.006 18.7594 27.006H3.9603Z" fill="#7B8E98"/>
<path d="M4.21693 20.9956H4.2165C3.87114 20.9956 3.59137 21.2756 3.59137 21.6209C3.62439 22.4503 4.80942 22.4503 4.84225 21.6209C4.84225 21.2756 4.56223 20.9956 4.21693 20.9956Z" fill="#7B8E98"/>
<path d="M20.7722 4.99477C21.6019 4.96175 21.6013 3.77684 20.7722 3.74414H20.7718C19.9421 3.77728 19.9432 4.96213 20.7722 4.99477Z" fill="#7B8E98"/>
<path d="M17.0204 3.74414H17.02C16.6746 3.74414 16.3949 4.02409 16.3949 4.36945C16.4279 5.19881 17.6129 5.19881 17.6457 4.36945C17.6457 4.02409 17.3658 3.74414 17.0204 3.74414Z" fill="#7B8E98"/>
</g>
<defs>
<clipPath id="clip0_7939_16900">
<rect width="32" height="32" fill="white"/>
</clipPath>
</defs>
</svg>
