<svg width="32" height="32" viewBox="0 0 32 32" fill="none" xmlns="http://www.w3.org/2000/svg">
<path d="M13.7667 18.7905C13.7667 18.2728 13.3382 17.853 12.8204 17.853C12.3026 17.853 11.8741 18.2728 11.8741 18.7905C11.8741 19.3083 12.3026 19.728 12.8204 19.728C13.3382 19.728 13.7667 19.3083 13.7667 18.7905Z" fill="#7B8E98"/>
<path d="M20.2614 18.7905C20.2614 18.2728 19.8329 17.853 19.3151 17.853C18.7974 17.853 18.3688 18.2728 18.3688 18.7905C18.3688 19.3083 18.7974 19.728 19.3151 19.728C19.8329 19.728 20.2614 19.3083 20.2614 18.7905Z" fill="#7B8E98"/>
<path d="M20.2743 9.29711L20.3883 9.29675L23.5266 9.28689L23.528 9.28688L23.5445 9.28667C23.5447 9.28666 23.545 9.28666 23.5453 9.28665C25.8992 9.22987 28.0656 8.14162 29.4906 6.30172C30.6872 4.75653 31.2248 2.84391 31.0217 0.93982C30.9777 0.527009 30.5646 0.258809 30.1354 0.358777C29.7166 0.456325 29.4454 0.883222 29.4755 1.34192C29.5692 2.76569 29.1402 4.18181 28.2453 5.33729C27.4012 6.42726 26.2279 7.18521 24.9091 7.52013L24.6464 7.58686L24.7294 7.32881L25.8568 3.8246C25.99 3.41056 25.7624 2.96693 25.3483 2.83372C24.9343 2.70052 24.4907 2.92817 24.3575 3.3422L22.9844 7.60994L22.951 7.71365L22.8421 7.714L20.9047 7.72012L20.7073 7.72075L20.7596 7.53039L21.1982 5.934C21.3134 5.51462 21.0669 5.08124 20.6475 4.96602C20.2281 4.85079 19.7947 5.09736 19.6795 5.51675L18.2283 10.7986L18.1981 10.9089H18.0837H13.916H13.8016L13.7713 10.7986L12.3202 5.51675C12.205 5.09737 11.7716 4.85079 11.3522 4.96602C10.9328 5.08124 10.6862 5.51462 10.8015 5.934L11.24 7.53039L11.2923 7.72075L11.0949 7.72012L9.15761 7.714L9.04866 7.71365L9.01529 7.60994L7.64222 3.34217C7.50902 2.92817 7.06543 2.70053 6.65142 2.83373C6.23742 2.96693 6.00979 3.41052 6.14299 3.82452L7.27044 7.32881L7.35346 7.58686L7.09072 7.52013C5.77197 7.18521 4.59873 6.42727 3.75462 5.33729C2.85966 4.1818 2.43067 2.76566 2.52431 1.34188C2.55448 0.883202 2.28327 0.456326 1.8645 0.358779C1.43534 0.258811 1.02226 0.527002 0.978222 0.9398C0.775074 2.84395 1.31269 4.75657 2.50936 6.30172L2.39077 6.39356L2.50936 6.30172C3.93418 8.14148 6.10019 9.22963 8.45379 9.28657L11.6116 9.29669L11.7256 9.29705L11.7558 9.40695L12.1163 10.7191L12.1684 10.9089H11.9716H1.23327V11.6964C1.23327 14.5035 3.5173 16.7875 6.32446 16.7875H7.41452H7.6015L7.56095 16.97C7.18955 18.6419 7.36256 20.4116 8.07336 21.9774L7.93677 22.0394L8.07336 21.9774C8.90387 23.807 9.46423 25.3809 9.88854 27.0784C10.591 29.888 13.1039 31.85 16 31.85C18.8935 31.85 21.4046 29.8913 22.1094 27.0857L20.2743 9.29711ZM20.2743 9.29711L20.2441 9.40701L19.8836 10.7191L19.8315 10.9089H20.0283H30.7666V11.6964C30.7666 14.5035 28.4826 16.7875 25.6755 16.7875H24.6018H24.415L24.4553 16.9699C24.8227 18.6311 24.6496 20.3885 23.9438 21.9394C23.1039 23.7853 22.5382 25.3708 22.1114 27.078C22.1114 27.078 22.1114 27.078 22.1114 27.078L22.1095 27.0856L20.2743 9.29711ZM3.09114 12.4839H2.89138L2.9471 12.6758C3.37216 14.1393 4.72492 15.2126 6.32446 15.2126H8.08452H8.17676L8.21838 15.1302C8.68004 14.2172 9.31473 13.41 10.0928 12.7482L10.4035 12.4839H9.99564H3.09114ZM20.5834 26.6965L20.5836 26.6953L20.5852 26.689C20.5852 26.6888 20.5853 26.6886 20.5853 26.6884C21.0355 24.8897 21.6288 23.2245 22.5097 21.2881C23.7652 18.6294 22.8272 15.1499 20.3818 13.5495C19.3601 12.8524 18.166 12.4839 16.9291 12.4839H15.0878C13.8566 12.4839 12.6671 12.8492 11.6483 13.5404C9.13696 15.1809 8.26869 18.6931 9.50798 21.3273C10.3806 23.2496 10.9687 24.9049 11.4166 26.6964C11.8632 28.4825 13.2858 29.8117 15.0319 30.1752L15.2125 30.2128V30.0283V28.2594V28.1879L15.1569 28.1429L14.0756 27.2663C13.7377 26.9924 13.6858 26.4965 13.9597 26.1587C14.2336 25.8208 14.7295 25.7689 15.0673 26.0428L15.9055 26.7222L16 26.7988L16.0944 26.7222L16.9325 26.0428C17.2704 25.7689 17.7663 25.8208 18.0402 26.1587C18.314 26.4965 18.2622 26.9924 17.9243 27.2663L16.843 28.1429L16.7875 28.1879V28.2594V30.0284V30.2128L16.968 30.1752C18.7141 29.8117 20.1368 28.4826 20.5834 26.6965ZM23.7985 15.1302L23.8401 15.2125L23.9323 15.2125L25.6755 15.2126C27.2751 15.2126 28.6278 14.1393 29.0529 12.6757L29.1086 12.4839H28.9088H22.0206H21.6127L21.9235 12.7481C22.7021 13.4102 23.3369 14.2172 23.7985 15.1302Z" fill="#7B8E98" stroke="white" stroke-width="0.3"/>
</svg>
