<svg width="32" height="32" viewBox="0 0 32 32" fill="none" xmlns="http://www.w3.org/2000/svg">
<g clip-path="url(#clip0_7939_15906)">
<path d="M13.1626 14.576C13.1626 14.0581 12.7427 13.6382 12.2248 13.6382C11.7069 13.6382 11.287 14.0581 11.287 14.576C11.287 15.0939 11.7069 15.5138 12.2248 15.5138C12.7427 15.5138 13.1626 15.0939 13.1626 14.576Z" fill="#7B8E98"/>
<path d="M20.7111 14.576C20.7111 14.0581 20.2912 13.6382 19.7733 13.6382C19.2554 13.6382 18.8355 14.0581 18.8355 14.576C18.8355 15.0939 19.2554 15.5138 19.7733 15.5138C20.2912 15.5138 20.7111 15.0939 20.7111 14.576Z" fill="#7B8E98"/>
<path d="M19.5329 18.7506L17.13 21.4918L17.0406 21.5939L17.1332 21.6931L19.3362 24.0523L19.3362 24.0523L19.3391 24.0553C20.3051 25.034 20.3011 26.6165 19.3272 27.5905L19.3272 27.5905L19.3252 27.5925C18.4965 28.4534 17.0422 28.5668 16.0898 27.8545L16 27.7873L15.9101 27.8545C14.9578 28.5668 13.5033 28.4534 12.6748 27.5925L12.6748 27.5925L12.6728 27.5905C11.6988 26.6165 11.6949 25.0339 12.6609 24.0551L12.661 24.0551L12.6638 24.0521L14.8675 21.6939L14.9602 21.5947L14.8707 21.4926L12.4672 18.7506L16 16.0492L19.5329 18.7506ZM17.1437 19.1071L17.2478 18.9866L17.1213 18.8898L16.0911 18.1021L16 18.0325L15.9089 18.1021L14.8788 18.8898L14.7522 18.9866L14.8564 19.1071L15.8865 20.2988L16 20.43L16.1135 20.2988L17.1437 19.1071ZM15.8911 22.906L13.7849 25.1592C13.4234 25.5227 13.4237 26.112 13.7858 26.4753C14.136 26.8389 14.7567 26.8389 15.107 26.4753L16 25.5822L16.8931 26.4753C17.2434 26.839 17.864 26.8389 18.2143 26.4752C18.5766 26.1117 18.5766 25.5218 18.2142 25.1583C18.2139 25.158 18.2136 25.1576 18.2133 25.1573L18.1946 25.1379L18.1929 25.1361L16.1103 22.9061L16.0008 22.7888L15.8911 22.906ZM26.5384 26.5456L26.5392 26.5467C28.0521 28.7702 26.3932 31.8726 23.7007 31.8499H23.6995L8.30053 31.8499L8.29925 31.8499C5.6077 31.8728 3.94754 28.7706 5.46096 26.5467L5.46175 26.5455C6.4287 25.095 6.93985 23.4067 6.93985 21.6636V14.1296C6.93985 11.3357 8.21106 8.8329 10.2063 7.16923L10.3028 7.08877L10.2405 6.97967C9.08281 4.95134 10.4206 2.31275 12.7005 2.00919L12.7732 1.99951L12.8102 1.93623C14.2028 -0.445024 17.7967 -0.445795 19.1899 1.93623L19.2269 1.99952L19.2996 2.00919C21.5788 2.31251 22.9176 4.95099 21.7596 6.97966L21.6973 7.08877L21.7938 7.16923C23.789 8.8329 25.0602 11.3357 25.0602 14.1296V21.6636C25.0602 23.4067 25.5714 25.095 26.5384 26.5456ZM13.2295 3.55009L13.2281 3.55006L11.5433 5.34761H11.3933C11.3933 5.34767 11.3933 5.34773 11.3933 5.3478C11.3933 5.59636 11.4432 5.83681 11.5385 6.05823L11.6044 6.21119L11.7496 6.12976C14.2472 4.72965 17.7529 4.72959 20.2504 6.12976L20.3935 6.20998L20.4607 6.06029C20.9856 4.88956 20.0589 3.50152 18.7702 3.55011C18.77 3.55011 18.7699 3.55012 18.7697 3.55013L18.2013 3.56837L17.9953 3.05995C17.9953 3.05984 17.9953 3.05973 17.9952 3.05962C17.2831 1.27582 14.7174 1.27505 14.0049 3.05961C14.0048 3.05972 14.0048 3.05983 14.0047 3.05994L13.7987 3.56837L13.2295 3.55009ZM23.4847 14.1296H23.4848L23.4846 14.1235C23.0763 4.20689 8.92754 4.19836 8.51551 14.1234L8.51538 14.1234V14.1296V21.6636C8.51538 23.7187 7.91299 25.7086 6.77311 27.4188C5.95694 28.6189 6.84905 30.2861 8.3011 30.2744H23.699C25.1506 30.2862 26.0432 28.6192 25.227 27.4188C24.0871 25.7086 23.4847 23.7186 23.4847 21.6636V14.1296Z" fill="#7B8E98" stroke="white" stroke-width="0.3"/>
</g>
<defs>
<clipPath id="clip0_7939_15906">
<rect width="32" height="32" fill="white"/>
</clipPath>
</defs>
</svg>
