<svg width="32" height="32" viewBox="0 0 32 32" fill="none" xmlns="http://www.w3.org/2000/svg">
<path d="M21.1544 14.1039C21.1297 14.0966 21.1057 14.0897 21.0824 14.083C21.0511 14.074 21.0122 14.0629 20.9841 14.0536C20.9748 14.0255 20.9637 13.9866 20.9546 13.9553C20.948 13.9319 20.9411 13.9079 20.9338 13.8832C20.8054 13.4505 20.5681 13.0524 20.2475 12.7317C19.184 11.6682 17.4536 11.6682 16.3901 12.7317C15.5081 13.6138 15.3518 14.9545 15.9409 15.9983L12.9705 18.9687C11.9266 18.3795 10.586 18.5359 9.70392 19.418C8.64581 20.4333 8.64581 22.2601 9.70392 23.2753C10.0246 23.5961 10.4228 23.8334 10.8553 23.9615C10.88 23.9689 10.9041 23.9759 10.9276 23.9825C10.9588 23.9915 10.9978 24.0027 11.0258 24.0119C11.0351 24.04 11.0462 24.0789 11.0551 24.11C11.0619 24.1335 11.0688 24.1576 11.0761 24.1823C11.6535 26.1516 14.1721 26.791 15.6197 25.3338C16.5018 24.4518 16.6581 23.111 16.069 22.0673L19.0394 19.0969C20.0831 19.6861 21.4239 19.5295 22.3059 18.6475C22.8157 18.1377 23.0977 17.4552 23.0999 16.7257C23.1021 15.9918 22.8201 15.3044 22.3059 14.7901C21.9852 14.4694 21.587 14.2322 21.1544 14.1039ZM21.4219 17.7634C20.8563 18.329 19.9826 18.3521 19.3892 17.8172C19.1423 17.5945 18.7639 17.6041 18.5286 17.8394L14.8116 21.5563C14.5763 21.7916 14.5666 22.1699 14.7894 22.417C16.0178 23.8817 14.0443 25.7508 12.6465 24.4497C12.4701 24.2734 12.3451 24.0638 12.2749 23.8268L12.257 23.7653C12.2054 23.5853 12.1347 23.3387 11.9168 23.1208C11.6989 22.9031 11.4524 22.8323 11.2724 22.7807L11.2107 22.7628C10.9739 22.6926 10.7644 22.5676 10.588 22.3913C10.0149 21.8414 10.015 20.852 10.588 20.3021C11.1447 19.7454 12.0375 19.7225 12.6206 20.2484C12.8677 20.4711 13.246 20.4614 13.4813 20.2262L17.1983 16.5092C17.4335 16.2739 17.4433 15.8956 17.2205 15.6485C16.6855 15.0553 16.7086 14.1814 17.2742 13.6158C17.8404 13.0495 18.7972 13.0495 19.3634 13.6158C19.5397 13.7921 19.6647 14.0017 19.7349 14.2385L19.7527 14.2998C19.8043 14.4799 19.875 14.7265 20.0931 14.9447C20.3111 15.1626 20.5578 15.2333 20.7378 15.2849L20.799 15.3026C21.856 15.5958 22.1981 16.9992 21.4219 17.7634Z" fill="#7B8E98"/>
<g clip-path="url(#clip0_7939_16929)">
<path d="M18.968 3.0789C18.0595 2.01896 17.2418 1.08016 16.6059 0.292782C16.5756 0.232214 16.515 0.20193 16.4847 0.171647C16.1516 -0.100908 15.6671 -0.0403407 15.3945 0.292782C14.7586 1.08016 13.9409 2.01896 13.0324 3.0789C9.0349 7.71234 3.49295 14.1325 3.49295 19.4928C3.49295 22.9451 4.88601 26.0644 7.1573 28.3357C9.42859 30.5767 12.5478 32 16.0002 32C19.4526 32 22.5718 30.607 24.8431 28.3357C27.1144 26.0644 28.5074 22.9451 28.5074 19.4928C28.5074 14.1325 22.9655 7.71234 18.968 3.0789ZM23.7529 27.2152C21.7541 29.2139 19.0286 30.4555 16.0002 30.4555C12.9718 30.4555 10.2463 29.2139 8.24752 27.2454C6.27907 25.277 5.03743 22.5212 5.03743 19.4928C5.03743 14.7079 10.3674 8.53 14.2134 4.07827C14.8494 3.32117 15.4551 2.62464 16.0002 1.9584C16.5453 2.62464 17.151 3.32117 17.7869 4.04798C21.633 8.49972 26.963 14.6473 26.963 19.4625C26.963 22.4909 25.7213 25.2164 23.7529 27.2152Z" fill="#7B8E98"/>
</g>
<defs>
<clipPath id="clip0_7939_16929">
<rect width="32" height="32" fill="white"/>
</clipPath>
</defs>
</svg>
