<svg width="32" height="32" viewBox="0 0 32 32" fill="none" xmlns="http://www.w3.org/2000/svg">
<g clip-path="url(#clip0_7939_16952)">
<path d="M14.0471 19.8138C14.0471 19.2962 13.6275 18.8765 13.1098 18.8765C12.5922 18.8765 12.1726 19.2962 12.1726 19.8138C12.1726 20.3314 12.5922 20.7511 13.1098 20.7511C13.6275 20.7511 14.0471 20.3314 14.0471 19.8138Z" fill="#7B8E98"/>
<path d="M19.8275 19.8138C19.8275 19.2962 19.4078 18.8765 18.8902 18.8765C18.3726 18.8765 17.9529 19.2962 17.9529 19.8138C17.9529 20.3314 18.3726 20.7511 18.8902 20.7511C19.4078 20.7511 19.8275 20.3314 19.8275 19.8138Z" fill="#7B8E98"/>
<path d="M19.6682 31.9963C19.5916 31.9987 19.5155 31.9999 19.4395 31.9999C18.2222 31.9999 17.0452 31.6876 16.0001 31.0919C14.8913 31.7252 13.6215 32.0387 12.3319 31.9963C8.75011 31.9508 5.60923 28.7756 5.60074 25.1937C5.55219 22.9671 6.55218 20.8855 8.29654 19.5352L19.6682 31.9963ZM19.6682 31.9963C23.2501 31.9508 26.3908 28.7755 26.3994 25.1937L19.6682 31.9963ZM23.5538 19.5448L23.5582 19.6123L23.6117 19.6538C25.3185 20.975 26.2969 23.0114 26.2494 25.1904L26.2494 25.1933C26.241 28.6932 23.1662 31.8018 19.6663 31.8463L19.6663 31.8462L19.6635 31.8463C19.5884 31.8487 19.5139 31.8499 19.4396 31.8499C18.2481 31.8499 17.0967 31.5444 16.0743 30.9615L16 30.9192L15.9257 30.9616C14.8412 31.581 13.599 31.8879 12.3368 31.8463L12.3338 31.8463C8.83402 31.8018 5.75904 28.6933 5.75076 25.1933L5.7507 25.1904C5.70319 23.0115 6.68155 20.975 8.38836 19.6538L8.44187 19.6124L8.44623 19.5449L8.56357 17.7287C8.64173 16.5192 9.00832 15.3911 9.59346 14.4094L9.65263 14.3102L9.57175 14.2276C8.994 13.6381 8.57259 12.9054 8.35676 12.1L5.29751 0.682854L6.63818 0.323594L6.63819 0.323625L6.64117 0.322761C9.12705 -0.398776 11.9267 1.21753 12.5447 3.73118L12.5447 3.73119L12.5455 3.73418L14.4335 10.7802L14.4697 10.9153L14.6069 10.8886C15.5057 10.7141 16.4943 10.7141 17.393 10.8886L17.5303 10.9153L17.5665 10.7802L19.4545 3.73418L19.4545 3.73419L19.4552 3.73118C20.0734 1.2176 22.8728 -0.398716 25.3588 0.322793L25.3618 0.323594L26.7025 0.682854L23.6433 12.0999C23.4275 12.9054 23.0061 13.6381 22.4283 14.2276L22.3474 14.3101L22.4066 14.4094C22.9917 15.391 23.3583 16.5192 23.4365 17.7287L23.5538 19.5448ZM24.7306 1.95846L24.7738 1.79722L24.6089 1.77143C23.8788 1.65727 23.1373 1.79472 22.489 2.169L22.564 2.29891L22.489 2.16901C21.7377 2.60279 21.1998 3.30382 20.9753 4.14172L21.1202 4.18055L20.9753 4.14173L19.0622 11.2812L19.0297 11.4026L19.1435 11.4559C19.9327 11.8253 20.6486 12.3294 21.2601 12.9394L21.3763 13.0553L21.4813 12.9291C21.7797 12.5705 22 12.149 22.1223 11.6925L24.7306 1.95846ZM7.38846 1.7718L7.22686 1.79995L7.26932 1.95839L9.87752 11.6924L10.0224 11.6536L9.87752 11.6924C9.99986 12.149 10.2202 12.5705 10.5186 12.9291L10.6236 13.0553L10.7398 12.9393C11.3514 12.3294 12.0671 11.8253 12.8564 11.4558L12.9702 11.4025L12.9376 11.2811L11.025 4.14313C10.6362 2.57136 8.97756 1.49496 7.38846 1.7718ZM16.7873 29.4683V29.5557L16.8633 29.5988C17.6955 30.0708 18.6375 30.304 19.6128 30.2726C20.9487 30.2296 22.2075 29.6768 23.157 28.7171C24.1064 27.7574 24.646 26.4926 24.6752 25.156C24.7144 23.3614 23.8476 21.6912 22.3574 20.6891L22.036 20.473L21.8653 17.8302L21.8654 17.8302L21.8649 17.8253C21.1546 10.5426 10.8482 10.5369 10.1352 17.8253L10.1352 17.8253L10.1348 17.8302L9.96408 20.473L9.64482 20.6877C9.64449 20.6879 9.64415 20.6881 9.64382 20.6884C6.93761 22.4438 6.52974 26.4578 8.84401 28.718C9.7934 29.6771 11.0518 30.2296 12.3873 30.2726C13.3622 30.304 14.3045 30.0708 15.1368 29.5988L15.2128 29.5556V29.4683V26.6033V26.5248L15.1483 26.48L14.5383 26.0565C14.1811 25.8086 14.0926 25.318 14.3405 24.9609C14.5885 24.6037 15.079 24.5152 15.4362 24.7631L15.9145 25.0952L16.0001 25.1545L16.0856 25.0952L16.5639 24.7631C16.9211 24.5152 17.4116 24.6037 17.6596 24.9609C17.9075 25.318 17.819 25.8086 17.4618 26.0565L16.8518 26.48L16.7873 26.5248V26.6033V29.4683Z" fill="#7B8E98" stroke="white" stroke-width="0.3"/>
</g>
<defs>
<clipPath id="clip0_7939_16952">
<rect width="32" height="32" fill="white"/>
</clipPath>
</defs>
</svg>
