<svg width="32" height="32" viewBox="0 0 32 32" fill="none" xmlns="http://www.w3.org/2000/svg">
<g clip-path="url(#clip0_7939_10619)">
<path d="M24.5578 8.42809H24.3801H21.416C18.5643 8.42809 16.244 10.7484 16.244 13.6001V14.8827C16.244 17.7344 18.5643 20.0547 21.416 20.0547H23.3519H23.5646L23.4932 20.255C23.1881 21.1118 22.9923 21.9964 22.9075 22.9002L22.8805 23.1875L22.6609 23.0003C21.8152 22.2797 20.7611 21.8599 19.6517 21.8083L19.6517 21.8083C18.9691 21.7763 18.2959 21.8811 17.6629 22.1169C16.6557 22.495 15.5323 22.4949 14.5251 22.117C14.5251 22.117 14.5251 22.117 14.5251 22.117L14.5778 21.9765C13.9255 21.7335 13.2315 21.6253 12.5294 21.6585L24.5578 8.42809ZM24.5578 8.42809L24.528 8.25294M24.5578 8.42809L24.528 8.25294M24.528 8.25294C24.1649 6.1178 22.302 4.487 20.0647 4.487H11.9337C9.43718 4.487 7.40633 6.51785 7.40633 9.01438V15.6603M24.528 8.25294L7.40633 15.6603M12.6094 23.381L12.6094 23.381C13.0791 23.3593 13.5411 23.4305 13.9756 23.5924L13.9759 23.5925C15.3334 24.1021 16.8543 24.1021 18.2118 23.5925L18.2121 23.5923C18.6465 23.4304 19.1085 23.3592 19.5783 23.381L19.5783 23.381C21.3358 23.4628 22.7743 24.9019 22.855 26.6593C22.855 26.6593 22.855 26.6593 22.855 26.6593L22.7052 26.6662C22.7472 27.5777 22.4246 28.4415 21.797 29.0987L12.6094 23.381ZM12.6094 23.381C10.8518 23.4628 9.41341 24.9019 9.33269 26.6593C9.2889 27.6112 9.62608 28.5148 10.2818 29.2017L12.6094 23.381ZM7.40633 15.6603C7.40633 16.9748 7.71107 18.2936 8.28792 19.4749L7.40633 15.6603ZM2.4712 9.65642L2.60467 9.51721L2.43689 9.42211C1.07534 8.65036 0.155341 7.1881 0.155341 5.5155V0.937235C0.155341 0.502457 0.507797 0.15 0.942575 0.15C1.37016 0.15 1.73375 0.511974 1.89573 0.969561C2.2959 2.10003 3.37563 2.91253 4.64234 2.91253H27.3576C28.6243 2.91253 29.704 2.10003 30.1042 0.969562C30.2662 0.511974 30.6298 0.15 31.0574 0.15C31.4921 0.15 31.8446 0.502457 31.8446 0.937236V5.5155C31.8446 7.18852 30.9242 8.65109 29.5621 9.42272L29.3943 9.51778L29.5277 9.65702C30.214 10.3731 30.6359 11.3436 30.6359 12.4109V16.5262H28.5747C27.7706 16.5262 27.0215 16.2867 26.3948 15.8752L26.1697 15.7274L26.1626 15.9966C26.1248 17.4295 25.8127 18.8208 25.2332 20.1374C24.7024 21.3432 24.4333 22.623 24.4333 23.9403V26.4732H24.4203L24.4298 26.6322C24.5962 29.3955 22.1831 31.9039 19.4165 31.843V31.843H19.4132C18.8 31.843 18.201 31.7335 17.6325 31.5175L17.5792 31.6577L17.6325 31.5175C17.1376 31.3295 16.6199 31.234 16.0939 31.234C15.5679 31.234 15.0501 31.3295 14.5553 31.5175L14.5546 31.5178C11.2269 32.8004 7.59753 30.198 7.75816 26.63L7.76522 26.4732H7.7545V23.9802C7.7545 22.6657 7.44976 21.3469 6.87304 20.1656C6.24091 18.871 5.88525 17.4355 5.83746 15.9945L5.8286 15.7273L5.60515 15.8741C4.97811 16.2863 4.22852 16.5262 3.42362 16.5262H1.3625V12.4108C1.3625 11.3433 1.78457 10.3726 2.4712 9.65642ZM1.96935 3.60179L1.72981 3.42356V3.72213V5.5155C1.72981 7.12166 3.03624 8.42809 4.64234 8.42809H5.72497H5.85833L5.87394 8.29565C6.03605 6.92007 6.65765 5.68277 7.5812 4.74208L7.83164 4.487H7.47416H4.64234C3.64158 4.487 2.71653 4.15772 1.96935 3.60179ZM2.93691 14.8017V14.9517H3.08691H3.42356C4.75161 14.9517 5.83186 13.8715 5.83186 12.5434V10.1526V10.0026H5.68186H5.3452C4.01715 10.0026 2.93691 11.0828 2.93691 12.4109V14.8017ZM24.0629 18.4802H24.1749L24.2067 18.3728C24.4628 17.5079 24.592 16.613 24.592 15.7001L24.5921 10.1526L24.5921 10.0026H24.4421H21.416C19.4322 10.0026 17.8185 11.6163 17.8185 13.6001V14.8827C17.8185 16.8665 19.4322 18.4802 21.416 18.4802H24.0629ZM18.1913 30.0455L18.245 29.9054L10.3909 29.0987C11.281 30.0532 12.7293 30.3751 13.9429 29.9054L13.9965 30.0455C13.9966 30.0455 13.9966 30.0454 13.9967 30.0454C15.339 29.5315 16.849 29.5315 18.1913 30.0455C18.1913 30.0455 18.1913 30.0455 18.1913 30.0455ZM28.9114 14.9517H29.0614V14.8017V12.4109C29.0614 11.0828 27.9812 10.0026 26.6531 10.0026H26.3165H26.1665V10.1526V12.5434C26.1665 13.8715 27.2467 14.9517 28.5747 14.9517H28.9114ZM26.1244 8.29565L26.14 8.42809H26.2734H27.3576C28.9637 8.42809 30.2701 7.12166 30.2701 5.5155V3.72207V3.42348L30.0306 3.60173C29.2833 4.15778 28.3584 4.487 27.3576 4.487H24.5242H24.1667L24.4172 4.74208C25.3407 5.68277 25.9623 6.92001 26.1244 8.29565Z" fill="#7B8E98" stroke="white" stroke-width="0.3"/>
<path d="M20.1167 15.5398C20.1167 15.0222 20.5363 14.6025 21.0539 14.6025C21.5715 14.6025 21.9911 15.0222 21.9911 15.5398C21.9911 16.0575 21.5715 16.4771 21.0539 16.4771C20.5363 16.4771 20.1167 16.0575 20.1167 15.5398Z" fill="#7B8E98"/>
<path d="M9.99155 15.5398C9.99155 15.0222 10.4112 14.6025 10.9288 14.6025C11.4464 14.6025 11.866 15.0222 11.866 15.5398C11.866 16.0575 11.4464 16.4771 10.9288 16.4771C10.4112 16.4771 9.99155 16.0575 9.99155 15.5398Z" fill="#7B8E98"/>
<path d="M12.1938 26.6233C12.1938 26.1057 12.6134 25.686 13.131 25.686C13.6486 25.686 14.0682 26.1057 14.0682 26.6233C14.0682 27.141 13.6486 27.5606 13.131 27.5606C12.6134 27.5606 12.1938 27.141 12.1938 26.6233Z" fill="#7B8E98"/>
<path d="M18.1196 26.6233C18.1196 26.1057 18.5392 25.686 19.0569 25.686C19.5745 25.686 19.9941 26.1057 19.9941 26.6233C19.9941 27.141 19.5745 27.5606 19.0569 27.5606C18.5392 27.5606 18.1196 27.141 18.1196 26.6233Z" fill="#7B8E98"/>
</g>
<defs>
<clipPath id="clip0_7939_10619">
<rect width="32" height="32" fill="white"/>
</clipPath>
</defs>
</svg>
