<svg width="32" height="32" viewBox="0 0 32 32" fill="none" xmlns="http://www.w3.org/2000/svg">
<g clip-path="url(#clip0_7939_16910)">
<path d="M21.5518 20.9691C21.6618 20.9347 21.7718 20.9032 21.8817 20.8742C21.8694 20.9298 21.8567 20.985 21.8434 21.0397L21.5518 20.9691ZM21.5518 20.9691C21.5786 20.8588 21.6032 20.747 21.6252 20.6338C21.5709 20.6495 21.5166 20.6658 21.4622 20.6828L21.5518 20.9691ZM10.6111 5.92249C10.3089 6.02252 8.17287 6.79547 6.51462 9.0138L6.45643 9.09165L6.45494 9.18883C6.45052 9.47751 6.44879 9.76595 6.4515 10.0537L6.4515 10.0538C6.4584 10.7615 6.48547 11.4406 6.52806 12.0893L6.57592 12.8182L7.05417 12.2661C7.46454 11.7923 7.9462 11.3555 8.49853 10.9613C9.98974 9.89724 11.4781 9.52657 11.5258 9.51501L11.5263 9.51489C12.0362 9.39038 12.5501 9.70286 12.6744 10.2123L12.6744 10.2124C12.7987 10.7209 12.4882 11.2338 11.9805 11.3598L11.9805 11.3598L11.9783 11.3603C11.9433 11.3693 10.7271 11.6857 9.53894 12.5537C8.04405 13.6452 7.25494 15.1121 7.2167 16.8955L7.21668 16.8962C7.21653 16.9039 7.21614 16.9082 7.21524 16.9177C7.21455 16.9251 7.21357 16.9357 7.21218 16.9534L7.20871 16.9976L7.21816 17.0409C7.65036 19.0202 8.13645 20.2985 8.30531 20.7119L8.37223 20.8758L8.54801 20.8964C9.15639 20.968 9.80924 21.0745 10.4512 21.2856L10.954 21.4509L10.8376 20.9346C10.5836 19.8079 10.5376 18.5941 11.2331 17.3493C11.4892 16.8914 12.0679 16.7276 12.526 16.9834C12.984 17.2395 13.1478 17.8182 12.8918 18.276L12.8917 18.2761C12.2988 19.3374 12.6108 20.3915 13.0598 21.794C13.2851 22.4981 13.508 23.1965 13.6026 23.9429L13.6026 23.9432C13.6275 24.1375 13.6556 24.3007 13.6844 24.4668C13.6844 24.4668 13.6844 24.4668 13.6844 24.4669L13.6856 24.4736C13.7855 25.0507 13.8894 25.651 13.9203 27.5662L13.9262 27.9305L14.2825 27.8549C14.8408 27.7364 15.4156 27.6751 16.0001 27.6751C16.5843 27.6751 17.1591 27.7364 17.7173 27.8549L18.0737 27.9305L18.0796 27.5662C18.1105 25.651 18.2144 25.0507 18.3143 24.4736L18.3154 24.4669C18.3154 24.4668 18.3154 24.4668 18.3154 24.4668C18.3442 24.3007 18.3724 24.1376 18.3972 23.9435L18.3973 23.9431C18.4968 23.1581 18.7483 22.452 19.0038 21.7362C19.4967 20.3565 19.8083 19.3976 19.2174 18.2466L19.2174 18.2466C18.9776 17.7799 19.1617 17.2071 19.6283 16.9677L19.6283 16.9676C20.0952 16.7279 20.6678 16.912 20.9075 17.3788C21.568 18.6651 21.5172 19.8376 21.2603 20.8985L21.1355 21.4137L21.6414 21.2554C22.2532 21.064 22.8723 20.9646 23.4511 20.8967L23.6275 20.876L23.6942 20.7113C23.8634 20.2935 24.3488 19.0064 24.7807 17.0269L24.79 16.9846L24.7869 16.9413C24.7853 16.9196 24.7844 16.9113 24.7839 16.9064L10.6111 5.92249ZM10.6111 5.92249C10.6145 5.92081 10.6191 5.91854 10.6246 5.91566C10.6422 5.90645 10.6694 5.89121 10.7027 5.86945C10.7697 5.82555 10.8573 5.75745 10.9392 5.6619C11.096 5.4789 11.2456 5.1814 11.1599 4.70666C11.1183 4.47606 11.0311 4.34022 10.9404 4.25556C10.8469 4.16833 10.7296 4.1169 10.6024 4.08989C10.4743 4.06268 10.3464 4.06258 10.2474 4.0706C10.1987 4.07453 10.1592 4.08025 10.1328 4.08475C10.1197 4.08699 10.11 4.0889 10.1043 4.0901L10.1041 4.09012C9.97268 4.12918 8.67305 4.53432 7.1867 5.66417L6.62561 6.09069L6.70717 5.39062C6.85894 4.0879 7.07709 2.77221 7.3623 1.45066M10.6111 5.92249L7.3623 1.45066M25.3659 0.321587C25.879 0.211063 26.3842 0.537059 26.4949 1.04994C27.1556 4.11198 27.476 7.14739 27.4482 10.0717C27.4038 14.7519 26.5263 18.2586 25.9233 20.127L25.774 20.5896L26.2545 20.5156C26.9538 20.4079 27.8061 20.2319 28.4636 19.7203C29.3958 18.9953 29.7999 17.7157 29.7999 15.9376C29.7999 15.4131 30.2251 14.9878 30.7499 14.9878C31.2746 14.9878 31.6999 15.4131 31.6999 15.9376C31.6999 18.4166 30.9821 20.1686 29.6301 21.2201C28.4746 22.1186 27.1029 22.3166 26.1396 22.4523L26.1395 22.4523L26.121 22.4549C25.9005 22.4861 25.6763 22.5178 25.5156 22.553C25.1587 22.6313 24.7503 22.6723 24.2937 22.7177C23.338 22.8126 22.4619 22.9272 21.7632 23.2353C21.0409 23.5538 20.5077 24.0786 20.2432 24.96C20.2198 25.0375 20.1877 25.1094 20.1484 25.1755L20.1171 25.2281L20.109 25.2889C20.0351 25.8404 19.9765 26.6657 19.9708 28.5229L19.9703 28.6957L20.1196 28.7829C20.7245 29.1361 21.2883 29.5693 21.7968 30.0786L21.7969 30.0787C22.1677 30.4496 22.1675 31.0511 21.7965 31.4221C21.6108 31.6073 21.3682 31.6999 21.1248 31.6999C20.8811 31.6999 20.6384 31.6072 20.4528 31.4214C19.2637 30.2311 17.6813 29.5751 15.9998 29.5751C14.3184 29.5751 12.7359 30.2311 11.5471 31.4214C11.1761 31.7927 10.5746 31.7929 10.2035 31.4222L10.2035 31.4221C9.83222 31.0514 9.83181 30.4499 10.2027 30.0786C10.7114 29.5695 11.2753 29.1361 11.88 28.7831L12.0293 28.696L12.0288 28.5232C12.0234 26.6656 11.9645 25.8404 11.8909 25.289L11.8827 25.2279L11.8511 25.1749C11.8119 25.1092 11.78 25.0377 11.7569 24.9607L11.7569 24.9605C11.4923 24.0789 10.959 23.554 10.2366 23.2355C9.53786 22.9274 8.6618 22.8128 7.70624 22.7177L7.7062 22.7177C7.24952 22.6723 6.84093 22.6313 6.48424 22.553L6.48385 22.5529C6.32362 22.518 6.10172 22.4854 5.88326 22.4532L5.87869 22.4526C5.87867 22.4526 5.87865 22.4526 5.87863 22.4526C4.9158 22.3108 3.543 22.1041 2.38384 21.2052C1.02181 20.1487 0.3 18.4012 0.3 15.9376C0.3 15.4128 0.725258 14.9876 1.25 14.9876C1.77455 14.9876 2.20001 15.4129 2.20001 15.9376C2.20001 17.7303 2.6282 18.8281 3.32886 19.5056C4.02115 20.175 4.92757 20.3796 5.74181 20.5102L6.22501 20.5877L6.07486 20.1219C5.47215 18.2523 4.59605 14.7477 4.55171 10.0717C4.52386 7.14737 4.84426 4.11195 5.50518 1.0499L5.50519 1.04984C5.61575 0.537104 6.12156 0.211052 6.63395 0.321587H25.3659ZM25.3659 0.321587L25.3026 0.0283489L25.3658 0.321613L25.3659 0.321587ZM7.3623 1.45066C7.47285 0.937827 7.14687 0.432404 6.63401 0.321599L7.3623 1.45066ZM24.3443 1.51395L24.6376 1.45071C24.6376 1.4507 24.6376 1.45068 24.6376 1.45066L24.3443 1.51395ZM21.3593 5.91288L21.2764 6.20122L21.3597 5.91301C21.3595 5.91296 21.3594 5.91292 21.3593 5.91288ZM23.5013 10.9613C23.5013 10.9613 23.5013 10.9613 23.5013 10.9613L23.6756 10.7171L23.5013 10.9613ZM24.8905 11.7611C24.8849 11.8577 24.879 11.9537 24.8726 12.049L25.172 12.0689L25.3986 11.8724C25.3331 11.7969 25.266 11.7223 25.1973 11.6486C25.2253 11.1338 25.243 10.6009 25.2484 10.0508C25.2511 9.76618 25.2494 9.48029 25.2452 9.19342L24.8905 11.7611ZM24.7832 16.8955C24.7832 16.8953 24.7832 16.8951 24.7832 16.8949L24.4832 16.9019L24.7832 16.8955Z" fill="#7B8E98" stroke="white" stroke-width="0.6"/>
</g>
<defs>
<clipPath id="clip0_7939_16910">
<rect width="32" height="32" fill="white"/>
</clipPath>
</defs>
</svg>
