<svg width="32" height="32" viewBox="0 0 32 32" fill="none" xmlns="http://www.w3.org/2000/svg">
<path d="M25.3945 15.3207V15.3569L25.4111 15.3891C25.8761 16.2959 26.1208 17.3085 26.1208 18.3333C26.1208 20.1437 25.3714 21.782 24.1662 22.9555L24.1208 22.9997V23.063V28.3958C24.1208 30.3003 22.5712 31.85 20.6667 31.85C18.7622 31.85 17.2125 30.3003 17.2125 28.3958V28.2459L17.0626 28.2458L16.0892 28.2453C14.9115 28.2447 13.8555 27.5197 13.4317 26.421L12.8386 24.8835L12.8016 24.7875H12.6987H12.3333C8.77462 24.7875 5.87922 21.892 5.87922 18.3333C5.87922 17.3085 6.12401 16.2959 6.589 15.3892L6.60553 15.357V15.3208V9.63662C6.60553 8.79085 6.97561 7.98743 7.61839 7.43775L7.66188 7.40057L7.66955 7.34387C7.92878 5.42843 8.84695 3.66564 10.2814 2.34569C11.8201 0.929749 13.8196 0.15 15.9122 0.15C20.0318 0.15 23.5009 3.14315 24.1297 7.1712L24.1382 7.22582L24.1802 7.26185C24.951 7.924 25.3945 8.88961 25.3945 9.90582V15.3207ZM18.7983 25.7915L18.7875 25.8183V25.8472V28.3958C18.7875 29.4322 19.6304 30.275 20.6667 30.275C21.703 30.275 22.5458 29.4322 22.5458 28.3958V20.6666C22.5458 18.8527 21.0703 17.3773 19.2565 17.3773H18.9375H18.7875V17.5273V18.1334V18.1921L18.8273 18.2352L19.6958 19.1761C20.4411 19.9835 20.6559 21.1474 20.2478 22.1676L18.7983 25.7915ZM18.315 15.738L18.3598 15.8023H18.438H19.2565C21.6301 15.8023 23.6116 17.5122 24.0357 19.7651L24.3263 19.7819C24.469 19.3239 24.5458 18.8373 24.5458 18.3333C24.5458 17.5388 24.3587 16.8865 24.1713 16.4325C24.0776 16.2054 23.9837 16.0274 23.9126 15.9055C23.8771 15.8445 23.8472 15.7974 23.8259 15.7652C23.8237 15.7618 23.8216 15.7586 23.8195 15.7556V10.632C23.8195 9.6339 23.3925 8.68457 22.648 8.0227L22.6136 7.71373C22.2337 4.29952 19.3524 1.725 15.9122 1.725C14.2161 1.725 12.5949 2.35706 11.3478 3.50468L11.4493 3.61506C10.237 4.73069 9.48959 6.24487 9.34497 7.87869L9.19555 7.86546L9.19555 7.86546L9.16712 8.18652C8.54018 8.74582 8.18053 9.54679 8.18053 10.3889V15.7565C8.17821 15.7601 8.17576 15.7639 8.17319 15.7679C8.15199 15.8008 8.12223 15.8488 8.08678 15.9109C8.0159 16.0351 7.92212 16.2157 7.82854 16.4446C7.6415 16.9018 7.45422 17.5541 7.45422 18.3333C7.45422 20.8878 9.42737 22.9881 11.9293 23.1944L12.171 23.2144L12.0809 22.9892L11.7523 22.1677C11.3442 21.1474 11.5589 19.9835 12.3042 19.1761L13.1727 18.2352L13.2125 18.1921V18.1334V17.2333C13.2125 15.7564 14.4582 14.5458 16 14.5458C16.9644 14.5458 17.8146 15.0203 18.315 15.738ZM14.9027 25.8029C15.0822 26.2516 15.5167 26.5458 16 26.5458C16.4833 26.5458 16.9179 26.2516 17.0974 25.8029L18.346 22.6814C18.7971 21.5538 18.5597 20.2673 17.7359 19.3749L17.2125 18.8079V17.2333C17.2125 16.6062 16.6545 16.1208 16 16.1208C15.3456 16.1208 14.7875 16.6062 14.7875 17.2333V18.8079L14.2642 19.3749C13.4404 20.2673 13.203 21.5538 13.6541 22.6814L14.9027 25.8029Z" fill="#7B8E98" stroke="white" stroke-width="0.3"/>
<path d="M13.0128 12.0715C13.0128 11.5518 12.5914 11.1304 12.0716 11.1304C11.5518 11.1304 11.1304 11.5518 11.1304 12.0715C11.1304 12.5913 11.5518 13.0127 12.0716 13.0127C12.5914 13.0127 13.0128 12.5913 13.0128 12.0715Z" fill="#7B8E98"/>
<path d="M20.5422 12.0715C20.5422 11.5518 20.1208 11.1304 19.601 11.1304C19.0812 11.1304 18.6599 11.5518 18.6599 12.0715C18.6599 12.5913 19.0812 13.0127 19.601 13.0127C20.1208 13.0127 20.5422 12.5913 20.5422 12.0715Z" fill="#7B8E98"/>
</svg>
