<svg width="32" height="32" viewBox="0 0 32 32" fill="none" xmlns="http://www.w3.org/2000/svg">
<path d="M11.461 17.9339C12.0201 17.9339 12.4734 17.4807 12.4734 16.9216C12.4734 16.3624 12.0201 15.9092 11.461 15.9092C10.9019 15.9092 10.4486 16.3624 10.4486 16.9216C10.4486 17.4807 10.9019 17.9339 11.461 17.9339Z" fill="#7B8E98"/>
<path d="M20.539 17.9339C21.0981 17.9339 21.5514 17.4807 21.5514 16.9216C21.5514 16.3624 21.0981 15.9092 20.539 15.9092C19.9799 15.9092 19.5266 16.3624 19.5266 16.9216C19.5266 17.4807 19.9799 17.9339 20.539 17.9339Z" fill="#7B8E98"/>
<path d="M13.5817 26.6645C13.5817 26.1462 14.0018 25.7261 14.5201 25.7261V25.7261C15.0384 25.7261 15.4585 26.1462 15.4585 26.6645V26.9285C15.4585 27.4467 15.0384 27.8669 14.5201 27.8669V27.8669C14.0018 27.8669 13.5817 27.4467 13.5817 26.9285V26.6645Z" fill="#7B8E98"/>
<path d="M16.5414 26.6645C16.5414 26.1462 16.9616 25.7261 17.4798 25.7261V25.7261C17.9981 25.7261 18.4183 26.1462 18.4183 26.6645V26.9285C18.4183 27.4467 17.9981 27.8669 17.4798 27.8669V27.8669C16.9616 27.8669 16.5414 27.4467 16.5414 26.9285V26.6645Z" fill="#7B8E98"/>
<path d="M26.5514 0.680464L26.5514 0.680444L26.3316 0.157608L25.7661 0.199772L25.7562 0.0667352L25.7661 0.199773C25.7086 0.204055 24.9135 0.269589 23.9352 0.646419C22.957 1.02324 21.8055 1.70733 21.019 2.94286L20.8924 2.86231L21.019 2.94287C20.4152 3.89116 20.33 5.12936 20.4103 6.17058L20.4288 6.41043L20.2053 6.32148C20.1023 6.2805 19.999 6.24086 19.8938 6.20325C18.0529 5.5457 16.3296 5.57481 16.0057 5.58707L15.9943 5.5875L15.9943 5.58707C15.6707 5.57475 13.9471 5.54557 12.1063 6.20323L26.5514 0.680464ZM26.5514 0.680464C26.5777 0.742977 26.9222 1.57808 27.0922 2.71087C27.2625 3.84587 27.2546 5.26021 26.5972 6.49604C25.9566 7.70043 24.6916 8.50259 23.7927 8.94629L23.6438 9.01974L23.7319 9.16041C24.2478 9.98425 24.5973 10.9389 24.7677 12.0151C25.4801 16.5168 23.9104 20.3527 22.8597 22.9159L22.8593 22.9169C22.6539 23.4181 22.4607 23.8892 22.3135 24.2974C22.1673 24.7026 22.0609 25.06 22.0366 25.33C22.0216 25.4946 22.0092 25.6733 21.9961 25.8603L21.9958 25.8646L22.1454 25.8751L21.9958 25.8646C21.9182 26.9768 21.8125 28.4531 21.0265 29.6653C20.0944 31.1026 18.4195 31.8499 16 31.8499C13.5804 31.8499 11.9055 31.1027 10.9734 29.6653C10.1874 28.4531 10.0817 26.9768 10.0041 25.8646C9.99093 25.676 9.97833 25.4959 9.96342 25.3301L9.96342 25.33C9.93909 25.0601 9.83268 24.7027 9.68647 24.2974C9.53949 23.89 9.34684 23.4199 9.14187 22.9198L9.14026 22.9159L9.00147 22.9728L9.14026 22.9159C8.08958 20.3527 6.51983 16.5168 7.23231 12.0151L7.23231 12.0151C7.40259 10.9389 7.75213 9.98426 8.26803 9.16041L8.35612 9.01974L8.20729 8.94628C7.30837 8.50265 6.04341 7.70049 5.40278 6.49611C4.74541 5.26027 4.73752 3.8459 4.9078 2.71087C5.07775 1.57806 5.42226 0.742942 5.44854 0.680486L5.44856 0.680444L5.66837 0.157608L6.23388 0.199772L6.23389 0.199773C6.29135 0.204055 7.08645 0.269589 8.06472 0.646419C9.04296 1.02324 10.1944 1.70733 10.9811 2.94286C11.5847 3.89116 11.67 5.12936 11.5897 6.17058L11.5712 6.41043M26.5514 0.680464L11.5712 6.41043M11.5712 6.41043L11.7947 6.32148M11.5712 6.41043L11.7947 6.32148M11.7947 6.32148C11.8977 6.2805 12.0011 6.24086 12.1062 6.20324L11.7947 6.32148ZM15.84 13.9431C16.0239 14.0441 16.2065 14.127 16.38 14.195L16.5731 14.2707L16.5845 14.0636C16.6194 13.4315 16.7872 12.6464 17.2589 11.8051L17.128 11.7317L17.2589 11.8051C17.673 11.0663 17.9005 10.1368 17.9788 9.30901C18.018 8.89412 18.0202 8.50071 17.9882 8.16502C17.9565 7.83315 17.8903 7.54366 17.7833 7.34625L17.7477 7.28059L17.6739 7.26942C16.7546 7.1304 16.0867 7.16124 16.0453 7.1636C16.0445 7.16365 16.044 7.16368 16.0437 7.16371L16 7.16618L15.956 7.16368L14.1586 11.0065L14.0089 11.017C14.1009 12.3369 14.7183 13.3275 15.84 13.9431ZM15.84 13.9431L15.9121 13.8116L15.84 13.9431C15.84 13.9431 15.84 13.9431 15.84 13.9431ZM16.4348 14.0553L16.285 14.0471C16.2859 14.0298 16.287 14.0125 16.2881 13.995C16.3376 14.0163 16.3865 14.0364 16.4348 14.0553ZM16.4348 14.0553L16.4895 13.9157C16.475 13.91 16.4605 13.9042 16.4459 13.8983C16.4413 13.9516 16.4376 14.004 16.4348 14.0553ZM15.2399 7.17549L15.1963 7.17805L15.9547 7.1636C15.9425 7.16293 15.8696 7.1598 15.7488 7.1598C15.626 7.1598 15.4523 7.16305 15.2399 7.17549ZM6.84636 1.91122L6.70317 1.8739L6.66391 2.01657C6.53981 2.46749 6.40834 3.08979 6.389 3.75324C6.36969 4.41582 6.4619 5.12971 6.79486 5.75556C7.06 6.25398 7.52135 6.67363 7.99661 7.00304C8.47385 7.33383 8.97741 7.58204 9.34243 7.73364L9.42913 7.76965L9.49941 7.7074C9.57821 7.63762 9.6596 7.56949 9.74294 7.50219L9.78217 7.47053L9.7943 7.4216C9.898 7.00355 10.0176 6.34709 10.0357 5.67413C10.0537 5.00698 9.97294 4.29551 9.65087 3.78962L9.65087 3.78962C8.90228 2.61387 7.6315 2.11583 6.84636 1.91122ZM11.5339 25.1883L11.5339 25.1884C11.5501 25.3678 11.563 25.552 11.5767 25.7489L11.5771 25.7549L11.5771 25.7549L11.5787 25.7779C11.6525 26.8369 11.7312 27.9657 12.3071 28.8246C12.899 29.7074 13.9884 30.2731 16 30.2731C18.0115 30.2731 19.1009 29.7074 19.6928 28.8246C20.2687 27.9657 20.3474 26.8369 20.4212 25.7779L20.4228 25.7549C20.4367 25.5559 20.4497 25.3696 20.466 25.1883L20.3166 25.1748L20.466 25.1885C20.4714 25.1302 20.4792 25.0697 20.4885 25.007L20.5048 24.8963L20.4033 24.8491C18.3076 23.8739 16.1803 23.577 14.0785 23.9732C12.8492 24.2049 11.9673 24.6221 11.5849 24.8276L11.4914 24.8778L11.5077 24.9827C11.5187 25.0539 11.528 25.1225 11.5339 25.1883ZM21.4007 22.3179L21.2749 22.2663L21.4007 22.3178L21.4043 22.3091C22.4319 19.802 23.8544 16.3318 23.2103 12.2617L23.0621 12.2851L23.2103 12.2617C22.8769 10.1552 21.7135 8.66522 19.7602 7.84231L19.5252 7.74333L19.5528 7.99679C19.7147 9.4829 19.3332 11.3297 18.6343 12.5762C17.9142 13.8605 18.1973 14.8871 18.2362 15.0122L18.2358 15.0124L18.2402 15.0234L18.7092 16.1965L17.4337 16.0703L17.4337 16.0702L17.4313 16.07C17.3181 16.0607 16.231 15.9562 15.0815 15.3254L15.0093 15.4569L15.0815 15.3254C13.9632 14.7118 12.6009 13.4896 12.436 11.1267C12.3482 9.86839 12.4789 8.78541 12.8171 7.88616L12.9316 7.58185L12.6258 7.69228C12.6192 7.69465 12.5953 7.703 12.5847 7.70686C10.4249 8.49551 9.14247 10.0325 8.78975 12.2616C8.14566 16.3319 9.56821 19.8023 10.5958 22.3093L10.5993 22.3178C10.7263 22.6278 10.8457 22.9193 10.9547 23.1957L11.0139 23.3458L11.1593 23.2758C11.7061 23.0124 12.575 22.6628 13.6894 22.4425L13.661 22.2986L13.6894 22.4425C15.3507 22.1141 17.9007 22.017 20.8318 23.3121L20.9748 23.3753L21.032 23.2297C21.1445 22.9433 21.2684 22.6405 21.4007 22.3179ZM22.5005 7.70746L22.5708 7.7697L22.6575 7.73371C23.0218 7.58242 23.5253 7.33431 24.0027 7.0035C24.4781 6.67406 24.9397 6.25424 25.205 5.75557C25.5361 5.13328 25.6273 4.41975 25.6077 3.75666C25.5881 3.09259 25.457 2.4684 25.3336 2.01635L25.2945 1.87345L25.1512 1.91069C24.3665 2.11448 23.0991 2.61145 22.349 3.78962C22.0272 4.29506 21.9486 5.01346 21.9673 5.6834C21.9861 6.35953 22.1054 7.0162 22.2053 7.42123L22.2174 7.47027L22.2567 7.502C22.3401 7.56935 22.4216 7.63761 22.5005 7.70746Z" fill="#7B8E98" stroke="white" stroke-width="0.3"/>
</svg>
