<svg width="32" height="32" viewBox="0 0 32 32" fill="none" xmlns="http://www.w3.org/2000/svg">
<path d="M17.6859 11.4644C17.4203 10.8069 16.7879 10.3821 16.0762 10.3821H15.9236C15.2118 10.3821 14.5795 10.8069 14.3138 11.4645C13.5265 13.413 11.6604 14.6714 9.55886 14.6714H9.55634H9.55629L5.0999 14.6693L5.08745 14.6693L5.07538 14.6724C4.40484 14.8416 3.92673 15.4487 3.92673 16.1472C3.92673 16.9861 4.60907 17.6684 5.44792 17.6684H8.56512L5.83476 25.6349L5.92936 25.6673L5.83476 25.6349C5.46742 26.7069 5.63459 27.8516 6.2933 28.7736C6.95201 29.6957 7.98069 30.225 9.11379 30.225H22.8862C24.0193 30.225 25.048 29.6957 25.7066 28.7736C26.3653 27.8515 26.5326 26.7068 26.1651 25.6349L23.4346 17.6684H26.5519C27.3907 17.6684 28.073 16.9861 28.073 16.1472C28.073 15.4487 27.5949 14.8416 26.9243 14.6724L26.9123 14.6693L26.8998 14.6693L22.4434 14.6714H22.4433H22.4409C20.3391 14.6714 18.4733 13.4131 17.6859 11.4644ZM17.6859 11.4644L17.5932 11.5019L17.6859 11.4644C17.6859 11.4644 17.6859 11.4644 17.6859 11.4644ZM27.596 13.0567V13.1263L27.6612 13.1505C28.896 13.6079 29.7482 14.7963 29.7482 16.1472C29.7482 17.9096 28.3143 19.3434 26.5519 19.3434H25.9194H25.7794L25.8248 19.4759L27.7496 25.0918C28.2948 26.6827 28.047 28.3788 27.0695 29.7472C26.092 31.1157 24.5678 31.9 22.8861 31.9H9.11379C7.43209 31.9 5.90796 31.1157 4.93041 29.7473C3.95287 28.3789 3.70511 26.6827 4.25033 25.0919L6.17514 19.4759L6.22053 19.3435H6.08054H5.44798C3.68571 19.3435 2.25179 17.9096 2.25179 16.1473C2.25179 14.7964 3.10392 13.608 4.33866 13.1505L4.40392 13.1263V13.0568V11.6961C4.40392 5.30204 9.60596 0.1 16 0.1C22.394 0.1 27.596 5.30204 27.596 11.6961V13.0567ZM25.8211 12.9949L25.921 12.9948V12.8949V11.6961C25.921 6.22546 21.4706 1.775 16 1.775C10.5294 1.775 6.07892 6.22546 6.07892 11.6961V12.8949V12.9948L6.17887 12.9949L9.55725 12.9965H9.55729H9.5573H9.55731H9.55732H9.55733H9.55734H9.55735H9.55736H9.55737H9.55737H9.55738H9.55739H9.5574H9.55741H9.55742H9.55743H9.55744H9.55745H9.55746H9.55747H9.55748H9.55748H9.55749H9.5575H9.55751H9.55752H9.55753H9.55754H9.55755H9.55756H9.55757H9.55758H9.55759H9.5576H9.55761H9.55762H9.55763H9.55764H9.55764H9.55765H9.55766H9.55767H9.55768H9.55769H9.5577H9.55771H9.55772H9.55773H9.55774H9.55775H9.55776H9.55777H9.55778H9.55779H9.5578H9.55781H9.55782H9.55783H9.55784H9.55785H9.55786H9.55787H9.55788H9.55789H9.5579H9.55791H9.55792H9.55793H9.55794H9.55795H9.55796H9.55797H9.55798H9.55799H9.55799H9.558H9.55801H9.55802H9.55803H9.55804H9.55805H9.55806H9.55807H9.55808H9.55809H9.5581H9.55811H9.55812H9.55813H9.55814H9.55815H9.55816H9.55817H9.55818H9.55819H9.5582H9.55821H9.55822H9.55823H9.55824H9.55825H9.55826H9.55827H9.55828H9.55829H9.5583H9.55831H9.55832H9.55833H9.55834H9.55835H9.55836H9.55837H9.55838H9.55839H9.5584H9.55841H9.55842H9.55843H9.55844H9.55845H9.55846H9.55847H9.55848H9.55849H9.5585H9.55851H9.55852H9.55852H9.55853H9.55854H9.55855H9.55856H9.55857H9.55858H9.55859H9.5586H9.55861H9.55862H9.55863H9.55864H9.55865H9.55866H9.55867H9.55868H9.55869H9.55869H9.5587H9.55871H9.55872H9.55873H9.55874H9.55875H9.55876H9.55877H9.55878H9.55879H9.5588H9.55881H9.55881H9.55882H9.55883H9.55884H9.55885H9.55886H9.55887H9.55888H9.55889H9.5589H9.5589H9.55892C10.9739 12.9965 12.2309 12.1488 12.7609 10.837C13.2838 9.54312 14.5249 8.70719 15.9237 8.70719H16.0763C17.4751 8.70719 18.7163 9.54312 19.239 10.837C19.7691 12.1488 21.0262 12.9965 22.441 12.9965H22.4411H22.4411H22.4411H22.4411H22.4411H22.4411H22.4412H22.4412H22.4412H22.4412H22.4412H22.4412H22.4413H22.4413H22.4413H22.4413H22.4413H22.4413H22.4413H22.4414H22.4414H22.4414H22.4414H22.4414H22.4414H22.4415H22.4415H22.4415H22.4415H22.4415H22.4415H22.4415H22.4416H22.4416H22.4416H22.4416H22.4416H22.4416H22.4417H22.4417H22.4417H22.4417H22.4417H22.4417H22.4418H22.4418H22.4418H22.4418H22.4418H22.4418H22.4418H22.4419H22.4419H22.4419H22.4419H22.4419H22.4419H22.442H22.442H22.442H22.442H22.442H22.442H22.442H22.4421H22.4421H22.4421H22.4421H22.4421H22.4421H22.4422H22.4422H22.4422H22.4422H22.4422H22.4422H22.4422H22.4423H22.4423H22.4423H22.4423H22.4423H22.4423H22.4424H22.4424H22.4424H22.4424H22.4424H22.4424H22.4425H22.4425H22.4425H22.4425H22.4425H22.4426H22.4426H22.4426H22.4426H22.4426H22.4426H22.4426H22.4427H22.4427L25.8211 12.9949Z" fill="#7B8E98" stroke="white" stroke-width="0.2"/>
<path d="M12.6427 7.39307C12.6427 6.8753 12.2141 6.45557 11.6963 6.45557C11.1786 6.45557 10.75 6.8753 10.75 7.39307C10.75 7.91083 11.1786 8.33057 11.6963 8.33057C12.2141 8.33057 12.6427 7.91083 12.6427 7.39307Z" fill="#7B8E98"/>
<path d="M21.2498 7.39307C21.2498 6.8753 20.8213 6.45557 20.3035 6.45557C19.7858 6.45557 19.3572 6.8753 19.3572 7.39307C19.3572 7.91083 19.7858 8.33057 20.3035 8.33057C20.8213 8.33057 21.2498 7.91083 21.2498 7.39307Z" fill="#7B8E98"/>
<path d="M12.6442 18.0634C12.5282 17.5586 12.8434 17.0553 13.3482 16.9393C13.8531 16.8234 14.3563 17.1386 14.4723 17.6434L14.5573 18.0134C14.6733 18.5182 14.3581 19.0214 13.8532 19.1374C13.3484 19.2534 12.8451 18.9382 12.7292 18.4334L12.6442 18.0634Z" fill="#7B8E98"/>
<path d="M18.6639 16.9235C18.1591 16.8075 17.6558 17.1228 17.5398 17.6276L17.4548 17.9975C17.3388 18.5023 17.6541 19.0056 18.1589 19.1216C18.6637 19.2376 19.167 18.9223 19.283 18.4175L19.368 18.0476C19.484 17.5428 19.1687 17.0395 18.6639 16.9235Z" fill="#7B8E98"/>
</svg>
