<svg width="54" height="24" viewBox="0 0 54 24" fill="none" xmlns="http://www.w3.org/2000/svg">
<path fill-rule="evenodd" clip-rule="evenodd" d="M14.5718 4V4.00699L14.5717 4.00699C14.5566 4.00697 12.4584 4.00425 11.8981 6.10306C11.3834 8.03144 9.93288 13.3555 9.89277 13.5022H9.49171C9.49171 13.5022 8.0078 8.05939 7.48642 6.09607C6.92494 3.99301 4.8127 4 4.8127 4H0V20H4.8127V10.4978H5.01323H5.21376L8.02116 20H11.3633L14.1707 10.5048H14.5718V20H19.3845V4H14.5718ZM31.8605 4C31.8605 4 30.4842 4.13275 29.8385 5.67686L26.512 13.5022H26.1206V4H21.4244V20H25.8597C25.8597 20 27.3012 19.8603 27.947 18.3231L31.2082 10.4978H31.5996V20H36.2958V4H31.8605ZM38.8813 20V11.2H53.4592C52.7613 13.3331 50.8828 14.8608 48.6652 14.8608H43.5776V20H38.8813Z" fill="#4DB45E"/>
<path d="M48.9222 4.02344H38.4998C39.0206 6.74232 41.1493 8.92492 43.903 9.63582C44.528 9.79795 45.1855 9.88526 45.8626 9.88526H53.8959C53.9675 9.56099 54 9.23048 54 8.8875C54 6.19979 51.7281 4.02344 48.9222 4.02344Z" fill="url(#paint0_linear_172_28227)"/>
<defs>
<linearGradient id="paint0_linear_172_28227" x1="38.501" y1="9.88502" x2="54" y2="9.88502" gradientUnits="userSpaceOnUse">
<stop offset="0.3" stop-color="#00B4E6"/>
<stop offset="1" stop-color="#088CCB"/>
</linearGradient>
</defs>
</svg>
