<svg width="36" height="24" viewBox="0 0 36 24" fill="none" xmlns="http://www.w3.org/2000/svg">
<path d="M22.5 12.082C22.5 18.1585 17.5761 23.082 11.5 23.082C5.42393 23.082 0.5 18.1574 0.5 12.082C0.5 6.00667 5.42513 1.08203 11.5 1.08203C17.5749 1.08203 22.5 6.00667 22.5 12.082Z" fill="#E2574C"/>
<path d="M24.5007 1.08203C22.0345 1.08203 19.7642 1.90375 17.9295 3.27548L17.9383 3.27657C18.2992 3.62523 18.6973 3.87062 19.0042 4.27201L16.7163 4.30832C16.3577 4.67026 16.031 5.06404 15.723 5.47327H19.7576C20.0645 5.84172 20.3482 6.16191 20.6057 6.56885H14.9916C14.7859 6.92306 14.5957 7.28717 14.4295 7.66551H21.2448C21.423 8.04277 21.5825 8.32774 21.7179 8.72707H14.0259C13.9038 9.10662 13.7993 9.49486 13.72 9.89081H22.0401C22.1215 10.2714 22.1841 10.6234 22.2271 10.982H13.555C13.5187 11.344 13.5 11.7113 13.5 12.0821H22.2897C22.2897 12.4715 22.2622 12.8323 22.2226 13.1821H13.555C13.5924 13.555 13.6474 13.9213 13.72 14.2822H22.0268C21.941 14.6386 21.842 14.9971 21.7177 15.3689H14.0005C14.1171 15.7451 14.2591 16.1103 14.4141 16.4667H21.2448C21.0557 16.8671 20.8412 17.1872 20.6047 17.5623H14.9719C15.1941 17.9473 15.4394 18.3146 15.7055 18.6667L19.7577 18.7271C19.4123 19.1418 18.9691 19.3915 18.5653 19.7545C18.5873 19.7721 17.9196 19.7523 16.6051 19.7315C18.6049 21.7951 21.3999 23.082 24.5005 23.082C30.5756 23.082 35.5 18.1573 35.5 12.0821C35.5 6.00689 30.5767 1.08203 24.5007 1.08203Z" fill="#F4B459"/>
</svg>
