<svg width="51" height="24" viewBox="0 0 51 24" fill="none" xmlns="http://www.w3.org/2000/svg">
<path fill-rule="evenodd" clip-rule="evenodd" d="M26.6088 9.11512C26.6313 6.10378 29.4405 4 33.4342 4C34.9912 4 36.2419 4.33625 37.2148 4.68737L36.5046 7.96801C34.6954 7.14227 33.0994 7.2003 32.5214 7.27618C31.3533 7.42645 30.8203 8.01711 30.8067 8.57058C30.7911 9.30402 31.7045 9.77929 32.802 10.3503C34.4362 11.2006 36.4785 12.2631 36.4686 14.7063C36.4536 17.9245 33.6774 20 29.4345 20C27.6268 19.9836 25.8836 19.6087 24.9422 19.1787L25.6734 15.788L25.75 15.8235C26.6762 16.253 27.8467 16.7959 29.8218 16.7655C30.9854 16.7476 32.2286 16.2894 32.2406 15.2509C32.2466 14.5724 31.7181 14.0859 30.1446 13.3271C28.6132 12.5877 26.5803 11.3439 26.6088 9.11512ZM44.0387 4.28268H47.4889L50.75 19.759H47.013L46.5235 17.4484H41.3422L40.4984 19.759H36.2584L42.3196 5.41788C42.6109 4.73051 43.264 4.28268 44.0387 4.28268ZM42.5042 14.2749L44.6317 8.46345L45.8554 14.2749H42.5042ZM21.468 4.28268H25.5068L22.1661 19.759H18.1258L21.468 4.28268ZM19.7338 4.28268H15.4909L11.2854 14.8164L9.5843 5.85976C9.38462 4.85995 8.59638 4.28268 7.72105 4.28268H0.846091L0.75 4.732C2.16133 5.03551 3.76483 5.525 4.73625 6.04872C5.33081 6.3686 5.50046 6.64831 5.69565 7.40858L8.91768 19.759H13.1877L19.7338 4.28268Z" fill="#1359AF"/>
</svg>
