<svg width="116" height="20" viewBox="0 0 116 20" fill="none" xmlns="http://www.w3.org/2000/svg">
<path fill-rule="evenodd" clip-rule="evenodd" d="M15.1385 17.7804C15.4462 17.5491 15.5137 17.1687 15.3261 16.6315L13.7576 11.9838L17.7651 9.12648C18.2304 8.79823 18.4181 8.4476 18.298 8.08204C18.1779 7.71649 17.8252 7.53744 17.2473 7.5449L12.3317 7.5822L10.8382 2.91207C10.6581 2.36747 10.388 2.08398 9.99771 2.08398C9.61496 2.08398 9.34479 2.36747 9.16468 2.91207L7.67123 7.5822L2.7556 7.5449C2.17773 7.53744 1.82501 7.71649 1.70493 8.08204C1.57735 8.4476 1.77248 8.79823 2.23777 9.12648L6.24532 11.9838L4.67682 16.6315C4.4892 17.1687 4.55675 17.5491 4.86444 17.7804C5.17214 18.0191 5.56238 17.9371 6.02768 17.6013L9.99771 14.6993L13.9752 17.6013C14.4405 17.9371 14.8233 18.0191 15.1385 17.7804Z" fill="#FEBA0C"/>
<path fill-rule="evenodd" clip-rule="evenodd" d="M39.1385 17.7804C39.4462 17.5491 39.5137 17.1687 39.3261 16.6315L37.7576 11.9838L41.7651 9.12648C42.2304 8.79823 42.4181 8.4476 42.298 8.08204C42.1779 7.71649 41.8252 7.53744 41.2473 7.5449L36.3317 7.5822L34.8382 2.91207C34.6581 2.36747 34.388 2.08398 33.9977 2.08398C33.615 2.08398 33.3448 2.36747 33.1647 2.91207L31.6712 7.5822L26.7556 7.5449C26.1777 7.53744 25.825 7.71649 25.7049 8.08204C25.5774 8.4476 25.7725 8.79823 26.2378 9.12648L30.2453 11.9838L28.6768 16.6315C28.4892 17.1687 28.5567 17.5491 28.8644 17.7804C29.1721 18.0191 29.5624 17.9371 30.0277 17.6013L33.9977 14.6993L37.9752 17.6013C38.4405 17.9371 38.8233 18.0191 39.1385 17.7804Z" fill="#FEBA0C"/>
<path fill-rule="evenodd" clip-rule="evenodd" d="M63.1385 17.7804C63.4462 17.5491 63.5137 17.1687 63.3261 16.6315L61.7576 11.9838L65.7651 9.12648C66.2304 8.79823 66.4181 8.4476 66.298 8.08204C66.1779 7.71649 65.8252 7.53744 65.2473 7.5449L60.3317 7.5822L58.8382 2.91207C58.6581 2.36747 58.388 2.08398 57.9977 2.08398C57.615 2.08398 57.3448 2.36747 57.1647 2.91207L55.6712 7.5822L50.7556 7.5449C50.1777 7.53744 49.825 7.71649 49.7049 8.08204C49.5774 8.4476 49.7725 8.79823 50.2378 9.12648L54.2453 11.9838L52.6768 16.6315C52.4892 17.1687 52.5567 17.5491 52.8644 17.7804C53.1721 18.0191 53.5624 17.9371 54.0277 17.6013L57.9977 14.6993L61.9752 17.6013C62.4405 17.9371 62.8233 18.0191 63.1385 17.7804Z" fill="#FEBA0C"/>
<path fill-rule="evenodd" clip-rule="evenodd" d="M87.1385 17.7804C87.4462 17.5491 87.5137 17.1687 87.3261 16.6315L85.7576 11.9838L89.7651 9.12648C90.2304 8.79823 90.4181 8.4476 90.298 8.08204C90.1779 7.71649 89.8252 7.53744 89.2473 7.5449L84.3317 7.5822L82.8382 2.91207C82.6581 2.36747 82.388 2.08398 81.9977 2.08398C81.615 2.08398 81.3448 2.36747 81.1647 2.91207L79.6712 7.5822L74.7556 7.5449C74.1777 7.53744 73.825 7.71649 73.7049 8.08204C73.5774 8.4476 73.7725 8.79823 74.2378 9.12648L78.2453 11.9838L76.6768 16.6315C76.4892 17.1687 76.5567 17.5491 76.8644 17.7804C77.1721 18.0191 77.5624 17.9371 78.0277 17.6013L81.9977 14.6993L85.9752 17.6013C86.4405 17.9371 86.8233 18.0191 87.1385 17.7804ZM85.9903 16.2963L82.3805 13.5584C82.2604 13.4614 82.1328 13.4092 81.9977 13.4166V3.90479C82.0202 3.90479 82.0352 3.91971 82.0427 3.96447L83.3486 8.28396C83.4461 8.58984 83.6413 8.7092 83.949 8.70174L88.4893 8.62714C88.5344 8.62714 88.5494 8.62714 88.5569 8.64952C88.5644 8.66444 88.5494 8.67936 88.5194 8.70174L84.782 11.2681C84.5193 11.4471 84.4593 11.6858 84.5644 11.9768L86.0578 16.2366C86.0653 16.2814 86.0728 16.2888 86.0578 16.3112C86.0428 16.3261 86.0203 16.3187 85.9903 16.2963Z" fill="#FEBA0C"/>
<path fill-rule="evenodd" clip-rule="evenodd" d="M111.138 17.7804C111.446 17.5491 111.514 17.1687 111.326 16.6315L109.758 11.9838L113.765 9.12648C114.23 8.79823 114.418 8.4476 114.298 8.08204C114.178 7.71649 113.825 7.53744 113.247 7.5449L108.332 7.5822L106.838 2.91207C106.658 2.36747 106.388 2.08398 105.998 2.08398C105.615 2.08398 105.345 2.36747 105.165 2.91207L103.671 7.5822L98.7556 7.5449C98.1777 7.53744 97.825 7.71649 97.7049 8.08204C97.5774 8.4476 97.7725 8.79823 98.2378 9.12648L102.245 11.9838L100.677 16.6315C100.489 17.1687 100.557 17.5491 100.864 17.7804C101.172 18.0191 101.562 17.9371 102.028 17.6013L105.998 14.6993L109.975 17.6013C110.441 17.9371 110.823 18.0191 111.138 17.7804ZM109.99 16.2963L106.38 13.5584C106.14 13.3719 105.863 13.3719 105.623 13.5584L102.013 16.2963C101.983 16.3187 101.96 16.3261 101.945 16.3112C101.93 16.2888 101.938 16.2814 101.945 16.2366L103.439 11.9768C103.544 11.6858 103.484 11.4471 103.221 11.2681L99.4836 8.70174C99.4461 8.67936 99.4386 8.66444 99.4461 8.64952C99.4536 8.62714 99.4686 8.62714 99.5136 8.62714L104.054 8.70174C104.362 8.7092 104.557 8.58984 104.654 8.28396L105.96 3.96447C105.968 3.91971 105.983 3.90479 105.998 3.90479C106.02 3.90479 106.035 3.91971 106.043 3.96447L107.349 8.28396C107.446 8.58984 107.641 8.7092 107.949 8.70174L112.489 8.62714C112.534 8.62714 112.549 8.62714 112.557 8.64952C112.564 8.66444 112.549 8.67936 112.519 8.70174L108.782 11.2681C108.519 11.4471 108.459 11.6858 108.564 11.9768L110.058 16.2366C110.065 16.2814 110.073 16.2888 110.058 16.3112C110.043 16.3261 110.02 16.3187 109.99 16.2963Z" fill="#CFD8DC"/>
</svg>
